<svg xmlns="http://www.w3.org/2000/svg" xmlns:xlink="http://www.w3.org/1999/xlink" viewBox="0 0 171 168.24">
  <defs>
    <style>
      .a, .e {
        fill: #039;
      }

      .a, .b, .c {
        fill-rule: evenodd;
      }

      .b {
        fill: url(#a);
      }

      .c, .i {
        fill: #fff;
      }

      .d {
        isolation: isolate;
      }

      .f, .h, .j {
        fill: none;
        stroke-miterlimit: 10;
      }

      .f {
        stroke: #039;
        stroke-width: 2.37px;
      }

      .g {
        fill: #777;
      }

      .h {
        stroke: #777;
      }

      .h, .j {
        stroke-width: 2.63px;
      }

      .j {
        stroke: #fff;
      }
    </style>
    <radialGradient id="a" data-name="Sfumatura senza nome 2" cx="344.8" cy="752.27" r="82.49" gradientTransform="matrix(0.87, 0, 0, -0.86, -198.88, 729.55)" gradientUnits="userSpaceOnUse">
      <stop offset="0" stop-opacity="0.5"/>
      <stop offset="0.86" stop-color="#000003" stop-opacity="0.35"/>
      <stop offset="1" stop-color="#0c0000" stop-opacity="0"/>
    </radialGradient>
  </defs>
  <title>Risorsa 1</title>
  <g>
    <path class="a" d="M0,84.12C0,37.66,38.29,0,85.5,0S171,37.66,171,84.12s-38.29,84.12-85.5,84.12S0,130.58,0,84.12Z"/>
    <path class="b" d="M101.88,14.16c-39.74,0-71.95,31.66-71.95,70.7s32.21,70.69,71.95,70.69a71.87,71.87,0,0,0,68.4-48.75V62.91A71.87,71.87,0,0,0,101.88,14.16Z"/>
    <path class="c" d="M35.89,84.86c0-35.68,29.55-64.61,66-64.61s66,28.93,66,64.61-29.54,64.6-66,64.6-66-28.93-66-64.6Z"/>
    <g class="d">
      <g class="d">
        <path class="e" d="M115.61,101.46q-.56-3.84-1.37-8c-.54-2.74-1.14-5.5-1.78-8.28-.37.82-.78,1.7-1.26,2.64s-1,1.9-1.5,2.89-1.09,2-1.67,3-1.16,2-1.73,2.93-1.14,1.86-1.7,2.72-1.09,1.64-1.59,2.34l-2.2-.24c-.18-1.29-.38-2.65-.62-4.07s-.49-2.86-.76-4.31-.55-2.88-.83-4.28-.58-2.73-.87-4-.57-2.42-.84-3.48-.52-2-.75-2.7-.53-1.56-.76-2.1a5.45,5.45,0,0,0-.73-1.26,1.92,1.92,0,0,0-.8-.6,2.63,2.63,0,0,0-1-.17,6.92,6.92,0,0,0-1.38.15c-.5.09-1.09.22-1.77.38l-.31-1.46c1.81-.64,3.37-1.14,4.7-1.48A12.69,12.69,0,0,1,97,71.61a2.64,2.64,0,0,1,1,.18,2.6,2.6,0,0,1,.86.63,5.63,5.63,0,0,1,.79,1.21,13.7,13.7,0,0,1,.74,2c.18.56.38,1.27.61,2.12s.47,1.8.72,2.86.51,2.2.78,3.43.53,2.5.79,3.82.5,2.67.73,4,.45,2.72.64,4.07c.3-.46.64-1,1-1.7s.8-1.4,1.23-2.18.84-1.59,1.27-2.42.82-1.63,1.18-2.42.68-1.51,1-2.18a14.19,14.19,0,0,0,.59-1.72,6.44,6.44,0,0,0,.17-1,7.5,7.5,0,0,0,.05-.94,12.8,12.8,0,0,0-.08-1.34c0-.48-.12-1-.21-1.45s-.19-1-.29-1.46-.22-.94-.33-1.37a4,4,0,0,1-.14-.87,1.23,1.23,0,0,1,.42-1,2.08,2.08,0,0,1,1.38-.36,5.11,5.11,0,0,1,1.32.18,5.64,5.64,0,0,1,1.27.47q.65,2.51,1.32,5.27c.46,1.84.9,3.7,1.34,5.58s.85,3.75,1.24,5.6.74,3.64,1,5.35c1-1.5,1.87-3,2.78-4.59a52.24,52.24,0,0,0,2.43-4.68,32.34,32.34,0,0,0,1.71-4.64,16.69,16.69,0,0,0,.65-4.49,12.73,12.73,0,0,0-.12-1.77,8.32,8.32,0,0,0-.42-1.65,6.32,6.32,0,0,0-2.07-2.81l.22-.49.71-.06.67,0a5.44,5.44,0,0,1,4,1.28,4.79,4.79,0,0,1,1.28,3.54,13.29,13.29,0,0,1-.67,3.89,38.31,38.31,0,0,1-1.8,4.56q-1.12,2.39-2.54,4.86c-.95,1.65-1.91,3.26-2.9,4.81s-2,3-2.92,4.37-1.79,2.57-2.53,3.59Z"/>
      </g>
      <g class="d">
        <path class="f" d="M115.61,101.46q-.56-3.84-1.37-8c-.54-2.74-1.14-5.5-1.78-8.28-.37.82-.78,1.7-1.26,2.64s-1,1.9-1.5,2.89-1.09,2-1.67,3-1.16,2-1.73,2.93-1.14,1.86-1.7,2.72-1.09,1.64-1.59,2.34l-2.2-.24c-.18-1.29-.38-2.65-.62-4.07s-.49-2.86-.76-4.31-.55-2.88-.83-4.28-.58-2.73-.87-4-.57-2.42-.84-3.48-.52-2-.75-2.7-.53-1.56-.76-2.1a5.45,5.45,0,0,0-.73-1.26,1.92,1.92,0,0,0-.8-.6,2.63,2.63,0,0,0-1-.17,6.92,6.92,0,0,0-1.38.15c-.5.09-1.09.22-1.77.38l-.31-1.46c1.81-.64,3.37-1.14,4.7-1.48A12.69,12.69,0,0,1,97,71.61a2.64,2.64,0,0,1,1,.18,2.6,2.6,0,0,1,.86.63,5.63,5.63,0,0,1,.79,1.21,13.7,13.7,0,0,1,.74,2c.18.56.38,1.27.61,2.12s.47,1.8.72,2.86.51,2.2.78,3.43.53,2.5.79,3.82.5,2.67.73,4,.45,2.72.64,4.07c.3-.46.64-1,1-1.7s.8-1.4,1.23-2.18.84-1.59,1.27-2.42.82-1.63,1.18-2.42.68-1.51,1-2.18a14.19,14.19,0,0,0,.59-1.72,6.44,6.44,0,0,0,.17-1,7.5,7.5,0,0,0,.05-.94,12.8,12.8,0,0,0-.08-1.34c0-.48-.12-1-.21-1.45s-.19-1-.29-1.46-.22-.94-.33-1.37a4,4,0,0,1-.14-.87,1.23,1.23,0,0,1,.42-1,2.08,2.08,0,0,1,1.38-.36,5.11,5.11,0,0,1,1.32.18,5.64,5.64,0,0,1,1.27.47q.65,2.51,1.32,5.27c.46,1.84.9,3.7,1.34,5.58s.85,3.75,1.24,5.6.74,3.64,1,5.35c1-1.5,1.87-3,2.78-4.59a52.24,52.24,0,0,0,2.43-4.68,32.34,32.34,0,0,0,1.71-4.64,16.69,16.69,0,0,0,.65-4.49,12.73,12.73,0,0,0-.12-1.77,8.32,8.32,0,0,0-.42-1.65,6.32,6.32,0,0,0-2.07-2.81l.22-.49.71-.06.67,0a5.44,5.44,0,0,1,4,1.28,4.79,4.79,0,0,1,1.28,3.54,13.29,13.29,0,0,1-.67,3.89,38.31,38.31,0,0,1-1.8,4.56q-1.12,2.39-2.54,4.86c-.95,1.65-1.91,3.26-2.9,4.81s-2,3-2.92,4.37-1.79,2.57-2.53,3.59Z"/>
      </g>
      <g class="d">
        <path class="e" d="M150.93,80a6.78,6.78,0,0,0-.53-2.77,5.38,5.38,0,0,0-3.3-3,6.63,6.63,0,0,0-2.14-.36,8.48,8.48,0,0,0-2.43.3,4.39,4.39,0,0,0-1.6.83,2.92,2.92,0,0,0-.89,1.24,4.18,4.18,0,0,0-.28,1.55,5.6,5.6,0,0,0,.36,1.95,7.17,7.17,0,0,0,1,1.91l-.08.23a5.35,5.35,0,0,1-2.33.56,3.82,3.82,0,0,1-1.28-.21,2.9,2.9,0,0,1-1-.62,2.94,2.94,0,0,1-.69-1,3.26,3.26,0,0,1-.25-1.31,4.64,4.64,0,0,1,.57-2.25,7.7,7.7,0,0,1,1.53-1.92,11.38,11.38,0,0,1,2.2-1.56,19.33,19.33,0,0,1,2.59-1.16,17.79,17.79,0,0,1,2.68-.73,13.47,13.47,0,0,1,2.5-.25,10.25,10.25,0,0,1,3.63.57,5.92,5.92,0,0,1,2.45,1.64A6.9,6.9,0,0,1,155,76.24a12.84,12.84,0,0,1,.44,3.48c0,.89,0,1.87-.12,2.93s-.15,2.18-.25,3.35-.18,2.37-.25,3.61-.11,2.47-.11,3.7a7.37,7.37,0,0,0,1.08,4.38,3.37,3.37,0,0,0,2.84,1.47A6.91,6.91,0,0,0,162.13,98l.59.87a9.87,9.87,0,0,1-3,2.07,8.18,8.18,0,0,1-3.35.7,6.6,6.6,0,0,1-2.43-.44,5.23,5.23,0,0,1-1.92-1.33,6,6,0,0,1-1.26-2.21,10,10,0,0,1-.44-3.1q0-.53,0-1a9.25,9.25,0,0,1,.13-1.11h-.12a30.93,30.93,0,0,1-2,3.43,19.09,19.09,0,0,1-2.51,3A12.72,12.72,0,0,1,143,101a6.9,6.9,0,0,1-3.25.81,6.58,6.58,0,0,1-2.55-.48A5.85,5.85,0,0,1,133.93,98a7,7,0,0,1-.46-2.54,7.74,7.74,0,0,1,.66-3.23A8.84,8.84,0,0,1,136,89.59a11.34,11.34,0,0,1,2.78-2,19.42,19.42,0,0,1,3.52-1.4,27.35,27.35,0,0,1,4-.83,34.09,34.09,0,0,1,4.32-.27c.1-.85.17-1.67.24-2.47S150.93,81,150.93,80ZM138.51,93.9a6.63,6.63,0,0,0,.17,1.5,3.94,3.94,0,0,0,.55,1.27,2.71,2.71,0,0,0,1,.86,2.81,2.81,0,0,0,1.38.31,4.68,4.68,0,0,0,1.88-.42,9,9,0,0,0,1.92-1.18,12.65,12.65,0,0,0,1.8-1.79,15.32,15.32,0,0,0,1.54-2.27,14.74,14.74,0,0,0,1.14-2.6,12.16,12.16,0,0,0,.6-2.8c-1,0-2,.09-3,.19a19.67,19.67,0,0,0-2.8.48,13,13,0,0,0-2.46.85,7.14,7.14,0,0,0-2,1.3A5.57,5.57,0,0,0,139,91.44,6.1,6.1,0,0,0,138.51,93.9Z"/>
      </g>
      <g class="d">
        <path class="f" d="M150.93,80a6.78,6.78,0,0,0-.53-2.77,5.38,5.38,0,0,0-3.3-3,6.63,6.63,0,0,0-2.14-.36,8.48,8.48,0,0,0-2.43.3,4.39,4.39,0,0,0-1.6.83,2.92,2.92,0,0,0-.89,1.24,4.18,4.18,0,0,0-.28,1.55,5.6,5.6,0,0,0,.36,1.95,7.17,7.17,0,0,0,1,1.91l-.08.23a5.35,5.35,0,0,1-2.33.56,3.82,3.82,0,0,1-1.28-.21,2.9,2.9,0,0,1-1-.62,2.94,2.94,0,0,1-.69-1,3.26,3.26,0,0,1-.25-1.31,4.64,4.64,0,0,1,.57-2.25,7.7,7.7,0,0,1,1.53-1.92,11.38,11.38,0,0,1,2.2-1.56,19.33,19.33,0,0,1,2.59-1.16,17.79,17.79,0,0,1,2.68-.73,13.47,13.47,0,0,1,2.5-.25,10.25,10.25,0,0,1,3.63.57,5.92,5.92,0,0,1,2.45,1.64A6.9,6.9,0,0,1,155,76.24a12.84,12.84,0,0,1,.44,3.48c0,.89,0,1.87-.12,2.93s-.15,2.18-.25,3.35-.18,2.37-.25,3.61-.11,2.47-.11,3.7a7.37,7.37,0,0,0,1.08,4.38,3.37,3.37,0,0,0,2.84,1.47A6.91,6.91,0,0,0,162.13,98l.59.87a9.87,9.87,0,0,1-3,2.07,8.18,8.18,0,0,1-3.35.7,6.6,6.6,0,0,1-2.43-.44,5.23,5.23,0,0,1-1.92-1.33,6,6,0,0,1-1.26-2.21,10,10,0,0,1-.44-3.1q0-.53,0-1a9.25,9.25,0,0,1,.13-1.11h-.12a30.93,30.93,0,0,1-2,3.43,19.09,19.09,0,0,1-2.51,3A12.72,12.72,0,0,1,143,101a6.9,6.9,0,0,1-3.25.81,6.58,6.58,0,0,1-2.55-.48A5.85,5.85,0,0,1,133.93,98a7,7,0,0,1-.46-2.54,7.74,7.74,0,0,1,.66-3.23A8.84,8.84,0,0,1,136,89.59a11.34,11.34,0,0,1,2.78-2,19.42,19.42,0,0,1,3.52-1.4,27.35,27.35,0,0,1,4-.83,34.09,34.09,0,0,1,4.32-.27c.1-.85.17-1.67.24-2.47S150.93,81,150.93,80ZM138.51,93.9a6.63,6.63,0,0,0,.17,1.5,3.94,3.94,0,0,0,.55,1.27,2.71,2.71,0,0,0,1,.86,2.81,2.81,0,0,0,1.38.31,4.68,4.68,0,0,0,1.88-.42,9,9,0,0,0,1.92-1.18,12.65,12.65,0,0,0,1.8-1.79,15.32,15.32,0,0,0,1.54-2.27,14.74,14.74,0,0,0,1.14-2.6,12.16,12.16,0,0,0,.6-2.8c-1,0-2,.09-3,.19a19.67,19.67,0,0,0-2.8.48,13,13,0,0,0-2.46.85,7.14,7.14,0,0,0-2,1.3A5.57,5.57,0,0,0,139,91.44,6.1,6.1,0,0,0,138.51,93.9Z"/>
      </g>
    </g>
    <g class="d">
      <g class="d">
        <path class="g" d="M125.38,118a36.32,36.32,0,0,1-4.49,5.21,26,26,0,0,1-4.56,3.47,18,18,0,0,1-9.26,2.55,21.88,21.88,0,0,1-5.29-.65,35.78,35.78,0,0,1-5.31-1.74,55,55,0,0,1-5.27-2.53c-1.75-1-3.49-2-5.21-3s-3.43-2.13-5.12-3.21-3.36-2.12-5-3.1-3.26-1.88-4.84-2.68a33.17,33.17,0,0,0-4.65-1.94c-.84-.27-1.65-.49-2.42-.66s-1.52-.32-2.25-.44l-2.12-.34c-.69-.1-1.35-.22-2-.36a18.82,18.82,0,0,1-6.5-2.59,17.65,17.65,0,0,1-5-4.91,23.73,23.73,0,0,1-3.23-7.21,35.32,35.32,0,0,1-1.15-9.44,44.64,44.64,0,0,1,.63-7.55,36.3,36.3,0,0,1,1.89-7,29.35,29.35,0,0,1,3.12-6,21.28,21.28,0,0,1,4.36-4.7,19.19,19.19,0,0,1,5.6-3.08,20,20,0,0,1,6.8-1.1,21.35,21.35,0,0,1,8.3,1.57,17.69,17.69,0,0,1,6.5,4.67A21.87,21.87,0,0,1,83.13,69a34.51,34.51,0,0,1,1.51,10.72,45,45,0,0,1-.49,6.72,36.81,36.81,0,0,1-1.48,6.23,29.4,29.4,0,0,1-2.49,5.52,23,23,0,0,1-3.46,4.58,19.93,19.93,0,0,1-4.42,3.43,19.21,19.21,0,0,1-5.41,2.06v.18A35.19,35.19,0,0,1,72,109.86c1.72.63,3.47,1.34,5.23,2.13s3.53,1.64,5.31,2.54,3.58,1.79,5.38,2.69,3.61,1.74,5.42,2.56,3.6,1.53,5.4,2.15a43.91,43.91,0,0,0,5.36,1.5,25.85,25.85,0,0,0,5.29.56,20.29,20.29,0,0,0,3.9-.37,18,18,0,0,0,3.8-1.19,19,19,0,0,0,3.67-2.15,23.53,23.53,0,0,0,3.51-3.21ZM63.25,106.15A12.82,12.82,0,0,0,68,105.3a12,12,0,0,0,3.81-2.41,14.91,14.91,0,0,0,2.91-3.75,24,24,0,0,0,2-4.91,38.26,38.26,0,0,0,1.19-5.83,53,53,0,0,0,.39-6.56,41.53,41.53,0,0,0-1.2-10.62,23.49,23.49,0,0,0-3.27-7.46A13.71,13.71,0,0,0,69,59.36a12.36,12.36,0,0,0-5.85-1.45,12.62,12.62,0,0,0-4.74.85,12,12,0,0,0-3.81,2.41,14.91,14.91,0,0,0-2.91,3.75,23.18,23.18,0,0,0-2,4.91,36.75,36.75,0,0,0-1.19,5.84,53,53,0,0,0-.39,6.55,41.64,41.64,0,0,0,1.2,10.62,23.49,23.49,0,0,0,3.27,7.46,13.72,13.72,0,0,0,4.82,4.4A12.33,12.33,0,0,0,63.25,106.15Z"/>
      </g>
      <g class="d">
        <path class="h" d="M125.38,118a36.32,36.32,0,0,1-4.49,5.21,26,26,0,0,1-4.56,3.47,18,18,0,0,1-9.26,2.55,21.88,21.88,0,0,1-5.29-.65,35.78,35.78,0,0,1-5.31-1.74,55,55,0,0,1-5.27-2.53c-1.75-1-3.49-2-5.21-3s-3.43-2.13-5.12-3.21-3.36-2.12-5-3.1-3.26-1.88-4.84-2.68a33.17,33.17,0,0,0-4.65-1.94c-.84-.27-1.65-.49-2.42-.66s-1.52-.32-2.25-.44l-2.12-.34c-.69-.1-1.35-.22-2-.36a18.82,18.82,0,0,1-6.5-2.59,17.65,17.65,0,0,1-5-4.91,23.73,23.73,0,0,1-3.23-7.21,35.32,35.32,0,0,1-1.15-9.44,44.64,44.64,0,0,1,.63-7.55,36.3,36.3,0,0,1,1.89-7,29.35,29.35,0,0,1,3.12-6,21.28,21.28,0,0,1,4.36-4.7,19.19,19.19,0,0,1,5.6-3.08,20,20,0,0,1,6.8-1.1,21.35,21.35,0,0,1,8.3,1.57,17.69,17.69,0,0,1,6.5,4.67A21.87,21.87,0,0,1,83.13,69a34.51,34.51,0,0,1,1.51,10.72,45,45,0,0,1-.49,6.72,36.81,36.81,0,0,1-1.48,6.23,29.4,29.4,0,0,1-2.49,5.52,23,23,0,0,1-3.46,4.58,19.93,19.93,0,0,1-4.42,3.43,19.21,19.21,0,0,1-5.41,2.06v.18A35.19,35.19,0,0,1,72,109.86c1.72.63,3.47,1.34,5.23,2.13s3.53,1.64,5.31,2.54,3.58,1.79,5.38,2.69,3.61,1.74,5.42,2.56,3.6,1.53,5.4,2.15a43.91,43.91,0,0,0,5.36,1.5,25.85,25.85,0,0,0,5.29.56,20.29,20.29,0,0,0,3.9-.37,18,18,0,0,0,3.8-1.19,19,19,0,0,0,3.67-2.15,23.53,23.53,0,0,0,3.51-3.21ZM63.25,106.15A12.82,12.82,0,0,0,68,105.3a12,12,0,0,0,3.81-2.41,14.91,14.91,0,0,0,2.91-3.75,24,24,0,0,0,2-4.91,38.26,38.26,0,0,0,1.19-5.83,53,53,0,0,0,.39-6.56,41.53,41.53,0,0,0-1.2-10.62,23.49,23.49,0,0,0-3.27-7.46A13.71,13.71,0,0,0,69,59.36a12.36,12.36,0,0,0-5.85-1.45,12.62,12.62,0,0,0-4.74.85,12,12,0,0,0-3.81,2.41,14.91,14.91,0,0,0-2.91,3.75,23.18,23.18,0,0,0-2,4.91,36.75,36.75,0,0,0-1.19,5.84,53,53,0,0,0-.39,6.55,41.64,41.64,0,0,0,1.2,10.62,23.49,23.49,0,0,0,3.27,7.46,13.72,13.72,0,0,0,4.82,4.4A12.33,12.33,0,0,0,63.25,106.15Z"/>
      </g>
    </g>
    <g class="d">
      <g class="d">
        <path class="i" d="M28.09,95.12l.35.19a2.8,2.8,0,0,1,.4.27,2.27,2.27,0,0,1,.31.31.51.51,0,0,1,.13.33.32.32,0,0,1-.06.18,18.27,18.27,0,0,1-2.71,3,17.1,17.1,0,0,1-3,2.16,13.41,13.41,0,0,1-3.18,1.28,12.66,12.66,0,0,1-3.19.42,11,11,0,0,1-4.94-1.11,11.71,11.71,0,0,1-3.87-3A14.1,14.1,0,0,1,5.79,94.7a16.54,16.54,0,0,1-.91-5.51,22.87,22.87,0,0,1,2.06-9.4,21.26,21.26,0,0,1,2.44-4.05,17.11,17.11,0,0,1,3.27-3.26,15.3,15.3,0,0,1,4-2.17,13.94,13.94,0,0,1,4.71-.79,11,11,0,0,1,3.16.45,8.14,8.14,0,0,1,2.64,1.3A6.31,6.31,0,0,1,29,73.34a6.11,6.11,0,0,1-.82,6.81,11.78,11.78,0,0,1-4.12,2.9A28.61,28.61,0,0,1,17.86,85a66.69,66.69,0,0,1-7.7,1.09v.38a18.12,18.12,0,0,0,.73,5.26,13,13,0,0,0,2,4.08,9.31,9.31,0,0,0,3,2.64,7.63,7.63,0,0,0,3.73.94,9.63,9.63,0,0,0,4.14-1A15,15,0,0,0,28.09,95.12ZM23.87,77.07a5.37,5.37,0,0,0-.35-1.93,4.76,4.76,0,0,0-1-1.56,4.56,4.56,0,0,0-1.48-1,4.37,4.37,0,0,0-1.84-.39,6.66,6.66,0,0,0-2.65.52,7.42,7.42,0,0,0-2.13,1.4,10.3,10.3,0,0,0-1.67,2.07,15.34,15.34,0,0,0-1.22,2.51,19.39,19.39,0,0,0-.82,2.72,22.51,22.51,0,0,0-.45,2.71A38.68,38.68,0,0,0,16,83.31a18.72,18.72,0,0,0,4.27-1.42A7.43,7.43,0,0,0,23,79.83,4.43,4.43,0,0,0,23.87,77.07Z"/>
      </g>
      <g class="d">
        <path class="j" d="M28.09,95.12l.35.19a2.8,2.8,0,0,1,.4.27,2.27,2.27,0,0,1,.31.31.51.51,0,0,1,.13.33.32.32,0,0,1-.06.18,18.27,18.27,0,0,1-2.71,3,17.1,17.1,0,0,1-3,2.16,13.41,13.41,0,0,1-3.18,1.28,12.66,12.66,0,0,1-3.19.42,11,11,0,0,1-4.94-1.11,11.71,11.71,0,0,1-3.87-3A14.1,14.1,0,0,1,5.79,94.7a16.54,16.54,0,0,1-.91-5.51,22.87,22.87,0,0,1,2.06-9.4,21.26,21.26,0,0,1,2.44-4.05,17.11,17.11,0,0,1,3.27-3.26,15.3,15.3,0,0,1,4-2.17,13.94,13.94,0,0,1,4.71-.79,11,11,0,0,1,3.16.45,8.14,8.14,0,0,1,2.64,1.3A6.31,6.31,0,0,1,29,73.34a6.11,6.11,0,0,1-.82,6.81,11.78,11.78,0,0,1-4.12,2.9A28.61,28.61,0,0,1,17.86,85a66.69,66.69,0,0,1-7.7,1.09v.38a18.12,18.12,0,0,0,.73,5.26,13,13,0,0,0,2,4.08,9.31,9.31,0,0,0,3,2.64,7.63,7.63,0,0,0,3.73.94,9.63,9.63,0,0,0,4.14-1A15,15,0,0,0,28.09,95.12ZM23.87,77.07a5.37,5.37,0,0,0-.35-1.93,4.76,4.76,0,0,0-1-1.56,4.56,4.56,0,0,0-1.48-1,4.37,4.37,0,0,0-1.84-.39,6.66,6.66,0,0,0-2.65.52,7.42,7.42,0,0,0-2.13,1.4,10.3,10.3,0,0,0-1.67,2.07,15.34,15.34,0,0,0-1.22,2.51,19.39,19.39,0,0,0-.82,2.72,22.51,22.51,0,0,0-.45,2.71A38.68,38.68,0,0,0,16,83.31a18.72,18.72,0,0,0,4.27-1.42A7.43,7.43,0,0,0,23,79.83,4.43,4.43,0,0,0,23.87,77.07Z"/>
      </g>
    </g>
  </g>
</svg>
