<?xml version="1.0" encoding="utf-8"?>
<!-- Generator: Adobe Illustrator 22.1.0, SVG Export Plug-In . SVG Version: 6.00 Build 0)  -->
<svg version="1.1" id="Livello_1" xmlns="http://www.w3.org/2000/svg" xmlns:xlink="http://www.w3.org/1999/xlink" x="0px" y="0px"
	 viewBox="0 0 763.3 258.8" style="enable-background:new 0 0 763.3 258.8;" xml:space="preserve">
<style type="text/css">
	.st0{opacity:0.2;fill:#00ACD7;enable-background:new    ;}
	.st1{opacity:0.2;}
	.st2{fill:#00ACD7;}
	.st3{fill:#FFFFFF;}
</style>
<path class="st0" d="M34.1,158.3v96.2H0V4.6c25.8-1.1,41.4-1.7,46.8-1.7c72.6,0,108.9,24.3,108.9,72.9c0,56.2-32.1,84.3-96.2,84.3
	C55.5,160,47.1,159.4,34.1,158.3z M34.1,35.3v92.3c14.4,1.1,22.1,1.7,22.9,1.7c42.3,0,63.5-16.7,63.5-50c0-30.5-22.6-45.7-67.7-45.7
	C48.2,33.6,42,34.1,34.1,35.3z"/>
<path class="st0" d="M186.6,127.4c0-36.2,9.1-66.4,27.2-90.8C232,12.3,256.5,0.1,287.3,0.1c34.7,0,61.3,11.2,79.8,33.6
	s27.7,53.6,27.7,93.7c0,41.1-9.3,73.2-27.8,96.5s-45.1,34.9-79.7,34.9c-31.5,0-56.2-12.3-74-36.9
	C195.5,197.4,186.6,165.9,186.6,127.4z M222.5,127.4c0,28.7,5.7,52.6,17,71.8s27.3,28.8,47.9,28.8c23.3,0,41.1-8.8,53.3-26.4
	c12.2-17.6,18.3-42.4,18.3-74.2c0-64.4-23.9-96.6-71.7-96.6c-21.2,0-37.3,8.6-48.3,25.9C228,74.1,222.5,97.6,222.5,127.4z"/>
<g class="st1">
	<path class="st2" d="M575.9,254.5l-70.5-115l-33.3,47.3v67.7H438V4.6h34.1v136L565,4.6h38L528.3,113l85.3,141.6h-37.7V254.5z"/>
</g>
<path class="st2" d="M632.8,254.5V4.6h34.1v250h-34.1V254.5z"/>
<rect x="676.3" y="5.2" class="st2" width="87" height="75"/>
<g>
	<path class="st3" d="M730.6,70.8l-6.8-37l-12.6,37.8h-2l-12.9-37.8l-6.7,37H682l10.8-57.6h3.6l13.7,42.1l12.7-42.1h3.5L738,70.8
		H730.6z"/>
	<path class="st3" d="M746.6,70.8V13.2h7.9v57.6C754.5,70.8,746.6,70.8,746.6,70.8z"/>
</g>
<path class="st2" d="M201.4,94.1c10.4,0,14.3,6.6,14.3,28.2c0,22-4.6,29.3-15.1,29.3c-10.3,0-14.4-6-14.4-29.1
	C186.1,101.2,191,94.1,201.4,94.1z M200.8,145c5.8,0,7.8-6.2,7.8-22.5c0-16-1.6-21.7-7.4-21.7c-5.6,0-7.9,6.1-7.9,23.4
	C193.4,139,195.1,145,200.8,145z"/>
<path class="st2" d="M222.5,113.2c3.3-2.1,7.4-3.2,11.7-3.2c7.9,0,13.1,3.5,13.1,16.7c0,21.6-6.5,25-11.9,25c-3,0-5.1-1-6.3-2.2
	v16.7c-1,0.4-2.3,0.6-3.4,0.6c-2.2,0-3.1-0.6-3.1-2.8v-50.8H222.5z M229,143.2c1.1,1.8,2.7,2.6,4.3,2.6c2.5,0,6.7-1.8,6.7-18.4
	c0-9.5-2.1-11.7-6.2-11.7c-1.9,0-3.5,0.6-4.9,1.5L229,143.2L229,143.2z"/>
<path class="st2" d="M277.3,122.9c0,3.5-0.2,7.5-0.9,10.4c-5.5,1-12.9,1.3-16.8,1.3c0.3,8.5,2.6,10.7,7.5,10.7c3.2,0,6.4-1,9.1-2.5
	c0.4,1.2,0.6,3.1,0.6,4.4c0,2.5-5,4.4-11.1,4.4c-7.5,0-12.8-3.1-12.8-18.8c0-20,7.1-22.9,14.2-22.9
	C273.8,110,277.3,114.3,277.3,122.9z M259.7,129.3c3,0.1,8-0.1,10.8-0.9c0.3-1.4,0.4-3.3,0.4-4.8c-0.1-5.8-1.1-7.9-4.6-7.9
	C263.1,115.7,260.2,118.5,259.7,129.3z"/>
<path class="st2" d="M283.8,112.7c3.1-1.4,8.4-2.7,12.7-2.7c8.4,0,11.3,3,11.3,10.7v28.9c0,1.3-0.2,1.3-6.7,1.3v-28.2
	c0-5-0.8-7-4.8-7c-1.7,0-4.2,0.5-5.9,1.4v32.5c0,1.3-0.2,1.3-6.5,1.3v-38.2H283.8z"/>
<path class="st2" d="M328.6,96.1c0-1.4,0-1.4,6.6-1.4V119l12.7-23.8c1.5-0.3,3-0.5,4.2-0.5c2.4,0,3.3,0.6,2.6,1.9L341.8,119
	c6.3,4.8,10.7,15.1,12.8,30.5c0.1,1.2-0.4,1.6-2.6,1.6c-1.4,0-3-0.1-4.6-0.2c-2.3-12.5-4.5-20.5-9-25.4c-1-1-2.2-1.7-3.3-2.2v26.4
	c0,1.3,0,1.3-6.6,1.3V96.1H328.6z"/>
<path class="st2" d="M361.2,112.7c3.1-1.4,8.4-2.7,12.7-2.7c8.4,0,11.3,3,11.3,10.7v28.9c0,1.3-0.2,1.3-6.7,1.3v-28.2
	c0-5-0.8-7-4.8-7c-1.7,0-4.2,0.5-5.9,1.4v32.5c0,1.3-0.2,1.3-6.5,1.3v-38.2H361.2z"/>
<path class="st2" d="M404.3,110c8.4,0,12.4,4.3,12.4,20.6c0,14.9-4.6,21.1-13.1,21.1c-8.3,0-12.6-2.8-12.6-20.8
	C391,116.2,395.9,110,404.3,110z M403.7,146.2c3.4,0,5.9-3,5.9-15.5c0-12.7-1.8-15-5.6-15c-3.5,0-6,2.8-6,15.3
	C398.1,144.2,400.1,146.2,403.7,146.2z"/>
<path class="st2" d="M427,110.8l2.4,13.1c1.7,8.9,2.8,19.5,2.8,19.5h0.5c0.4-2.8,1.3-9.7,2.2-14.7l2.5-15.4c0.2-1.1,0.5-1.4,2.2-1.4
	h4.2l3.1,16.8c1.4,6,2.5,14.6,2.5,14.6h0.4c0.3-4.7,1.4-13.1,2.5-19.5l2.1-11.6c0.2-1.4,0.4-1.4,6.4-1.4c0,0-8.3,40.3-8.7,40.3
	c0,0-1.4,0.2-4.2,0.2c-1.2,0-2.9-1.3-3.4-4.2l-1-5.4c-1.4-6.7-2.4-15-2.9-19.9c-0.6,5-1.6,13.3-2.9,19.9l-1.8,9.3
	c0,0-3.4,0.2-5.5,0.2c-1.4,0-2.2-1.7-2.8-3.9c-2.2-9.8-7.8-35.3-7.8-35.3C419.7,110.8,420.3,110.8,427,110.8z"/>
<path class="st2" d="M473,149.6c0,1.3,0,1.3-6.5,1.3v-56c0-3,1.3-3,6.5-3V149.6z"/>
<path class="st2" d="M504.4,122.9c0,3.5-0.2,7.5-0.9,10.4c-5.5,1-12.9,1.3-16.8,1.3c0.3,8.5,2.6,10.7,7.5,10.7c3.2,0,6.4-1,9.1-2.5
	c0.4,1.2,0.6,3.1,0.6,4.4c0,2.5-5,4.4-11.1,4.4c-7.5,0-12.8-3.1-12.8-18.8c0-20,7.1-22.9,14.2-22.9C501,110,504.4,114.3,504.4,122.9
	z M486.9,129.3c3,0.1,8-0.1,10.8-0.9c0.3-1.4,0.4-3.3,0.4-4.8c-0.1-5.8-1.1-7.9-4.6-7.9C490.2,115.7,487.3,118.5,486.9,129.3z"/>
<path class="st2" d="M528,94.9c0-3,1.2-3,6.5-3v57.3c-2.6,1.3-6.5,2.4-11.5,2.4c-7,0-13.1-2-13.1-19.4c0-15.9,5.5-22.3,12.3-22.3
	c2.5,0,4.3,0.6,5.7,1.6L528,94.9L528,94.9z M528,116.7c-1-0.8-2-1-3.7-1c-3.5,0-7.1,2.7-7.1,15.9c0,12,2.2,14.3,6,14.3
	c1.8,0,3.4-0.3,4.7-1.2L528,116.7L528,116.7z"/>
<path class="st2" d="M559.6,110.7h9.6c0.3,0.6,0.6,1.6,0.6,3.1c0,1.7-0.9,2.5-2.2,2.5c-0.8,0-1.8-0.2-2.9-0.4c1.8,1.8,3,4.7,3,8.7
	c0,8.5-3.7,14-13,14c-1.4,0-2.6-0.1-3.6-0.3c-1,1-2.1,2.5-2.1,3.5c0,1.4,4.1,1.8,9.5,2.5c6.3,1,10.6,3,10.6,9.4
	c0,6.9-4.6,13.1-15.4,13.1c-10.7,0-12.8-4.6-12.8-8.7c0-3.9,2.6-7.3,6.1-9.6c-3-0.9-5-2.3-4.9-4.4c0.1-2.2,2.1-4.7,5.1-7.2
	c-3.8-2.4-5-6.9-5-12c0-10.7,5.5-14.7,13.3-14.7C556.7,110,558.3,110.3,559.6,110.7z M552,149.2c-2.3,1.8-4.3,4.6-4.3,7.2
	c0,2.5,1.2,4.2,6.7,4.2c5.7,0,8.2-3.4,8.2-6.2c0-3.6-2.1-4.6-9.1-5.1C553,149.4,552.5,149.3,552,149.2z M549.2,124.5
	c0,5.7,1,9.1,5.9,9.1c4.2,0,6.1-3.6,6.1-10.6c0-5.9-2-8.2-5.9-8.2C551.9,114.8,549.2,117.5,549.2,124.5z"/>
<path class="st2" d="M598,122.9c0,3.5-0.2,7.5-0.9,10.4c-5.5,1-12.9,1.3-16.8,1.3c0.3,8.5,2.6,10.7,7.5,10.7c3.2,0,6.4-1,9.1-2.5
	c0.4,1.2,0.6,3.1,0.6,4.4c0,2.5-5,4.4-11.1,4.4c-7.5,0-12.8-3.1-12.8-18.8c0-20,7.1-22.9,14.2-22.9C594.6,110,598,114.3,598,122.9z
	 M580.5,129.3c3,0.1,8-0.1,10.8-0.9c0.3-1.4,0.4-3.3,0.4-4.8c-0.1-5.8-1.1-7.9-4.6-7.9C583.8,115.7,581,118.5,580.5,129.3z"/>
<path class="st2" d="M228.3,81.4c2.7-9.3,6.3-17.5,10.8-24.7c11-17.3,27.1-25.9,48.3-25.9c34.6,0,56.6,16.9,66.2,50.6H390
	c-4.5-18.8-12.1-34.8-22.8-47.7c-18.5-22.4-45.1-33.6-79.8-33.6c-30.8,0-55.3,12.2-73.5,36.5c-9.8,13.2-17,28.1-21.5,44.8H228.3z"/>
<path class="st2" d="M353,175.4c-3,10-7,18.7-12.2,26.2c-12.2,17.6-30,26.4-53.3,26.4c-20.6,0-36.5-9.6-47.9-28.8
	c-4.3-7.3-7.7-15.2-10.4-23.8h-36.9c4.4,17.6,11.5,33.1,21.2,46.5c17.8,24.6,42.5,36.9,74,36.9c34.6,0,61.1-11.6,79.7-34.9
	c10.6-13.3,18.1-29.4,22.7-48.4H353V175.4z"/>
<rect x="438" y="4.6" class="st2" width="34.1" height="76.9"/>
<polygon class="st2" points="472.1,223.8 472.1,175.4 438,175.4 438,254.5 595.1,254.5 595.1,223.8 "/>
<path class="st2" d="M46.8,2.8c-5.4,0-21,0.6-46.8,1.8v29h56c43,0.7,64.5,16,64.5,45.7c0,33.3-21.2,50-63.5,50c-0.1,0-0.5,0-1,0l0,0
	H0v125.2h34.1v-96.2c13,1.1,21.4,1.7,25.3,1.7c64.2,0,96.2-28.1,96.2-84.3C155.6,27.1,119.3,2.8,46.8,2.8z"/>
</svg>
