<svg xmlns="http://www.w3.org/2000/svg" viewBox="0 0 352.82 98.84">
  <defs>
    <style>
      .a {
        fill: #fcb93f;
      }
    </style>
  </defs>
  <title>Risorsa 3</title>
  <g>
    <path d="M35.76,40.3c0-.6,0-1.15-.06-1.67a8.89,8.89,0,0,0-.2-1.34,3.82,3.82,0,0,0-1.23-2,4.05,4.05,0,0,0-2.58-.8,7.1,7.1,0,0,0-1.84.26,9.39,9.39,0,0,0-1.87.73,10.59,10.59,0,0,0-1.78,1.15,10.33,10.33,0,0,0-1.53,1.5V57.2H17.88V40.3c0-.6,0-1.15-.06-1.67a7.77,7.77,0,0,0-.2-1.34,3.87,3.87,0,0,0-1.22-2,4,4,0,0,0-2.59-.8,7,7,0,0,0-1.83.26,9.48,9.48,0,0,0-1.88.73,11,11,0,0,0-1.78,1.15,10.33,10.33,0,0,0-1.53,1.5V57.2H0V29.44H5.62l.63,3.87h.11a9.79,9.79,0,0,1,1.52-1.69A10.22,10.22,0,0,1,10,30.15a11.59,11.59,0,0,1,2.55-1,10.74,10.74,0,0,1,2.93-.39A10,10,0,0,1,20.38,30a7.7,7.7,0,0,1,3.34,3.79h.12a13.34,13.34,0,0,1,1.79-2,11.1,11.1,0,0,1,2.19-1.58,11.76,11.76,0,0,1,2.59-1,11.4,11.4,0,0,1,3-.37,9.67,9.67,0,0,1,5,1.25,8.25,8.25,0,0,1,3.11,3.33A7,7,0,0,1,42,34.52,9.13,9.13,0,0,1,42.3,36a17.08,17.08,0,0,1,.19,1.78c0,.65.06,1.39.06,2.23V57.2H35.76Z"/>
    <path d="M50,15.71h7.14v7.37H50Zm.18,13.73H57V57.2H50.17Z"/>
    <path d="M64.86,57.2V15.71h6.79V57.2Z"/>
    <path d="M95.72,54.25h-.11a13.4,13.4,0,0,1-1.38,1.23,12.85,12.85,0,0,1-1.83,1.19,10.93,10.93,0,0,1-2.29.9,10.36,10.36,0,0,1-2.73.35,10.87,10.87,0,0,1-3.69-.62,8.21,8.21,0,0,1-3-1.78,8.32,8.32,0,0,1-1.94-2.8A9.3,9.3,0,0,1,78.1,49a9.43,9.43,0,0,1,.82-4,8.53,8.53,0,0,1,2.27-3,10,10,0,0,1,3.5-1.88,14.87,14.87,0,0,1,4.5-.65,22.67,22.67,0,0,1,3.32.23,25.36,25.36,0,0,1,2.67.55V39.15a5.47,5.47,0,0,0-.33-1.88,4.31,4.31,0,0,0-1.06-1.6,5.31,5.31,0,0,0-1.91-1.12A8.56,8.56,0,0,0,89,34.14a19.35,19.35,0,0,0-4.13.45A33.75,33.75,0,0,0,80.42,36v-5.3a22.31,22.31,0,0,1,4.44-1.4,25.33,25.33,0,0,1,4.93-.52,17.28,17.28,0,0,1,5.31.74,11.32,11.32,0,0,1,3.82,2.05,8.37,8.37,0,0,1,2.29,3.08,9.89,9.89,0,0,1,.76,3.87V49c0,1.83,0,3.41,0,4.73s.08,2.49.12,3.52H96Zm-.54-8.88c-.65-.16-1.4-.29-2.24-.42a18,18,0,0,0-2.55-.18,6.9,6.9,0,0,0-3.94,1,3.43,3.43,0,0,0-1.44,3,3.93,3.93,0,0,0,.32,1.64,3.24,3.24,0,0,0,.89,1.16,3.74,3.74,0,0,0,1.31.69,5.37,5.37,0,0,0,1.57.23,6.86,6.86,0,0,0,2-.27,8.54,8.54,0,0,0,1.69-.69,8.41,8.41,0,0,0,1.39-.93,10.25,10.25,0,0,0,1.05-1Z"/>
    <path d="M115.83,33.31H116a9.4,9.4,0,0,1,1.52-1.69,10,10,0,0,1,2.09-1.47,11.73,11.73,0,0,1,2.59-1,11.36,11.36,0,0,1,3-.39,12.39,12.39,0,0,1,2.94.34,8.65,8.65,0,0,1,2.59,1.08,7.92,7.92,0,0,1,2.08,1.89,9,9,0,0,1,1.42,2.76,8.89,8.89,0,0,1,.38,1.94c.07.69.1,1.5.1,2.42v18h-6.79v-17a17.7,17.7,0,0,0-.08-1.92,5.35,5.35,0,0,0-.32-1.4,3.52,3.52,0,0,0-1.56-1.9,5.2,5.2,0,0,0-2.53-.57,8.24,8.24,0,0,0-3.8.93,9.81,9.81,0,0,0-3.22,2.71V57.2h-6.79V29.44h5.61Z"/>
    <path d="M168.61,43.33a17.37,17.37,0,0,1-1,6,13,13,0,0,1-2.79,4.61,12.4,12.4,0,0,1-4.4,3,15.15,15.15,0,0,1-5.76,1.05,15.53,15.53,0,0,1-5.86-1.05,12.28,12.28,0,0,1-4.39-3,12.8,12.8,0,0,1-2.77-4.61,18.8,18.8,0,0,1,0-11.92,13,13,0,0,1,2.79-4.61,12.25,12.25,0,0,1,4.4-3,15.15,15.15,0,0,1,5.76-1.05,15.44,15.44,0,0,1,5.85,1.05,12.08,12.08,0,0,1,4.4,3,13,13,0,0,1,2.77,4.61A17.7,17.7,0,0,1,168.61,43.33Zm-7,0a13.09,13.09,0,0,0-.52-3.89,8.33,8.33,0,0,0-1.43-2.84,5.85,5.85,0,0,0-2.21-1.72,6.84,6.84,0,0,0-2.8-.57,6.7,6.7,0,0,0-2.77.57,5.86,5.86,0,0,0-2.19,1.72,8.33,8.33,0,0,0-1.43,2.84,13.09,13.09,0,0,0-.52,3.89,13.2,13.2,0,0,0,.52,3.9,8,8,0,0,0,1.44,2.82,6.11,6.11,0,0,0,2.21,1.72,6.61,6.61,0,0,0,2.79.59,6.5,6.5,0,0,0,2.78-.59,6,6,0,0,0,2.18-1.72,8.13,8.13,0,0,0,1.43-2.82A13.2,13.2,0,0,0,161.59,43.33Z"/>
    <path class="a" d="M207.54,37.92a8.9,8.9,0,0,1-.84,3.84,14.61,14.61,0,0,1-2.32,3.41,26.88,26.88,0,0,1-3.51,3.19q-2,1.56-4.42,3.2v.11q4-.22,5.88-.23h7.5V57.2H185.57V53.05q3-2.07,5.73-4.06t4.77-3.81a20.68,20.68,0,0,0,3.25-3.54,5.88,5.88,0,0,0,1.2-3.38,3.49,3.49,0,0,0-.37-1.69,3.21,3.21,0,0,0-1-1.13,4.56,4.56,0,0,0-1.58-.64,8.66,8.66,0,0,0-2-.21,17.92,17.92,0,0,0-4.56.66,29,29,0,0,0-5.16,2V31.44c.62-.32,1.31-.64,2.08-1a26.23,26.23,0,0,1,2.51-.86,27.91,27.91,0,0,1,2.88-.63,20.34,20.34,0,0,1,3.16-.24,15.69,15.69,0,0,1,4.47.6,10.29,10.29,0,0,1,3.5,1.76A8.21,8.21,0,0,1,206.73,34,9.09,9.09,0,0,1,207.54,37.92Z"/>
    <path class="a" d="M239.49,43.33a18.89,18.89,0,0,1-.85,5.79,13.16,13.16,0,0,1-2.5,4.61A11.74,11.74,0,0,1,232,56.8a14,14,0,0,1-5.75,1.12,13.66,13.66,0,0,1-5.67-1.12,12.09,12.09,0,0,1-4.16-3.07,13.27,13.27,0,0,1-2.56-4.61,19.67,19.67,0,0,1,0-11.57,13.45,13.45,0,0,1,2.56-4.63,11.84,11.84,0,0,1,4.16-3.07,13.82,13.82,0,0,1,5.67-1.1,14.14,14.14,0,0,1,5.75,1.1,11.5,11.5,0,0,1,4.14,3.07,13.34,13.34,0,0,1,2.5,4.63A18.78,18.78,0,0,1,239.49,43.33Zm-7,0a11.76,11.76,0,0,0-1.61-6.69,5.76,5.76,0,0,0-9.25,0,11.77,11.77,0,0,0-1.6,6.69q0,4.37,1.6,6.69a5.74,5.74,0,0,0,9.25,0A11.72,11.72,0,0,0,232.47,43.33Z"/>
    <path class="a" d="M250.46,51.61l.06.09a50.78,50.78,0,0,1,5.47-.26h3v-7.1h6.79v7.1h5V57.2h-5V68.29H259V57.2H243.21V52.36l10.46-22.92h6.93Z"/>
    <path class="a" d="M289.54,33.42a15.11,15.11,0,0,1,4.87.76,11.22,11.22,0,0,1,3.93,2.25,10.51,10.51,0,0,1,2.6,3.65,12.39,12.39,0,0,1,.95,5,14.65,14.65,0,0,1-.88,5.19,11.18,11.18,0,0,1-6.66,6.7,15.16,15.16,0,0,1-5.53,1A13.36,13.36,0,0,1,283,56.7a12.05,12.05,0,0,1-4.33-3.48A16.06,16.06,0,0,1,276,47.76a25.66,25.66,0,0,1-.93-7.18A32.05,32.05,0,0,1,276.16,32a22.39,22.39,0,0,1,3.31-7.15,16.6,16.6,0,0,1,5.4-4.89,14.91,14.91,0,0,1,7.42-1.8,18.19,18.19,0,0,1,4.38.49,15.41,15.41,0,0,1,3.13,1v5.84a31.85,31.85,0,0,0-3.48-1.1,14.18,14.18,0,0,0-3.51-.44,9.72,9.72,0,0,0-3.43.61,8.56,8.56,0,0,0-3,2A12.71,12.71,0,0,0,284,30a18.91,18.91,0,0,0-1.55,5h.12A17,17,0,0,1,289.54,33.42ZM289,52.1a6.74,6.74,0,0,0,2.33-.39,4.92,4.92,0,0,0,1.88-1.2,5.49,5.49,0,0,0,1.24-2.08,8.86,8.86,0,0,0,.45-3,8,8,0,0,0-.49-3,4.66,4.66,0,0,0-1.32-1.91,4.73,4.73,0,0,0-1.93-1,9.68,9.68,0,0,0-2.42-.28,15.47,15.47,0,0,0-3.4.38,14.1,14.1,0,0,0-3.25,1.16,22,22,0,0,0,.52,5.16A10.75,10.75,0,0,0,284,49.45a5.8,5.8,0,0,0,2.19,2A6,6,0,0,0,289,52.1Z"/>
    <g>
      <path d="M0,93.47V76.77H1.79v16.7Z"/>
      <path d="M11.78,92.26h0a3.25,3.25,0,0,1-.56.55,4.42,4.42,0,0,1-.77.49,5.16,5.16,0,0,1-1,.34,4.91,4.91,0,0,1-1.11.12,4.56,4.56,0,0,1-1.46-.23,3.16,3.16,0,0,1-1.14-.7A3,3,0,0,1,5,91.72a3.88,3.88,0,0,1-.27-1.49A3.43,3.43,0,0,1,5,88.77a3.08,3.08,0,0,1,.82-1.1A3.66,3.66,0,0,1,7.13,87a5.28,5.28,0,0,1,1.64-.24,7.78,7.78,0,0,1,1.58.15,7.51,7.51,0,0,1,1.29.34h0v-.76a4.74,4.74,0,0,0-.06-.8,2.18,2.18,0,0,0-.19-.61,2.29,2.29,0,0,0-1-.91,3.6,3.6,0,0,0-1.78-.37,7.11,7.11,0,0,0-1.56.16,9.72,9.72,0,0,0-1.46.43v-1.5a4.62,4.62,0,0,1,.65-.26c.25-.08.51-.15.79-.21A7.75,7.75,0,0,1,8,82.27c.3,0,.61,0,.92,0a5.59,5.59,0,0,1,2.72.59,3.52,3.52,0,0,1,1.52,1.56,3.46,3.46,0,0,1,.24.81,6,6,0,0,1,.08,1v7.31H12Zm-.09-3.6c-.33-.09-.72-.18-1.17-.26A8.5,8.5,0,0,0,9,88.26a2.94,2.94,0,0,0-1.78.48,1.78,1.78,0,0,0-.64,1.49,2.21,2.21,0,0,0,.16.89,1.93,1.93,0,0,0,.44.63,1.75,1.75,0,0,0,.67.37,2.76,2.76,0,0,0,.82.12,3.38,3.38,0,0,0,1.07-.17,4.19,4.19,0,0,0,.88-.4,4.35,4.35,0,0,0,.65-.46c.18-.15.32-.27.4-.35Z"/>
      <path d="M26.77,87.81a7.77,7.77,0,0,1-.41,2.65,5.63,5.63,0,0,1-1.1,1.86,4.41,4.41,0,0,1-1.56,1.09,4.9,4.9,0,0,1-1.81.35,3.9,3.9,0,0,1-1.24-.18,4.06,4.06,0,0,1-.91-.42,3.6,3.6,0,0,1-.6-.5,3.16,3.16,0,0,1-.32-.41h0l-.38,1.22H17.06V76.77h1.78v6.77h0a4.12,4.12,0,0,1,1.37-1A4.43,4.43,0,0,1,22,82.22a5.26,5.26,0,0,1,1,.11,4.28,4.28,0,0,1,1.06.36,4.49,4.49,0,0,1,1,.66,4.19,4.19,0,0,1,.85,1,5.24,5.24,0,0,1,.59,1.46A7.72,7.72,0,0,1,26.77,87.81ZM24.9,88a6.23,6.23,0,0,0-.3-2.12,3.41,3.41,0,0,0-.79-1.27,2.78,2.78,0,0,0-1-.63,3.69,3.69,0,0,0-1.08-.17,3.63,3.63,0,0,0-1.57.34,5.2,5.2,0,0,0-1.3.9v5.74a3.56,3.56,0,0,0,.43.48,3.41,3.41,0,0,0,.61.48,3.94,3.94,0,0,0,.8.38,2.84,2.84,0,0,0,1,.16,3,3,0,0,0,1.4-.31,2.87,2.87,0,0,0,1-.88,4.09,4.09,0,0,0,.61-1.37A6.67,6.67,0,0,0,24.9,88Z"/>
      <path d="M39.37,88A7,7,0,0,1,39,90.36a5.25,5.25,0,0,1-1,1.82,4.69,4.69,0,0,1-1.63,1.17,5.49,5.49,0,0,1-2.15.41A5.66,5.66,0,0,1,32,93.35a4.69,4.69,0,0,1-1.63-1.17,5.25,5.25,0,0,1-1-1.82A7.29,7.29,0,0,1,29,88a7.36,7.36,0,0,1,.37-2.37,5.34,5.34,0,0,1,1.05-1.82A4.63,4.63,0,0,1,32,82.64a5.32,5.32,0,0,1,2.15-.42,5.43,5.43,0,0,1,2.18.42A4.54,4.54,0,0,1,38,83.82a5.3,5.3,0,0,1,1,1.82A7.66,7.66,0,0,1,39.37,88ZM37.5,88a6.25,6.25,0,0,0-.24-1.81,4.05,4.05,0,0,0-.7-1.34A2.91,2.91,0,0,0,35.51,84a3.16,3.16,0,0,0-1.34-.28,3.12,3.12,0,0,0-1.34.28,3,3,0,0,0-1.06.83,4.23,4.23,0,0,0-.69,1.34,6.6,6.6,0,0,0,0,3.6,3.91,3.91,0,0,0,.7,1.33,3,3,0,0,0,1.06.83,3.16,3.16,0,0,0,1.34.28A3,3,0,0,0,35.51,92a2.91,2.91,0,0,0,1.05-.83,3.91,3.91,0,0,0,.7-1.33A6.2,6.2,0,0,0,37.5,88Z"/>
      <path d="M48.21,84h-.14a7.33,7.33,0,0,0-1.24.11,5.92,5.92,0,0,0-1.15.35,4.48,4.48,0,0,0-1,.59,3,3,0,0,0-.72.82v7.63H42.2v-11h1.39l.34,1.74h0a4,4,0,0,1,.65-.79,4.7,4.7,0,0,1,.87-.65,4.53,4.53,0,0,1,1.06-.43,4.84,4.84,0,0,1,1.21-.16H48l.21,0Z"/>
      <path d="M56.53,92.26h0a3.25,3.25,0,0,1-.56.55,4.42,4.42,0,0,1-.77.49,5.16,5.16,0,0,1-1,.34,4.84,4.84,0,0,1-1.11.12,4.56,4.56,0,0,1-1.46-.23,3.16,3.16,0,0,1-1.14-.7,3.09,3.09,0,0,1-.74-1.11,3.88,3.88,0,0,1-.27-1.49,3.43,3.43,0,0,1,.3-1.46,3.08,3.08,0,0,1,.82-1.1A3.66,3.66,0,0,1,51.88,87a5.28,5.28,0,0,1,1.64-.24,7.78,7.78,0,0,1,1.58.15,7.51,7.51,0,0,1,1.29.34h0v-.76a4.74,4.74,0,0,0-.06-.8,2.18,2.18,0,0,0-.19-.61,2.29,2.29,0,0,0-1-.91,3.6,3.6,0,0,0-1.78-.37,7.11,7.11,0,0,0-1.56.16,9.72,9.72,0,0,0-1.46.43v-1.5a4.62,4.62,0,0,1,.65-.26c.25-.08.51-.15.79-.21a7.75,7.75,0,0,1,.88-.13c.31,0,.61,0,.92,0a5.59,5.59,0,0,1,2.72.59,3.52,3.52,0,0,1,1.52,1.56,3.46,3.46,0,0,1,.24.81,6,6,0,0,1,.08,1v7.31h-1.5Zm-.09-3.6c-.33-.09-.72-.18-1.17-.26a8.48,8.48,0,0,0-1.49-.14,2.9,2.9,0,0,0-1.78.48,1.76,1.76,0,0,0-.65,1.49,2.4,2.4,0,0,0,.16.89,1.93,1.93,0,0,0,.44.63,1.75,1.75,0,0,0,.67.37,2.76,2.76,0,0,0,.82.12,3.33,3.33,0,0,0,1.07-.17,4.19,4.19,0,0,0,.88-.4,3.89,3.89,0,0,0,.65-.46c.18-.15.32-.27.4-.35Z"/>
      <path d="M67.47,93.5a3.56,3.56,0,0,1-.7.17,7.18,7.18,0,0,1-1.13.09,4.76,4.76,0,0,1-1.5-.21,2.9,2.9,0,0,1-1.06-.61,2.55,2.55,0,0,1-.63-1,3.53,3.53,0,0,1-.2-1.25V84.05H60.13V82.51h2.12v-3H64v3h3.28v1.54H64v6.39a2.23,2.23,0,0,0,.11.7,1.4,1.4,0,0,0,.35.56,1.61,1.61,0,0,0,.61.37,2.54,2.54,0,0,0,.88.14,5.17,5.17,0,0,0,.76-.06,6.24,6.24,0,0,0,.73-.15Z"/>
      <path d="M79.67,88a7,7,0,0,1-.37,2.35,5.41,5.41,0,0,1-1,1.82,4.73,4.73,0,0,1-1.64,1.17,5.44,5.44,0,0,1-2.14.41,5.59,5.59,0,0,1-2.19-.41,4.73,4.73,0,0,1-1.64-1.17,5.23,5.23,0,0,1-1-1.82A7.29,7.29,0,0,1,69.26,88a7.1,7.1,0,0,1,.37-2.37,5.32,5.32,0,0,1,1-1.82,4.63,4.63,0,0,1,1.64-1.18,5.37,5.37,0,0,1,2.16-.42,5.47,5.47,0,0,1,2.18.42,4.63,4.63,0,0,1,1.64,1.18,5.28,5.28,0,0,1,1,1.82A7.37,7.37,0,0,1,79.67,88ZM77.8,88a5.91,5.91,0,0,0-.25-1.81,3.86,3.86,0,0,0-.69-1.34A3,3,0,0,0,75.8,84a3.08,3.08,0,0,0-1.33-.28,3.12,3.12,0,0,0-1.34.28,3,3,0,0,0-1.06.83,4,4,0,0,0-.69,1.34,6.6,6.6,0,0,0,0,3.6,3.74,3.74,0,0,0,.7,1.33,3,3,0,0,0,1.06.83,3.12,3.12,0,0,0,1.34.28,2.95,2.95,0,0,0,2.38-1.11,3.73,3.73,0,0,0,.69-1.33A5.87,5.87,0,0,0,77.8,88Z"/>
      <path d="M88.51,84h-.14a7.45,7.45,0,0,0-1.25.11,5.82,5.82,0,0,0-1.14.35A4.48,4.48,0,0,0,85,85a3,3,0,0,0-.72.82v7.63H82.5v-11h1.38l.35,1.74h0a4.78,4.78,0,0,1,.65-.79,4.46,4.46,0,0,1,.88-.65,4.36,4.36,0,0,1,1.06-.43,4.78,4.78,0,0,1,1.21-.16h.24l.21,0Z"/>
      <path d="M90.48,80V78h1.79v2Zm0,13.51v-11h1.79v11Z"/>
      <path d="M105.67,88a7,7,0,0,1-.37,2.35,5.41,5.41,0,0,1-1,1.82,4.73,4.73,0,0,1-1.64,1.17,5.44,5.44,0,0,1-2.14.41,5.59,5.59,0,0,1-2.19-.41,4.73,4.73,0,0,1-1.64-1.17,5.23,5.23,0,0,1-1-1.82A7.29,7.29,0,0,1,95.26,88a7.1,7.1,0,0,1,.37-2.37,5.32,5.32,0,0,1,1-1.82,4.63,4.63,0,0,1,1.64-1.18,5.32,5.32,0,0,1,2.15-.42,5.48,5.48,0,0,1,2.19.42,4.5,4.5,0,0,1,1.63,1.18,5.14,5.14,0,0,1,1,1.82A7.37,7.37,0,0,1,105.67,88Zm-1.87,0a5.91,5.91,0,0,0-.25-1.81,4,4,0,0,0-.69-1.34A3,3,0,0,0,101.8,84a3.32,3.32,0,0,0-2.67,0,3,3,0,0,0-1.06.83,3.86,3.86,0,0,0-.69,1.34,6.6,6.6,0,0,0,0,3.6,3.74,3.74,0,0,0,.7,1.33,3,3,0,0,0,1.06.83,3.12,3.12,0,0,0,1.34.28,2.95,2.95,0,0,0,2.38-1.11,3.89,3.89,0,0,0,.69-1.33A5.87,5.87,0,0,0,103.8,88Z"/>
      <path d="M122.94,87.87a8.22,8.22,0,0,1-.22,2,6.18,6.18,0,0,1-.6,1.54,4.23,4.23,0,0,1-.87,1.1,4.57,4.57,0,0,1-1,.72,4.69,4.69,0,0,1-1.08.39,5,5,0,0,1-1,.12,4.27,4.27,0,0,1-1.75-.33,3.77,3.77,0,0,1-1.33-1h0v6.38h-1.75V82.51h1.35l.38,1.25h0a2,2,0,0,1,.39-.45,4.68,4.68,0,0,1,.63-.47,4.77,4.77,0,0,1,1-.43,4,4,0,0,1,1.22-.19,5.1,5.1,0,0,1,1.78.32,3.78,3.78,0,0,1,1.52,1,4.93,4.93,0,0,1,1.06,1.75A7.55,7.55,0,0,1,122.94,87.87Zm-1.87,0a6.5,6.5,0,0,0-.2-1.72,3.64,3.64,0,0,0-.61-1.3,2.65,2.65,0,0,0-1-.82,3.09,3.09,0,0,0-1.36-.29,3.22,3.22,0,0,0-1,.15,3.51,3.51,0,0,0-.83.38,3.3,3.3,0,0,0-.64.5,4.29,4.29,0,0,0-.43.47V91a4.39,4.39,0,0,0,1.3.92,3.7,3.7,0,0,0,1.56.33,3.33,3.33,0,0,0,1.08-.19,2.71,2.71,0,0,0,1-.68,3.78,3.78,0,0,0,.79-1.33A6.27,6.27,0,0,0,121.07,87.89Z"/>
      <path d="M131,92.21a8.12,8.12,0,0,0,1.62-.15,10,10,0,0,0,1.46-.41v1.49a6.45,6.45,0,0,1-1.46.46,9.84,9.84,0,0,1-1.86.16,7.92,7.92,0,0,1-2.21-.3,4.54,4.54,0,0,1-1.78-1,4.42,4.42,0,0,1-1.19-1.74,7.21,7.21,0,0,1-.42-2.61,7.32,7.32,0,0,1,.41-2.6,5.58,5.58,0,0,1,1.11-1.84,4.58,4.58,0,0,1,1.59-1.11,5,5,0,0,1,1.87-.37,4.86,4.86,0,0,1,1.72.31,3.49,3.49,0,0,1,1.39,1,4.68,4.68,0,0,1,.92,1.7,7.91,7.91,0,0,1,.35,2.49v.24c0,.06,0,.21,0,.44h-7.57a4.55,4.55,0,0,0,.32,1.79,3.08,3.08,0,0,0,.87,1.18,3.34,3.34,0,0,0,1.28.67A5.84,5.84,0,0,0,131,92.21ZM130,83.76a2.79,2.79,0,0,0-1.15.24,3,3,0,0,0-.93.66,3.41,3.41,0,0,0-.64,1,3.78,3.78,0,0,0-.3,1.2h5.6a4,4,0,0,0-.17-1.21,2.77,2.77,0,0,0-.49-1,2.36,2.36,0,0,0-.81-.66A2.59,2.59,0,0,0,130,83.76Z"/>
      <path d="M143.54,84h-.14a7.33,7.33,0,0,0-1.24.11,5.92,5.92,0,0,0-1.15.35,4.48,4.48,0,0,0-1,.59,3,3,0,0,0-.72.82v7.63h-1.79v-11h1.38l.35,1.74h0a4,4,0,0,1,.65-.79,4.7,4.7,0,0,1,.87-.65,4.53,4.53,0,0,1,1.06-.43,4.84,4.84,0,0,1,1.21-.16h.24l.21,0Z"/>
      <path d="M154.53,93.76a6.08,6.08,0,0,1-1.54-.18,4.16,4.16,0,0,1-1.19-.52,3.5,3.5,0,0,1-.87-.8,3.93,3.93,0,0,1-.57-1,4.27,4.27,0,0,1-.23-.92,8.91,8.91,0,0,1-.07-1.08V82.51h1.79v6.72a4.18,4.18,0,0,0,.24,1.52,2.3,2.3,0,0,0,.9,1.09,3.28,3.28,0,0,0,3.21,0,2.39,2.39,0,0,0,.88-1.18,4.28,4.28,0,0,0,.19-1.39V82.51h1.79v6.74a8.17,8.17,0,0,1-.06,1,4.65,4.65,0,0,1-.2.89,4.22,4.22,0,0,1-.57,1,3.58,3.58,0,0,1-.9.83,4,4,0,0,1-1.23.53A5.82,5.82,0,0,1,154.53,93.76Z"/>
      <path d="M164.14,84h0a5,5,0,0,1,.66-.71,4.2,4.2,0,0,1,1.8-1,4.81,4.81,0,0,1,1.17-.14,4.62,4.62,0,0,1,1.41.21,2.85,2.85,0,0,1,1.14.67,3.27,3.27,0,0,1,.77,1.21,5.1,5.1,0,0,1,.28,1.83v7.33h-1.79v-7a3.05,3.05,0,0,0-.55-2,2,2,0,0,0-1.59-.62,3.45,3.45,0,0,0-1.79.51,4.68,4.68,0,0,0-1.49,1.42v7.78h-1.79v-11h1.38Z"/>
      <path d="M186,78.17a7.42,7.42,0,0,0-.76-.1c-.28,0-.51,0-.71,0a4,4,0,0,0-1.08.15,1.94,1.94,0,0,0-.81.48,2.16,2.16,0,0,0-.49.87,4.12,4.12,0,0,0-.18,1.3v1.68h3.27v1.54h-3.27v9.42h-1.78V84.05h-1.93V82.51h1.93V80.84a5.57,5.57,0,0,1,.31-2,3.79,3.79,0,0,1,.87-1.34,3.54,3.54,0,0,1,1.31-.78,5.27,5.27,0,0,1,1.61-.24c.37,0,.71,0,1,0a4.85,4.85,0,0,1,.68.13Z"/>
      <path d="M191.47,93.76a6.08,6.08,0,0,1-1.54-.18,4.16,4.16,0,0,1-1.19-.52,3.34,3.34,0,0,1-.87-.8,3.93,3.93,0,0,1-.57-1,4.27,4.27,0,0,1-.23-.92,7.26,7.26,0,0,1-.07-1.08V82.51h1.79v6.72a4.18,4.18,0,0,0,.24,1.52,2.3,2.3,0,0,0,.9,1.09,2.79,2.79,0,0,0,1.57.4,2.76,2.76,0,0,0,1.63-.44,2.35,2.35,0,0,0,.89-1.18,4.28,4.28,0,0,0,.19-1.39V82.51H196v6.74a8.17,8.17,0,0,1-.06,1,4.65,4.65,0,0,1-.2.89,4.22,4.22,0,0,1-.57,1,3.75,3.75,0,0,1-.9.83,4,4,0,0,1-1.23.53A5.82,5.82,0,0,1,191.47,93.76Z"/>
      <path d="M205.13,93.5a3.56,3.56,0,0,1-.7.17,7.32,7.32,0,0,1-1.14.09,4.85,4.85,0,0,1-1.5-.21,2.85,2.85,0,0,1-1-.61,2.55,2.55,0,0,1-.63-1,3.52,3.52,0,0,1-.21-1.25V84.05h-2.11V82.51h2.11v-3h1.79v3H205v1.54h-3.28v6.39a2.23,2.23,0,0,0,.11.7,1.3,1.3,0,0,0,.35.56,1.57,1.57,0,0,0,.6.37,2.6,2.6,0,0,0,.89.14,5.17,5.17,0,0,0,.76-.06,6.69,6.69,0,0,0,.73-.15Z"/>
      <path d="M211.9,93.76a6,6,0,0,1-1.53-.18,4.23,4.23,0,0,1-1.2-.52,3.5,3.5,0,0,1-.87-.8,4.21,4.21,0,0,1-.56-1,3.76,3.76,0,0,1-.23-.92,7.26,7.26,0,0,1-.07-1.08V82.51h1.79v6.72a4.18,4.18,0,0,0,.24,1.52,2.22,2.22,0,0,0,.89,1.09,2.83,2.83,0,0,0,1.58.4,2.78,2.78,0,0,0,1.63-.44,2.33,2.33,0,0,0,.88-1.18,4,4,0,0,0,.2-1.39V82.51h1.79v6.74a8.17,8.17,0,0,1-.06,1,4.64,4.64,0,0,1-.21.89,4.22,4.22,0,0,1-.57,1,3.53,3.53,0,0,1-.89.83,4.28,4.28,0,0,1-1.23.53A5.9,5.9,0,0,1,211.9,93.76Z"/>
      <path d="M225.8,84h-.14a7.45,7.45,0,0,0-1.25.11,5.92,5.92,0,0,0-1.15.35,4.41,4.41,0,0,0-1,.59,3.19,3.19,0,0,0-.73.82v7.63h-1.78v-11h1.38l.35,1.74h0a4.33,4.33,0,0,1,.65-.79,4.7,4.7,0,0,1,.87-.65,4.61,4.61,0,0,1,1.07-.43,4.72,4.72,0,0,1,1.21-.16h.23l.22,0Z"/>
      <path d="M237.48,88a7.28,7.28,0,0,1-.37,2.35,5.43,5.43,0,0,1-1.05,1.82,4.69,4.69,0,0,1-1.63,1.17,5.49,5.49,0,0,1-2.15.41,5.57,5.57,0,0,1-2.18-.41,4.64,4.64,0,0,1-1.64-1.17,5.25,5.25,0,0,1-1-1.82,7.58,7.58,0,0,1-.35-2.35,7.1,7.1,0,0,1,.37-2.37,5.16,5.16,0,0,1,1-1.82,4.63,4.63,0,0,1,1.64-1.18,5.32,5.32,0,0,1,2.15-.42,5.4,5.4,0,0,1,2.18.42,4.54,4.54,0,0,1,1.64,1.18,5.14,5.14,0,0,1,1,1.82A7.37,7.37,0,0,1,237.48,88Zm-1.87,0a6.23,6.23,0,0,0-.25-1.81,4.23,4.23,0,0,0-.69-1.34,3,3,0,0,0-1.06-.83,3.12,3.12,0,0,0-1.34-.28,3.16,3.16,0,0,0-1.34.28,2.91,2.91,0,0,0-1.05.83,4.05,4.05,0,0,0-.7,1.34,6.87,6.87,0,0,0,0,3.6,3.91,3.91,0,0,0,.7,1.33,3.21,3.21,0,0,0,3.74.83,3.09,3.09,0,0,0,1-.83,4.07,4.07,0,0,0,.69-1.33A6.19,6.19,0,0,0,235.61,88Z"/>
      <path d="M249.74,82.22a7,7,0,0,1,1.53.17,4.39,4.39,0,0,1,1.24.47v1.49a8.82,8.82,0,0,0-1.34-.42,5.75,5.75,0,0,0-1.24-.14,4.36,4.36,0,0,0-1.33.22,3.21,3.21,0,0,0-1.18.72,3.73,3.73,0,0,0-.83,1.33,5.55,5.55,0,0,0-.32,2,5.37,5.37,0,0,0,.24,1.64,3.62,3.62,0,0,0,.7,1.3,3.16,3.16,0,0,0,1.17.85,4.12,4.12,0,0,0,1.63.31,6.34,6.34,0,0,0,1.35-.15,7.75,7.75,0,0,0,1.32-.41v1.49a3.15,3.15,0,0,1-.51.23,4.15,4.15,0,0,1-.7.2,6.34,6.34,0,0,1-.8.14,6.2,6.2,0,0,1-.86.05,6.49,6.49,0,0,1-2.09-.33,4.66,4.66,0,0,1-1.73-1,4.75,4.75,0,0,1-1.16-1.75,6.65,6.65,0,0,1-.43-2.52,7.81,7.81,0,0,1,.22-1.95,5.83,5.83,0,0,1,.62-1.52,4.63,4.63,0,0,1,.92-1.12,5.15,5.15,0,0,1,1.12-.76,5,5,0,0,1,1.23-.42A5.88,5.88,0,0,1,249.74,82.22Z"/>
      <path d="M265.17,88a7,7,0,0,1-.37,2.35,5.41,5.41,0,0,1-1,1.82,4.73,4.73,0,0,1-1.64,1.17,5.41,5.41,0,0,1-2.14.41,5.59,5.59,0,0,1-2.19-.41,4.73,4.73,0,0,1-1.64-1.17,5.23,5.23,0,0,1-1-1.82,7.29,7.29,0,0,1-.36-2.35,7.1,7.1,0,0,1,.37-2.37,5.34,5.34,0,0,1,1.05-1.82,4.59,4.59,0,0,1,1.63-1.18,5.37,5.37,0,0,1,2.16-.42,5.47,5.47,0,0,1,2.18.42,4.63,4.63,0,0,1,1.64,1.18,5.13,5.13,0,0,1,1,1.82A7.37,7.37,0,0,1,265.17,88Zm-1.87,0a5.91,5.91,0,0,0-.25-1.81,3.86,3.86,0,0,0-.69-1.34A3,3,0,0,0,261.3,84a3.08,3.08,0,0,0-1.33-.28,3.12,3.12,0,0,0-1.34.28,3,3,0,0,0-1.06.83,4.23,4.23,0,0,0-.69,1.34,6.6,6.6,0,0,0,0,3.6,3.91,3.91,0,0,0,.7,1.33,3,3,0,0,0,1.06.83,3.12,3.12,0,0,0,1.34.28,3.08,3.08,0,0,0,1.33-.28,3,3,0,0,0,1.05-.83,3.73,3.73,0,0,0,.69-1.33A5.87,5.87,0,0,0,263.3,88Z"/>
      <path d="M277,93.47h-1.79v-7a4.25,4.25,0,0,0-.15-1.21,2.35,2.35,0,0,0-.45-.83,1.8,1.8,0,0,0-.71-.47,2.59,2.59,0,0,0-.91-.15,3.17,3.17,0,0,0-1.75.51,5.12,5.12,0,0,0-1.4,1.42v7.78H268v-11h1.38l.35,1.53h0a5,5,0,0,1,.66-.71,4,4,0,0,1,1.73-1,4.48,4.48,0,0,1,1.13-.14,3.34,3.34,0,0,1,2,.59,3.76,3.76,0,0,1,1.25,1.61h.05a5.62,5.62,0,0,1,1.66-1.61,4,4,0,0,1,2.19-.59,5,5,0,0,1,1.22.17,3,3,0,0,1,1.19.59,3.37,3.37,0,0,1,.9,1.19,4.65,4.65,0,0,1,.36,2v7.33h-1.79v-7a4.25,4.25,0,0,0-.15-1.21,2.35,2.35,0,0,0-.45-.83,1.88,1.88,0,0,0-.71-.47,2.65,2.65,0,0,0-.92-.15,3.13,3.13,0,0,0-1.74.51A5.18,5.18,0,0,0,277,85.69Z"/>
      <path d="M291.93,93.76a6,6,0,0,1-1.53-.18,4.11,4.11,0,0,1-1.2-.52,3.5,3.5,0,0,1-.87-.8,3.63,3.63,0,0,1-.56-1,4.27,4.27,0,0,1-.24-.92,9,9,0,0,1-.06-1.08V82.51h1.78v6.72a4,4,0,0,0,.25,1.52,2.22,2.22,0,0,0,.89,1.09,2.83,2.83,0,0,0,1.58.4,2.78,2.78,0,0,0,1.63-.44,2.39,2.39,0,0,0,.88-1.18,4.26,4.26,0,0,0,.2-1.39V82.51h1.79v6.74a8.07,8.07,0,0,1-.07,1,4.65,4.65,0,0,1-.2.89,4.22,4.22,0,0,1-.57,1,3.53,3.53,0,0,1-.89.83,4.28,4.28,0,0,1-1.23.53A5.9,5.9,0,0,1,291.93,93.76Z"/>
      <path d="M301.54,84h0a5,5,0,0,1,.66-.71,4,4,0,0,1,.82-.58,3.86,3.86,0,0,1,1-.39,4.81,4.81,0,0,1,1.17-.14,4.62,4.62,0,0,1,1.41.21,2.85,2.85,0,0,1,1.14.67,3.15,3.15,0,0,1,.77,1.21,5.1,5.1,0,0,1,.28,1.83v7.33H307v-7a3.11,3.11,0,0,0-.55-2,2,2,0,0,0-1.6-.62,3.48,3.48,0,0,0-1.79.51,4.78,4.78,0,0,0-1.49,1.42v7.78h-1.79v-11h1.39Z"/>
      <path d="M317.48,92.21a8.12,8.12,0,0,0,1.62-.15,9.63,9.63,0,0,0,1.46-.41v1.49a6.35,6.35,0,0,1-1.45.46,10,10,0,0,1-1.86.16,7.87,7.87,0,0,1-2.21-.3,4.51,4.51,0,0,1-1.79-1,4.4,4.4,0,0,1-1.18-1.74,7,7,0,0,1-.43-2.61,7.31,7.31,0,0,1,.42-2.6,5.4,5.4,0,0,1,1.1-1.84,4.58,4.58,0,0,1,1.59-1.11,5,5,0,0,1,1.88-.37,4.9,4.9,0,0,1,1.72.31,3.45,3.45,0,0,1,1.38,1,4.84,4.84,0,0,1,.93,1.7,7.93,7.93,0,0,1,.34,2.49v.24c0,.06,0,.21,0,.44h-7.57a4.37,4.37,0,0,0,.32,1.79,3.17,3.17,0,0,0,.86,1.18,3.45,3.45,0,0,0,1.29.67A5.77,5.77,0,0,0,317.48,92.21Zm-.94-8.45a2.72,2.72,0,0,0-1.15.24,2.81,2.81,0,0,0-.93.66,3.44,3.44,0,0,0-.65,1,4.07,4.07,0,0,0-.3,1.2h5.61a4.31,4.31,0,0,0-.17-1.21,2.79,2.79,0,0,0-.5-1,2.32,2.32,0,0,0-.8-.66A2.59,2.59,0,0,0,316.54,83.76Z"/>
    </g>
    <polygon class="a" points="344.67 23.12 352.82 27.45 344.43 0 316.98 8.39 325.2 12.77 309.78 66.35 344.67 23.12"/>
  </g>
</svg>
