<?xml version="1.0" encoding="utf-8"?>
<!-- Generator: Adobe Illustrator 22.1.0, SVG Export Plug-In . SVG Version: 6.00 Build 0)  -->
<svg version="1.1" id="Livello_1" xmlns="http://www.w3.org/2000/svg" xmlns:xlink="http://www.w3.org/1999/xlink" x="0px" y="0px"
	 viewBox="0 0 241.6 69.6" style="enable-background:new 0 0 241.6 69.6;" xml:space="preserve">
<style type="text/css">
	.st0{clip-path:url(#SVGID_2_);}
	.st1{fill:none;stroke:#01ACD7;stroke-miterlimit:10;}
</style>
<title>Risorsa 2</title>
<g>
	<defs>
		<rect id="SVGID_1_" width="241.6" height="69.6"/>
	</defs>
	<clipPath id="SVGID_2_">
		<use xlink:href="#SVGID_1_"  style="overflow:visible;"/>
	</clipPath>
	<g class="st0">
		<line class="st1" x1="5.8" y1="-1.7" x2="-66.8" y2="70.9"/>
		<line class="st1" x1="11.5" y1="-1.7" x2="-61.1" y2="70.9"/>
		<line class="st1" x1="17.2" y1="-1.7" x2="-55.3" y2="70.9"/>
		<line class="st1" x1="22.9" y1="-1.7" x2="-49.6" y2="70.9"/>
		<line class="st1" x1="28.7" y1="-1.7" x2="-43.9" y2="70.9"/>
		<line class="st1" x1="34.4" y1="-1.7" x2="-38.2" y2="70.9"/>
		<line class="st1" x1="40.1" y1="-1.7" x2="-32.4" y2="70.9"/>
		<line class="st1" x1="45.8" y1="-1.7" x2="-26.7" y2="70.9"/>
		<line class="st1" x1="51.6" y1="-1.7" x2="-21" y2="70.9"/>
		<line class="st1" x1="57.3" y1="-1.7" x2="-15.3" y2="70.9"/>
		<line class="st1" x1="63" y1="-1.7" x2="-9.5" y2="70.9"/>
		<line class="st1" x1="68.7" y1="-1.7" x2="-3.8" y2="70.9"/>
		<line class="st1" x1="74.5" y1="-1.7" x2="1.9" y2="70.9"/>
		<line class="st1" x1="80.2" y1="-1.7" x2="7.6" y2="70.9"/>
		<line class="st1" x1="85.9" y1="-1.7" x2="13.4" y2="70.9"/>
		<line class="st1" x1="91.7" y1="-1.7" x2="19.1" y2="70.9"/>
		<line class="st1" x1="97.4" y1="-1.7" x2="24.8" y2="70.9"/>
		<line class="st1" x1="103.1" y1="-1.7" x2="30.5" y2="70.9"/>
		<line class="st1" x1="108.8" y1="-1.7" x2="36.3" y2="70.9"/>
		<line class="st1" x1="114.6" y1="-1.7" x2="42" y2="70.9"/>
		<line class="st1" x1="120.3" y1="-1.7" x2="47.7" y2="70.9"/>
		<line class="st1" x1="126" y1="-1.7" x2="53.4" y2="70.9"/>
		<line class="st1" x1="131.7" y1="-1.7" x2="59.2" y2="70.9"/>
		<line class="st1" x1="137.5" y1="-1.7" x2="64.9" y2="70.9"/>
		<line class="st1" x1="143.2" y1="-1.7" x2="70.6" y2="70.9"/>
		<line class="st1" x1="148.9" y1="-1.7" x2="76.3" y2="70.9"/>
		<line class="st1" x1="154.6" y1="-1.7" x2="82.1" y2="70.9"/>
		<line class="st1" x1="160.4" y1="-1.7" x2="87.8" y2="70.9"/>
		<line class="st1" x1="166.1" y1="-1.7" x2="93.5" y2="70.9"/>
		<line class="st1" x1="171.8" y1="-1.7" x2="99.3" y2="70.9"/>
		<line class="st1" x1="177.5" y1="-1.7" x2="105" y2="70.9"/>
		<line class="st1" x1="183.3" y1="-1.7" x2="110.7" y2="70.9"/>
		<line class="st1" x1="189" y1="-1.7" x2="116.4" y2="70.9"/>
		<line class="st1" x1="194.7" y1="-1.7" x2="122.2" y2="70.9"/>
		<line class="st1" x1="200.5" y1="-1.7" x2="127.9" y2="70.9"/>
		<line class="st1" x1="206.2" y1="-1.7" x2="133.6" y2="70.9"/>
		<line class="st1" x1="211.9" y1="-1.7" x2="139.3" y2="70.9"/>
		<line class="st1" x1="217.6" y1="-1.7" x2="145.1" y2="70.9"/>
		<line class="st1" x1="223.4" y1="-1.7" x2="150.8" y2="70.9"/>
		<line class="st1" x1="229.1" y1="-1.7" x2="156.5" y2="70.9"/>
		<line class="st1" x1="234.8" y1="-1.7" x2="162.2" y2="70.9"/>
		<line class="st1" x1="240.5" y1="-1.7" x2="168" y2="70.9"/>
		<line class="st1" x1="246.3" y1="-1.7" x2="173.7" y2="70.9"/>
		<line class="st1" x1="252" y1="-1.7" x2="179.4" y2="70.9"/>
		<line class="st1" x1="257.7" y1="-1.7" x2="185.1" y2="70.9"/>
		<line class="st1" x1="263.4" y1="-1.7" x2="190.9" y2="70.9"/>
		<line class="st1" x1="269.2" y1="-1.7" x2="196.6" y2="70.9"/>
		<line class="st1" x1="274.9" y1="-1.7" x2="202.3" y2="70.9"/>
		<line class="st1" x1="280.6" y1="-1.7" x2="208.1" y2="70.9"/>
		<line class="st1" x1="286.3" y1="-1.7" x2="213.8" y2="70.9"/>
		<line class="st1" x1="292.1" y1="-1.7" x2="219.5" y2="70.9"/>
		<line class="st1" x1="297.8" y1="-1.7" x2="225.2" y2="70.9"/>
		<line class="st1" x1="303.5" y1="-1.7" x2="231" y2="70.9"/>
		<line class="st1" x1="309.2" y1="-1.7" x2="236.7" y2="70.9"/>
	</g>
</g>
</svg>
