<?xml version="1.0" encoding="utf-8"?>
<!-- Generator: Adobe Illustrator 22.1.0, SVG Export Plug-In . SVG Version: 6.00 Build 0)  -->
<svg version="1.1" id="Livello_1" xmlns="http://www.w3.org/2000/svg" xmlns:xlink="http://www.w3.org/1999/xlink" x="0px" y="0px"
	 viewBox="0 0 308.4 13" style="enable-background:new 0 0 308.4 13;" xml:space="preserve">
<style type="text/css">
	.st0{clip-path:url(#SVGID_2_);}
	.st1{fill:none;stroke:#01ACD7;stroke-miterlimit:10;}
</style>
<title>Risorsa 7</title>
<g>
	<defs>
		<rect id="SVGID_1_" width="308.4" height="13"/>
	</defs>
	<clipPath id="SVGID_2_">
		<use xlink:href="#SVGID_1_"  style="overflow:visible;"/>
	</clipPath>
	<g class="st0">
		<line class="st1" x1="-10.4" y1="14.3" x2="4.5" y2="-0.6"/>
		<line class="st1" x1="-4.6" y1="14.3" x2="10.3" y2="-0.6"/>
		<line class="st1" x1="1.1" y1="14.3" x2="16" y2="-0.6"/>
		<line class="st1" x1="6.8" y1="14.3" x2="21.7" y2="-0.6"/>
		<line class="st1" x1="12.5" y1="14.3" x2="27.4" y2="-0.6"/>
		<line class="st1" x1="18.3" y1="14.3" x2="33.2" y2="-0.6"/>
		<line class="st1" x1="24" y1="14.3" x2="38.9" y2="-0.6"/>
		<line class="st1" x1="29.7" y1="14.3" x2="44.6" y2="-0.6"/>
		<line class="st1" x1="35.4" y1="14.3" x2="50.3" y2="-0.6"/>
		<line class="st1" x1="41.2" y1="14.3" x2="56.1" y2="-0.6"/>
		<line class="st1" x1="46.9" y1="14.3" x2="61.8" y2="-0.6"/>
		<line class="st1" x1="52.6" y1="14.3" x2="67.5" y2="-0.6"/>
		<line class="st1" x1="58.3" y1="14.3" x2="73.3" y2="-0.6"/>
		<line class="st1" x1="64.1" y1="14.3" x2="79" y2="-0.6"/>
		<line class="st1" x1="69.8" y1="14.3" x2="84.7" y2="-0.6"/>
		<line class="st1" x1="75.5" y1="14.3" x2="90.4" y2="-0.6"/>
		<line class="st1" x1="81.3" y1="14.3" x2="96.2" y2="-0.6"/>
		<line class="st1" x1="87" y1="14.3" x2="101.9" y2="-0.6"/>
		<line class="st1" x1="92.7" y1="14.3" x2="107.6" y2="-0.6"/>
		<line class="st1" x1="98.4" y1="14.3" x2="113.3" y2="-0.6"/>
		<line class="st1" x1="104.2" y1="14.3" x2="119.1" y2="-0.6"/>
		<line class="st1" x1="109.9" y1="14.3" x2="124.8" y2="-0.6"/>
		<line class="st1" x1="115.6" y1="14.3" x2="130.5" y2="-0.6"/>
		<line class="st1" x1="121.3" y1="14.3" x2="136.2" y2="-0.6"/>
		<line class="st1" x1="127.1" y1="14.3" x2="142" y2="-0.6"/>
		<line class="st1" x1="132.8" y1="14.3" x2="147.7" y2="-0.6"/>
		<line class="st1" x1="138.5" y1="14.3" x2="153.4" y2="-0.6"/>
		<line class="st1" x1="144.2" y1="14.3" x2="159.1" y2="-0.6"/>
		<line class="st1" x1="150" y1="14.3" x2="164.9" y2="-0.6"/>
		<line class="st1" x1="155.7" y1="14.3" x2="170.6" y2="-0.6"/>
		<line class="st1" x1="161.4" y1="14.3" x2="176.3" y2="-0.6"/>
		<line class="st1" x1="167.1" y1="14.3" x2="182.1" y2="-0.6"/>
		<line class="st1" x1="172.9" y1="14.3" x2="187.8" y2="-0.6"/>
		<line class="st1" x1="178.6" y1="14.3" x2="193.5" y2="-0.6"/>
		<line class="st1" x1="184.3" y1="14.3" x2="199.2" y2="-0.6"/>
		<line class="st1" x1="190" y1="14.3" x2="204.9" y2="-0.6"/>
		<line class="st1" x1="195.8" y1="14.3" x2="210.7" y2="-0.6"/>
		<line class="st1" x1="201.5" y1="14.3" x2="216.4" y2="-0.6"/>
		<line class="st1" x1="207.2" y1="14.3" x2="222.1" y2="-0.6"/>
		<line class="st1" x1="212.9" y1="14.3" x2="227.9" y2="-0.6"/>
		<line class="st1" x1="218.7" y1="14.3" x2="233.6" y2="-0.6"/>
		<line class="st1" x1="224.4" y1="14.3" x2="239.3" y2="-0.6"/>
		<line class="st1" x1="230.1" y1="14.3" x2="245" y2="-0.6"/>
		<line class="st1" x1="235.9" y1="14.3" x2="250.8" y2="-0.6"/>
		<line class="st1" x1="241.6" y1="14.3" x2="256.5" y2="-0.6"/>
		<line class="st1" x1="247.3" y1="14.3" x2="262.2" y2="-0.6"/>
		<line class="st1" x1="253" y1="14.3" x2="267.9" y2="-0.6"/>
		<line class="st1" x1="258.8" y1="14.3" x2="273.7" y2="-0.6"/>
		<line class="st1" x1="264.5" y1="14.3" x2="279.4" y2="-0.6"/>
		<line class="st1" x1="270.2" y1="14.3" x2="285.1" y2="-0.6"/>
		<line class="st1" x1="275.9" y1="14.3" x2="290.8" y2="-0.6"/>
		<line class="st1" x1="281.7" y1="14.3" x2="296.6" y2="-0.6"/>
		<line class="st1" x1="287.4" y1="14.3" x2="302.3" y2="-0.6"/>
		<line class="st1" x1="293.1" y1="14.3" x2="308" y2="-0.6"/>
	</g>
</g>
</svg>
