<?xml version="1.0" encoding="utf-8"?>
<!-- Generator: Adobe Illustrator 22.1.0, SVG Export Plug-In . SVG Version: 6.00 Build 0)  -->
<svg version="1.1" id="Livello_1" xmlns="http://www.w3.org/2000/svg" xmlns:xlink="http://www.w3.org/1999/xlink" x="0px" y="0px"
	 viewBox="0 0 124.5 91.6" style="enable-background:new 0 0 124.5 91.6;" xml:space="preserve">
<style type="text/css">
	.st0{fill:#7390A6;}
	.st1{fill:#C3D0DD;}
	.st2{fill:#FFFFFF;}
	.st3{fill:#97BDDD;}
</style>
<g>
	<g>
		<g>
			<path class="st0" d="M88.9,29.7C88,44.4,75.4,55.6,60.7,54.7c-14.7-0.9-25.9-13.5-25.1-28.3C36.5,11.8,49.1,0.5,63.9,1.4
				C78.4,2.3,89.5,14.7,89,29.2"/>
		</g>
	</g>
	<g>
		<path d="M62.2,53.4l0.5,0l0,2.5l-0.5,0L62.2,53.4L62.2,53.4z M60.9,55.8l0.1-2.5l0.5,0l-0.1,2.5L60.9,55.8L60.9,55.8z M63.3,53.4
			l0.5,0l0.1,2.5l-0.5,0L63.3,53.4L63.3,53.4z M59.6,55.8l0.2-2.5l0.5,0l-0.2,2.5L59.6,55.8L59.6,55.8z M64.5,53.3l0.5,0l0.2,2.5
			l-0.5,0L64.5,53.3L64.5,53.3z M58.3,55.6l0.3-2.5l0.5,0.1l-0.3,2.5L58.3,55.6L58.3,55.6z M65.7,53.2l0.5-0.1l0.4,2.4l-0.5,0.1
			L65.7,53.2L65.7,53.2z M57,55.4l0.4-2.4l0.5,0.1l-0.4,2.4L57,55.4L57,55.4z M66.9,53l0.5-0.1l0.5,2.4l-0.5,0.1L66.9,53L66.9,53z
			 M55.7,55.1l0.5-2.4l0.5,0.1l-0.5,2.4L55.7,55.1L55.7,55.1z M68,52.7l0.4-0.1l0.6,2.4l-0.5,0.1L68,52.7L68,52.7z M54.5,54.8
			l0.7-2.4l0.4,0.1l-0.7,2.4L54.5,54.8L54.5,54.8z M69.2,52.4l0.4-0.1l0.7,2.4l-0.4,0.1L69.2,52.4L69.2,52.4z M53.2,54.4l0.8-2.4
			l0.4,0.1l-0.8,2.4L53.2,54.4L53.2,54.4z M70.3,52.1l0.4-0.2l0.8,2.3l-0.4,0.2L70.3,52.1L70.3,52.1z M52,54l0.9-2.3l0.4,0.2
			l-0.9,2.3L52,54L52,54z M71.4,51.6l0.4-0.2l0.9,2.3l-0.4,0.2L71.4,51.6L71.4,51.6z M50.8,53.5l1-2.3l0.4,0.2l-1,2.3L50.8,53.5
			L50.8,53.5z M72.5,51.2L73,51l1,2.2l-0.4,0.2L72.5,51.2L72.5,51.2z M49.6,52.9l1.1-2.2l0.4,0.2L50,53.1L49.6,52.9L49.6,52.9z
			 M73.6,50.7l0.4-0.2l1.1,2.2l-0.4,0.2L73.6,50.7L73.6,50.7z M48.5,52.3l1.2-2.2l0.4,0.2l-1.2,2.2L48.5,52.3L48.5,52.3z M74.6,50.1
			l0.4-0.2l1.2,2.1l-0.4,0.2L74.6,50.1L74.6,50.1z M47.3,51.7l1.3-2.1l0.4,0.2l-1.3,2.1L47.3,51.7L47.3,51.7z M75.7,49.5l0.4-0.3
			l1.3,2.1L77,51.6L75.7,49.5L75.7,49.5z M46.3,50.9l1.4-2l0.4,0.3l-1.4,2L46.3,50.9L46.3,50.9z M76.7,48.8l0.4-0.3l1.4,2l-0.4,0.3
			L76.7,48.8L76.7,48.8z M45.2,50.2l1.5-2l0.4,0.3l-1.5,2L45.2,50.2L45.2,50.2z M77.6,48.1l0.4-0.3l1.5,2l-0.4,0.3L77.6,48.1
			L77.6,48.1z M44.2,49.4l1.6-1.9l0.4,0.3l-1.6,1.9L44.2,49.4L44.2,49.4z M78.5,47.4l0.4-0.3l1.6,1.9l-0.4,0.3L78.5,47.4L78.5,47.4z
			 M43.2,48.5l1.7-1.8l0.3,0.3l-1.7,1.8L43.2,48.5L43.2,48.5z M79.4,46.6l0.3-0.3l1.7,1.8l-0.3,0.3L79.4,46.6L79.4,46.6z M42.3,47.6
			l1.7-1.8l0.3,0.3l-1.7,1.8L42.3,47.6L42.3,47.6z M80.3,45.8l0.3-0.3l1.8,1.7l-0.3,0.3L80.3,45.8L80.3,45.8z M41.4,46.7l1.8-1.7
			l0.3,0.3L41.7,47L41.4,46.7L41.4,46.7z M81.1,44.9l0.3-0.3l1.9,1.6L83,46.6L81.1,44.9L81.1,44.9z M40.5,45.7l1.9-1.6l0.3,0.4
			L40.8,46L40.5,45.7L40.5,45.7z M81.9,44l0.3-0.4l1.9,1.5l-0.3,0.4L81.9,44L81.9,44z M39.7,44.6l2-1.5l0.3,0.4L40,45L39.7,44.6
			L39.7,44.6z M82.6,43.1l0.3-0.4l2,1.4l-0.3,0.4L82.6,43.1L82.6,43.1z M39,43.6l2-1.4l0.3,0.4l-2,1.4L39,43.6L39,43.6z M83.3,42.1
			l0.3-0.4l2.1,1.4l-0.3,0.4L83.3,42.1L83.3,42.1z M38.3,42.5l2.1-1.3l0.2,0.4l-2.1,1.3L38.3,42.5L38.3,42.5z M83.9,41.1l0.2-0.4
			l2.1,1.3L86,42.4L83.9,41.1L83.9,41.1z M37.6,41.4l2.2-1.2l0.2,0.4l-2.2,1.2L37.6,41.4L37.6,41.4z M84.5,40.1l0.2-0.4l2.2,1.2
			l-0.2,0.4L84.5,40.1L84.5,40.1z M37,40.2l2.2-1.1l0.2,0.4l-2.2,1.1L37,40.2L37,40.2z M85.1,39l0.2-0.4l2.2,1.1l-0.2,0.4L85.1,39
			L85.1,39z M36.5,39l2.3-1l0.2,0.4l-2.3,1L36.5,39L36.5,39z M85.5,38l0.2-0.4l2.3,0.9l-0.2,0.4L85.5,38L85.5,38z M36,37.8l2.3-0.9
			l0.2,0.4l-2.3,0.9L36,37.8L36,37.8z M86,36.9l0.2-0.4l2.3,0.8l-0.2,0.4L86,36.9L86,36.9z M35.5,36.6l2.3-0.8l0.1,0.4L35.7,37
			L35.5,36.6L35.5,36.6z M86.4,35.7l0.1-0.4l2.4,0.7l-0.1,0.4L86.4,35.7L86.4,35.7z M35.2,35.3l2.4-0.7l0.1,0.4l-2.4,0.7L35.2,35.3
			L35.2,35.3z M86.7,34.6l0.1-0.4l2.4,0.6l-0.1,0.4L86.7,34.6L86.7,34.6z M34.9,34.1l2.4-0.5l0.1,0.5L35,34.5L34.9,34.1L34.9,34.1z
			 M87,33.4l0.1-0.5l2.4,0.5l-0.1,0.5L87,33.4L87,33.4z M34.6,32.8l2.4-0.5l0.1,0.5l-2.4,0.5L34.6,32.8L34.6,32.8z M87.2,32.3
			l0.1-0.5l2.4,0.4l-0.1,0.5L87.2,32.3L87.2,32.3z M34.4,31.5l2.4-0.3l0.1,0.5L34.5,32L34.4,31.5L34.4,31.5z M87.4,31.1l0.1-0.5
			l2.5,0.3l-0.1,0.5L87.4,31.1L87.4,31.1z M34.3,30.2l2.5-0.2l0,0.5l-2.5,0.2L34.3,30.2L34.3,30.2z M87.5,29.9l0-0.5l2.5,0.2l0,0.5
			L87.5,29.9L87.5,29.9z M34.2,28.9l2.5-0.1l0,0.5l-2.5,0.1L34.2,28.9L34.2,28.9z M87.6,29l0-0.5l2.5,0.1l0,0.5L87.6,29L87.6,29z
			 M34.2,28.1l0-0.5l2.5,0v0.5L34.2,28.1L34.2,28.1z M87.6,27.3l2.5,0l0,0.5l-2.5,0L87.6,27.3L87.6,27.3z M34.2,26.8l0-0.5l2.5,0.1
			l0,0.5L34.2,26.8L34.2,26.8z M87.5,26.1L90,26l0,0.5l-2.5,0.2L87.5,26.1L87.5,26.1z M34.3,25.5l0-0.5l2.5,0.2l0,0.5L34.3,25.5
			L34.3,25.5z M87.4,24.9l2.5-0.3l0,0.5l-2.5,0.3L87.4,24.9L87.4,24.9z M34.4,24.2l0.1-0.5l2.4,0.4l-0.1,0.5L34.4,24.2L34.4,24.2z
			 M87.3,23.8l2.4-0.4l0.1,0.5l-2.4,0.4L87.3,23.8L87.3,23.8z M34.6,22.9l0.1-0.5l2.4,0.5l-0.1,0.5L34.6,22.9L34.6,22.9z M87,22.6
			l2.4-0.5l0.1,0.5l-2.4,0.5L87,22.6L87,22.6z M34.9,21.6l0.1-0.5l2.4,0.6l-0.1,0.5L34.9,21.6L34.9,21.6z M86.8,21.5l2.4-0.6
			l0.1,0.4l-2.4,0.6L86.8,21.5L86.8,21.5z M35.2,20.4l0.1-0.4l2.4,0.7L37.6,21L35.2,20.4L35.2,20.4z M86.4,20.3l2.4-0.7l0.1,0.4
			l-2.4,0.7L86.4,20.3L86.4,20.3z M35.6,19.1l0.2-0.4l2.3,0.8l-0.2,0.4L35.6,19.1L35.6,19.1z M86.1,19.2l2.3-0.8l0.2,0.4l-2.3,0.8
			L86.1,19.2L86.1,19.2z M36,17.9l0.2-0.4l2.3,0.9l-0.2,0.4L36,17.9L36,17.9z M85.6,18.1l2.3-0.9l0.2,0.4l-2.3,0.9L85.6,18.1
			L85.6,18.1z M36.5,16.7l0.2-0.4l2.2,1l-0.2,0.4L36.5,16.7L36.5,16.7z M85.1,17l2.2-1l0.2,0.4l-2.2,1L85.1,17L85.1,17z M37.1,15.5
			l0.2-0.4l2.2,1.1l-0.2,0.4L37.1,15.5L37.1,15.5z M84.6,15.9l2.2-1.1l0.2,0.4l-2.2,1.1L84.6,15.9L84.6,15.9z M37.7,14.3l0.2-0.4
			l2.2,1.2l-0.2,0.4L37.7,14.3L37.7,14.3z M84,14.9l2.1-1.2l0.2,0.4l-2.1,1.2L84,14.9L84,14.9z M38.4,13.2l0.2-0.4l2.1,1.3l-0.2,0.4
			L38.4,13.2L38.4,13.2z M83.4,13.9l2.1-1.3l0.3,0.4l-2.1,1.3L83.4,13.9L83.4,13.9z M39.1,12.1l0.3-0.4l2,1.4l-0.3,0.4L39.1,12.1
			L39.1,12.1z M82.7,12.9l2-1.4l0.3,0.4l-2,1.4L82.7,12.9L82.7,12.9z M39.8,11.1l0.3-0.4l2,1.5l-0.3,0.4L39.8,11.1L39.8,11.1z
			 M82,12l1.9-1.5l0.3,0.4l-1.9,1.5L82,12L82,12z M40.7,10.1L41,9.7l1.9,1.6l-0.3,0.4L40.7,10.1L40.7,10.1z M81.2,11.1l1.9-1.6
			l0.3,0.3l-1.9,1.6L81.2,11.1L81.2,11.1z M41.5,9.1l0.3-0.3l1.8,1.7l-0.3,0.3L41.5,9.1L41.5,9.1z M80.4,10.2l1.8-1.7l0.3,0.3
			l-1.8,1.7L80.4,10.2L80.4,10.2z M42.4,8.1l0.3-0.3l1.7,1.8l-0.3,0.3L42.4,8.1L42.4,8.1z M79.6,9.4l1.7-1.8l0.3,0.3l-1.7,1.8
			L79.6,9.4L79.6,9.4z M43.4,7.2l0.3-0.3l1.7,1.8L45,9.1L43.4,7.2L43.4,7.2z M78.7,8.6l1.6-1.9L80.7,7L79,8.9L78.7,8.6L78.7,8.6z
			 M44.3,6.4l0.4-0.3L46.3,8l-0.4,0.3L44.3,6.4L44.3,6.4z M77.8,7.8l1.5-1.9l0.4,0.3l-1.5,1.9L77.8,7.8L77.8,7.8z M45.4,5.6l0.4-0.3
			l1.5,2l-0.4,0.3L45.4,5.6L45.4,5.6z M76.8,7.1l1.5-2l0.4,0.3l-1.5,2L76.8,7.1L76.8,7.1z M46.4,4.8l0.4-0.3l1.4,2.1l-0.4,0.3
			L46.4,4.8L46.4,4.8z M75.8,6.5l1.4-2.1l0.4,0.3l-1.4,2.1L75.8,6.5L75.8,6.5z M47.5,4.1l0.4-0.2L49.2,6l-0.4,0.2L47.5,4.1L47.5,4.1
			z M74.8,5.8l1.3-2.1L76.5,4l-1.3,2.1L74.8,5.8L74.8,5.8z M48.6,3.5l0.4-0.2l1.2,2.2l-0.4,0.2L48.6,3.5L48.6,3.5z M73.8,5.3
			l1.2-2.2l0.4,0.2l-1.2,2.2L73.8,5.3L73.8,5.3z M49.8,2.9l0.4-0.2l1.1,2.2l-0.4,0.2L49.8,2.9L49.8,2.9z M72.7,4.8l1-2.2l0.4,0.2
			l-1,2.2L72.7,4.8L72.7,4.8z M51,2.3l0.4-0.2l1,2.3L52,4.6L51,2.3L51,2.3z M71.6,4.3L72.5,2L73,2.2L72,4.5L71.6,4.3L71.6,4.3z
			 M52.2,1.8l0.4-0.2L53.5,4L53,4.1L52.2,1.8L52.2,1.8z M70.5,3.9l0.8-2.3l0.4,0.2L70.9,4L70.5,3.9L70.5,3.9z M53.4,1.4l0.4-0.1
			l0.8,2.4l-0.4,0.1L53.4,1.4L53.4,1.4z M69.4,3.5l0.7-2.4l0.4,0.1l-0.7,2.4L69.4,3.5L69.4,3.5z M54.7,1l0.4-0.1l0.6,2.4l-0.4,0.1
			L54.7,1L54.7,1z M68.2,3.2l0.6-2.4l0.4,0.1l-0.6,2.4L68.2,3.2L68.2,3.2z M55.9,0.7l0.5-0.1L56.9,3l-0.5,0.1L55.9,0.7L55.9,0.7z
			 M67.1,3l0.5-2.4L68,0.6L67.5,3L67.1,3L67.1,3z M57.2,0.4l0.5-0.1l0.4,2.4l-0.5,0.1L57.2,0.4L57.2,0.4z M65.9,2.8l0.4-2.4l0.5,0.1
			l-0.4,2.4L65.9,2.8L65.9,2.8z M58.5,0.2l0.5-0.1l0.3,2.5l-0.5,0.1L58.5,0.2L58.5,0.2z M64.7,2.6L65,0.1l0.5,0.1l-0.3,2.5L64.7,2.6
			L64.7,2.6z M59.8,0.1l0.5,0l0.2,2.5l-0.5,0L59.8,0.1L59.8,0.1z M63.5,2.5L63.7,0l0.5,0L64,2.5L63.5,2.5L63.5,2.5z M61.1,0l0.5,0
			l0.1,2.5l-0.5,0L61.1,0L61.1,0z M62.3,2.5l0-2.5l0.5,0l0,2.5L62.3,2.5L62.3,2.5z"/>
	</g>
	<g>
		<g>
			<path class="st1" d="M57.8,28.9c0,0,0.3,0.1,0.3,0.1l0.6,0.9c0,0,1,0.6,1.2,0.5c0.2-0.1,0.3-0.4,0.4-0.4c0.1,0,0.3-0.2,0.4-0.2
				c0.1,0,0.3-0.3,0.3-0.3s0.5,0.1,0.5-0.2c0-0.3,0-0.9,0-0.9s0.4-0.2,0.4-0.7c0.1,0,0.7-0.1,0.7-0.1c0.5-0.2,0.4-0.7,0.3-1
				c-0.1-0.3-0.7-0.6-0.7-0.6c0.3-0.4,0-0.6,0-0.6c-0.1-0.3-0.4-0.4-0.6-0.4l-0.3,0l-1.2-0.7L58.1,24l-1.9,2.6l-0.7-0.3v-1.7
				l0.8-2.3l0.9-0.9l0.9,0.7l2.9,0.1c0,0,1.1,0.1,1.2-0.1c0.3-0.4,0.6-1,0.6-1l0,0.1c0.1,0.1,0.2,0.1,0.2,0.1s0.3,0,0.3,0.1
				c0,0,0.1-0.2,0.4-0.4c0.4-0.3,0.1-0.5,0.2-0.8c0.1-0.3-0.2-0.5-0.2-0.5l2.3,0.7l0,0C66,20.6,66,20.9,65.9,21
				c-0.2,0.1,0.1,0.5,0,0.8C65.8,22,66,22.1,66,22.1l0.1,0c0,0.3,0,0.6,0,0.9c0,0,0.1,0.5,0.4,0.9h0l-0.1,0c0,0-0.1,0.4-0.3,0.5
				c-0.1,0.1-0.8,1-0.7,1.5c0.1,0.6,0.4,1.6,0.4,1.6l0.3,0l0,0.1c0,0-0.2,0.7-0.4,0.8c-0.1,0.1-0.5,0.4-0.9,1.5l0,0
				c0,0-0.4-0.4-1,0.1c-0.4,0.4-0.5,0.4-0.5,0.4c0,0,0,0,0,0l0,0l0,0c0,0,0,0,0,0c-0.4,0.5-0.4,0.5-0.4,0.6c0,0.1-0.2,0.9-0.2,1
				c0,0.1,0,0.3-0.1,0.4c-0.1,0-0.4,0.3-0.4,0.2c0-0.1-0.3-0.4-0.4-0.5c-0.1,0-0.3,0-0.2,0.1c0.1,0.2-0.5,0.1-0.1,0.4l0.4,0.3
				c0,0,0.4,0.3,0.6,0.4c0.2,0.1,0.6,0,0.8-0.3l0.1,0c0,0.2-0.1,0.4-0.1,0.5c-0.1,0.1-0.2,0.6-0.2,0.7c0,0,0.2,0.5,0.4,0.1l0.3-0.3
				l0.3-0.4l0,0c-0.2,0.7-0.4,1.4-0.5,1.6c-0.3,0.6-0.6,1-0.6,1.4c0,0.3-0.1,0.7,0.1,1h0l0,0c-0.8-0.5-1.3,0.2-2.1,0.5
				c-0.8,0.3-1.7,0.3-1.7,0.3l0-0.1c-0.7-0.1-1.6-1.1-1.6-1.1L56.1,36c0.4-1.9,1.3-2,1.3-2l0,0c0.4-1,0.7-2.8,0.8-3.3
				c0,0-0.1-0.5-0.1-0.7"/>
		</g>
		<g>
			<path class="st2" d="M58.4,23.9c0,0-0.3,0.1-0.5,0.2c-0.1,0.1-0.7,0.5-0.8,0.6c-0.1,0-1,0.8-1,0.9c-0.1,0.1-0.1,0.4-0.1,0.6
				c0,0.1,0.4,1.1,0.5,1.2c0,0.1,0.4,0.2,0.4,0.3c0,0.1,0.1,0.4,0.6,0.7l-0.1,0.9l0.3-0.2c0,0,1.2,0.1,1.4-0.2
				c0.1-0.2,0.6-0.7,0.9-0.8c0.3-0.2,1.1-0.7,1.3-0.8c0.2-0.1,0.7,0.2,0.9,0.2c0.2,0,1.3-0.2,0.8-0.9c-0.5-0.6-0.7-1-0.7-1.1
				c0-0.2-0.2-0.7-0.9-0.8c-0.7-0.1-1-0.6-1-0.6L58.4,23.9z"/>
		</g>
		<g>
			<path class="st2" d="M71.1,19.3c0,0-1.2-0.5-1.5-0.5c-0.3-0.1-1.7,0.2-2.1,0.5c-0.4,0.2-0.7,0.4-0.7,0.6
				c-0.1,0.2-0.7,0.4-0.7,0.5c0,0.2-0.2,0.6-0.3,0.8c0,0.1,0,0.8,0.1,0.9c0.1,0.1,0.1,0.7,0.2,0.9c0.1,0.1,0.3,1,0.7,1.3
				c0.4,0.3,1,0.4,1.1,0.6c0.1,0.2,0.5,1.1,0.7,1c0.2-0.1,0.4-0.4,0.6-0.3c0.3,0.1,0.9,0.3,1.3-0.1c0.4-0.4,0.8-1.2,1.3-1.5
				c0.5-0.2,1-0.6,1.3-1.3c0.2-0.6,0.6-1.7,0.4-2.3c-0.2-0.6-0.8-0.9-1-0.9C72.3,19.5,71.1,19.3,71.1,19.3"/>
		</g>
		<g>
			<path class="st1" d="M72,36.1c0,0,0.4-7.1,5.1-12.6l0,0c0.6,0.1,1.2,0.1,1.7-0.3l0,0c-6.2-1.7-2.2-5.8-1.5-6.4l0-0.1
				c0.4,0.2,0.9-0.2,2.6,0.7c0.1,0.1,0.9-0.4,1.2-0.4c0.5,0,1.7,1.1,1.8,1.4c0.1,0.1,0.1,0.7,0,1.1c-0.2,0.4-0.6,0.6-0.5,0.8
				c0.5,1,0.7,2,1,3.7c0,0,0.3,1.5,0.4,3.2c0.1,1.3-0.1,2.6,0,3.6c0.1,1.7-1.3,4.7-1.3,6.5c0,0.5,0.3,2.9,1.1,3.1
				c0,0-2.7,0.3-3.9,0.3c-0.5,0-0.5,0-1.1,0c-1.9-0.1-3.8-0.2-3.9-0.3l-0.1,0c-0.1-0.4-0.2-1.1,0-1.5c0.3-0.5,3.3-4.7,3.1-7.7l0,0h0
				c-0.2,0.1-0.3,0.2-0.4,0.4c-0.5,0.7-2.4,2.2-3.6,3.2c-0.4,0.3-0.8,0.6-1,0.8C72.4,35.6,72,36.1,72,36.1"/>
		</g>
		<g>
			<path class="st2" d="M71.9,41.4c0.1-0.2,0.2-0.5,0.2-0.6c0.1-0.2,0.3-1,0.3-1.2c0-0.3,0.2-0.9,0.5-1.6c0.3-0.7,0.6-3.2,0.6-3.2
				l0-0.1c1.3-1,3.2-2.6,3.6-3.3c0.1-0.2,0.3-0.3,0.4-0.4h0l0,0c0.2,3-2.8,7.2-3.1,7.7c-0.2,0.4-0.1,1.1,0,1.5
				c0,0.2,0.1,0.3,0.1,0.3s0.6,0.8,0.6,1.1c0,0.2-0.4,0.6-0.5,0.7c-0.1,0.1-0.4,0.2-0.6,0.3c-0.1,0.1-0.4,0.1-0.6,0
				c-0.2,0-0.6-0.2-0.6-0.2s-0.4,0.1-0.7,0.1c-0.3,0-0.3-0.4-0.3-0.7C71.8,41.6,71.8,41.5,71.9,41.4"/>
		</g>
		<g>
			<path class="st1" d="M69.1,18.6c0,0,0.4-0.6,1.1-0.8c0.2-0.1,0.3-0.1,0.5-0.2c0.7-0.4,2.1-1,3.4-1c0.5-0.1,1.4-0.1,1.9,0l0,0.1
				l0,0c-1.6,0.7-2.5,3.3-2.5,3.4l0,0c-0.1-0.5-0.3-0.5-0.7-0.6c-0.9-0.2-1.8-0.2-2.7-0.5l0,0c-0.2-0.1-0.5-0.2-0.5-0.2
				c-0.1,0-0.3,0-0.5,0L69.1,18.6L69.1,18.6z"/>
		</g>
		<g>
			<path class="st1" d="M73.5,20.1c0-0.1,0.8-2.7,2.5-3.4c0.3-0.1,0.7-0.2,1.1-0.1c0,0,0.1,0,0.2,0.1l0,0.1
				c-0.6,0.6-4.7,4.7,1.5,6.4l0,0c-0.5,0.4-1.1,0.4-1.7,0.3c-1.8-0.4-3.4-2.5-3.4-2.5l0,0C73.6,20.7,73.6,20.4,73.5,20.1L73.5,20.1z
				"/>
		</g>
		<g>
			<path class="st1" d="M68,31.1c0.4-0.8,0.6-1.6,0.6-2.2l0.8-1.8l-0.1-0.1c0.2-0.1,0.5-0.2,0.7-0.4c0.3-0.4,1.2-1.8,1.2-1.8l0,0
				c0.1-0.1,0.2-0.3,0.3-0.4c0,0-0.1-0.2,0.4-0.6l0.1-0.1l0.1-0.1l0.1-0.1c0,0,0.8,0.2,0.7,0.4c0,0.2-0.4,1.6-0.4,1.9
				c0,0.3-0.1,0.6,0.1,0.9c0.1,0.4,0.3,1.2,0.3,1.6c0,0.4-0.2,1.4-0.3,2c0,0.1,0,0.2-0.1,0.3l0,0c0,0-0.5,0-1.4,0.1v0
				C70.2,30.8,69.2,30.9,68,31.1L68,31.1z"/>
		</g>
		<g>
			<path class="st1" d="M70.5,36.9c-0.7-1.8,0.6-3.4,0.7-3.7c0.1-0.4,0.6-1,0.6-1l0.5-1.3l0.1-0.3c0-0.1,0-0.2,0.1-0.3
				c0.1-0.6,0.3-1.6,0.3-2c0-0.4-0.2-1.3-0.3-1.6c-0.1-0.3-0.1-0.6-0.1-0.9c0-0.3,0.4-1.6,0.4-1.9c0-0.2-1-0.1-1-0.1l-0.1-0.1
				l0.1-0.2l0.2-0.4c0.1,0,0.5-0.3,0.6-0.3c0.9-0.3,1.1-1.4,1.1-1.4s0-0.2,0-0.4l0,0c0,0,1.7,2.2,3.4,2.5l0,0
				C72.4,29.1,72,36.1,72,36.1s0.4-0.6,0.5-0.6c0.2-0.2,0.5-0.4,1-0.8l0,0.1c0,0-0.3,2.5-0.6,3.2c-0.3,0.7-0.5,1.3-0.5,1.6
				c0,0.3-0.2,1-0.3,1.2c-0.1,0.1-0.2,0.3-0.2,0.6l0.4-1.3c0,0-0.8,0.3-1.1-0.7L70.5,36.9z"/>
		</g>
	</g>
	<g>
		<polygon class="st2" points="70.6,43.3 63.1,45.5 63.1,44.9 63.1,44.9 63.1,44.4 70.6,42.3 		"/>
	</g>
	<g>
		<g>
			<path class="st1" d="M65.6,26c-0.1-0.6,0.5-1.4,0.7-1.5c0.1-0.1,0.3-0.5,0.3-0.5l0.1,0h0c0.1,0.1,0.2,0.2,0.3,0.3l0.4,0.4
				c0,0,0.3,0.1,0.3,0.1c0.1,0,0.3,0.1,0.3,0.3c0.1,0.2,0.3,0.9,0.7,0.8l0.3-0.3c0,0,0.4,0.2,0.5,0.2c0.1,0,0.8,0.4,1.6-0.8l0,0
				c0,0-0.9,1.5-1.2,1.8c-0.2,0.2-0.5,0.3-0.7,0.4c-0.2,0.1-0.4,0.1-0.4,0.1l-2.6,0.3l-0.3,0C66,27.6,65.7,26.6,65.6,26"/>
		</g>
		<g>
			<path class="st1" d="M68.8,15.3L68.8,15.3c0.1,0,0.1-0.1,0.2-0.2c0.2-0.2,0.1-0.8,0.1-0.9c0-0.1,0.1-0.2,0.2-0.4
				c0.1-0.1,0.1-0.6,0.1-0.6c0-0.1,0.2-0.2,0.2-0.3c0.1-0.1-0.1-0.6-0.1-0.7c0-0.1,0-0.2,0.1-0.4l0.1,0c0,0,1.8,0.6,2.9,2.5
				c0,0,0.4,0.7,0.4,1.1c0,0.1,0,0.2,0,0.2v0l0,0c0.7,0.5,1,0.9,1,0.9l-0.3,0.1c-1.3,0.2-2.3,0.6-3,1c-0.2,0-0.4,0.1-0.5,0.2l0,0
				C68.5,16.6,68.8,15.3,68.8,15.3L68.8,15.3L68.8,15.3z"/>
		</g>
		<g>
			<path class="st2" d="M67.5,38.9c-0.6-0.1-0.5-0.7-0.5-0.7s0.3-0.8,0.3-0.9c0-0.1,0-0.6,0-0.8c0-0.2,0.2-0.8,0.5-1.2
				c0.2-0.3,0.2-1.2,0.2-1.4c0-0.2,0-2.3,0-2.3l0,0h0c0.1-0.2,0.2-0.3,0.3-0.5l0.1,0c1.1-0.2,2-0.4,2.7-0.4l0,0.1
				c-0.2,2.1-0.7,2.8-0.7,2.8s-1,1.5-1.2,1.7C69,35.6,69,36.1,69,36.3c0,0.1-0.1,0.5-0.1,0.5c-0.1,0.2,0.1,0.6,0.3,0.8
				c0.2,0.2,0.4,0.3,0.5,0.6c0.1,0.2-0.2,0.5-0.5,0.7C68.9,39,68.1,38.9,67.5,38.9"/>
		</g>
		<g>
			<path class="st2" d="M64.3,11.6c0-0.3,0.3-1.1,0.3-1.2c0-0.1,0.2-0.8,0.4-1C65,9.3,65.1,9.1,65.3,9c0.2-0.3,0.5-0.5,0.6-0.6
				c0.1-0.1,1-0.3,1-0.3S68,8,68.6,8.6c0,0,0.7,0,0.8,0.4c0.2,0.4,0.6,1.1,0.5,1.3c0,0.2-0.2,0.4-0.1,0.5c0,0.1,0,0.7-0.1,0.9
				c0,0,0,0,0,0.1c-0.1,0.1-0.1,0.3-0.1,0.4c0,0.1,0.2,0.6,0.1,0.7c-0.1,0.1-0.2,0.2-0.2,0.3c0,0.1,0,0.5-0.1,0.6
				c-0.1,0.1-0.2,0.3-0.2,0.4c0,0.1,0.1,0.7-0.1,0.9c-0.1,0.1-0.1,0.1-0.2,0.2c-0.1,0.1-0.2,0.1-0.2,0.1c0-0.1-0.2,0.2-0.2,0.2
				l-0.1,0.2c0,0,0,0.4-0.1,0.4c-0.1,0-0.2-0.5-0.2-0.5l0.2-1l0.1-1.2l0-0.1l0.9-1.5c0-0.1-0.1-0.7-0.2-0.8
				c-0.1-0.1-0.4-0.5-0.5-0.6c0-0.1-0.1-0.6-0.1-0.6s-0.7,0.6-0.8,0.6c-0.2,0.1-0.7,0-0.8,0c-0.1,0-0.4,0.1-0.5,0.2
				c-0.1,0.2-0.3,0.6-0.4,0.7c-0.1,0.1-0.2,0.6-0.2,0.9c0,0.1-0.1,0.2-0.1,0.3c-0.1,0.1-0.1,0.2-0.2,0.3c-0.1,0.2,0,0.3,0.1,0.6
				c0,0.3,0,0.7-0.1,0.9c0,0.1-0.3,0.1-0.3,0.1c-0.1,0-0.3,0.2-0.3,0.2s0.1-0.4,0.1-0.5c0-0.1-0.2-0.6-0.3-0.8
				C64.5,13.2,64.3,11.9,64.3,11.6"/>
		</g>
		<g>
			<path class="st2" d="M63.6,42.1l-0.3,0.1l0.3-1.9l0,0c0,0,0.2-0.3,0.2-0.6c0.1-0.3,0.3-1.1,0.5-1.5c0.2-0.4,0.7-0.4,0.7-0.4
				l0,0.5l0.5,3.4l-0.1,0.2l-0.9-2.3L63.6,42.1z"/>
		</g>
		<g>
			<path class="st2" d="M65.6,12.3c0-0.2,0.1-0.7,0.2-0.9c0.1-0.1,0.3-0.6,0.4-0.7c0.1-0.2,0.4-0.2,0.5-0.2c0.1,0,0.6,0.1,0.8,0
				c0.2-0.1,0.8-0.6,0.8-0.6s0.1,0.4,0.1,0.6c0,0.1,0.3,0.5,0.5,0.6c0.1,0.1,0.2,0.7,0.2,0.8l-0.9,1.5l0,0.1l-0.1,0
				C67.4,14,66.5,14,66.5,14c-0.6-0.2-0.9-1.3-0.9-1.3l-0.1,0h0C65.6,12.6,65.6,12.5,65.6,12.3"/>
		</g>
	</g>
	<g>
		<polygon class="st2" points="59.1,43.1 63.3,42.1 63.6,42.1 65.1,41.7 65.4,41.6 66.3,41.4 70.6,42.3 63.1,44.4 		"/>
	</g>
	<g>
		<g>
			<path class="st2" d="M62.9,36.8c0-0.4,0.4-0.9,0.6-1.4c0.1-0.3,0.3-1,0.5-1.6c0.2-0.8,0.5-1.6,0.5-1.6c0.1-1,0.3-1.7,0.5-2.3
				c0.4-1.1,0.8-1.4,0.9-1.5c0.1-0.1,0.4-0.8,0.4-0.8l0-0.1l2.6-0.3c0,0,0.2,0,0.4-0.1l0.1,0.1l-0.8,1.8c0.1,0.6-0.2,1.4-0.6,2.2
				c-0.1,0.2-0.2,0.4-0.3,0.5c-0.9,1.7-2.3,3.3-2.4,3.5c-0.1,0.3-0.1,0.6,0.1,1.6c0.2,0.7-0.1,1.2-0.3,1.4l-0.1,0l0-0.5
				c0,0-0.5,0-0.7,0.4c-0.2,0.4-0.5,1.2-0.5,1.5c-0.1,0.3-0.2,0.5-0.2,0.6l0,0c-0.3,0-0.3-0.4-0.3-0.4l-0.1-1.7
				C63.1,38,63,37.9,63,37.9C62.8,37.5,62.9,37.1,62.9,36.8"/>
		</g>
		<g>
			<polyline class="st3" points="63.5,30.5 63.5,30.5 63.5,30.5 63.5,30.5 			"/>
		</g>
		<g>
			<path class="st3" d="M63.5,30.5C63.5,30.5,63.5,30.5,63.5,30.5L63.5,30.5z"/>
		</g>
		<g>
			<path class="st2" d="M61.6,32.7c-0.4-0.3,0.2-0.3,0.1-0.4c-0.1-0.2,0.1-0.2,0.2-0.1c0.1,0,0.4,0.4,0.4,0.5c0,0,0.4-0.2,0.4-0.2
				c0.1,0,0.1-0.3,0.1-0.4c0-0.1,0.2-0.9,0.2-1c0.1-0.1,0-0.1,0.4-0.6c0,0,0,0,0,0h0c0,0,0.1-0.1,0.5-0.4c0.6-0.5,1-0.1,1-0.1l0,0
				c-0.2,0.5-0.4,1.3-0.5,2.3c0,0-0.2,0.8-0.5,1.6l0,0l-0.3,0.4l-0.3,0.3c-0.3,0.3-0.4-0.1-0.4-0.1c-0.1-0.1,0.1-0.6,0.2-0.7
				c0-0.1,0.1-0.3,0.1-0.5l-0.1,0c-0.2,0.3-0.6,0.3-0.8,0.3c-0.2,0-0.6-0.4-0.6-0.4L61.6,32.7z"/>
		</g>
		<g>
			<path class="st3" d="M63.5,30.5C63.5,30.5,63.5,30.5,63.5,30.5L63.5,30.5z"/>
		</g>
		<g>
			<path class="st1" d="M63.8,19.6c0,0,0-0.2,0.1-0.3c0-0.1-0.3-0.3-0.3-0.3c0,0,0-0.2,0-0.3c-0.1-0.1-0.1-0.5-0.1-0.5
				c0,0,0-0.1,0-0.1l0,0c0,0,0.6-1,0.6-1c0,0,0.8-1.2,0-3.3c-0.1-0.3-0.6,0.3-0.7,0.3l0,0c0.1-0.2,0.2-0.4,0-0.8
				c-0.3-0.6-1.4-1.2-1.8-1.3c-0.1,0-0.2,0-0.3,0l0-0.1c0,0-0.4-0.7,0.3-1.5c0.7-0.8,0.9-0.9,1.2-0.9c0.3,0,0.8-0.1,0.8-0.1
				s0.9-0.7,1.8-0.1v0C65.1,9.1,65,9.3,65,9.4c-0.1,0.3-0.4,0.9-0.4,1c0,0.1-0.3,1-0.3,1.2c0,0.3,0.2,1.6,0.2,1.8
				c0.1,0.2,0.3,0.7,0.3,0.8c0,0.1-0.1,0.5-0.1,0.5s0.3-0.2,0.3-0.2c0.1,0,0.3,0,0.3-0.1c0-0.1,0.1-0.6,0.1-0.9
				c0-0.3-0.1-0.4-0.1-0.6c0-0.1,0.1-0.2,0.2-0.3l0.1,0c0,0,0.3,1.1,0.9,1.3c0,0,0.9,0,1.7-0.5l0,0l-0.1,1.2l-0.2,1
				c0,0,0.1,0.4,0.2,0.5c0.1,0,0.2-0.4,0.2-0.4l0.1-0.2c0,0,0.1-0.2,0.2-0.1c0,0,0.1,0,0.2-0.1l0,0c0,0-0.3,1.2,1.4,2.4l0,0
				c-0.7,0.3-1.1,0.8-1.1,0.8l0,0.1c-0.2,0-0.3,0-0.4,0.1c-0.1,0-0.6,0.2-0.7,0.2c-0.1,0-0.5,0.3-0.8,0.4c-0.4,0.1-0.2,0.6-0.7,0.7
				c-0.2,0-0.3,0.1-0.3,0.3"/>
		</g>
		<g>
			<path class="st2" d="M59.5,17.6c0.1-0.4,0.4-0.9,0.5-1c0.2-0.1,0.6-0.3,1.4-0.1c0,0,0.3,0.3,0.4,0.3c0.1,0,0.3,0.1,0.5,0.3
				c0.2,0.1,0.2,0.3,0.2,0.3c0,0.1,0.2,0.3,0.2,0.4c0,0,0.2,0.6,0.2,0.6c0,0.1,0.1,0.5,0.1,0.6c0,0.1,0.2,0.6,0,0.7
				c-0.2,0.1,0,1.4-0.1,1.5c-0.2,0.3-0.4,0.9-0.7,1c-0.8,0.2-1.8,0-1.8,0l0.2-1.7c0-0.1-0.1-0.3-0.1-0.4c-0.2-0.4-0.2-0.8-0.2-1
				c0-0.2-0.1-0.5-0.3-0.7C59.7,18.2,59.5,17.9,59.5,17.6"/>
		</g>
		<g>
			<path class="st2" d="M58.3,29.5L58,29.6l-0.3-0.7c0.1-0.2,1-0.1,1.1-0.1c0.1-0.1,0.4,0,0.4-0.1c0-0.1,0.2-0.1,0.4-0.2
				c0.2-0.1,0.2-0.3,0.3-0.3c0.1,0,0.3-0.2,0.3-0.3c0-0.1,0.3-0.1,0.4-0.2c0.1,0,0.6-0.3,0.8-0.4c0.1-0.1,0.3-0.1,0.4-0.1
				c0.1,0,0.2,0.3,0.2,0.3c-0.1,0.5-0.4,0.7-0.4,0.7s0,0.7,0,0.9c0,0.3-0.5,0.2-0.5,0.2s-0.2,0.3-0.3,0.3c-0.1,0-0.3,0.2-0.4,0.2
				c-0.1,0-0.3,0.2-0.5,0.3c-0.2,0.1-1-0.2-1-0.2L58.3,29.5z"/>
		</g>
		<g>
			<path class="st2" d="M59.1,14.2c-0.3,0-0.5-0.2-0.5-0.3c0-0.1,0.4-0.3,0.4-0.3s0.5-0.3,1-0.3c0.1,0,0.2,0,0.2,0
				c0.3,0,0.6-0.1,0.9,0.1l0.4,0.2l0.1,0h0c-0.1-0.1-0.1-0.2-0.1-0.2c0-0.1-0.1-0.1,0-0.3c0.1-0.1,0.3,0,0.3,0c0,0,0.1,0.2,0.3,0.3
				c0.2,0.1,0.1,0,0.3,0.6c0,0.1,0,0.2,0,0.3c0,0.3-0.4,0.3-0.8,0.5c-0.5,0.3-1.1,0-1.1,0s-0.8-0.8-0.9-0.8c-0.1-0.1-0.1-0.1-0.2,0
				C59.4,14.1,59.4,14.1,59.1,14.2"/>
		</g>
		<g>
			<path class="st1" d="M60.2,13.2c0,0,0-0.8,0.2-1c0.2-0.1,0.4-0.4,0.7-0.4c0.1,0,0.2,0,0.3,0c0.4,0.2,1.5,0.7,1.8,1.3
				c0.2,0.4,0.1,0.7,0,0.8c-0.1,0.1-0.2,0.2-0.2,0.2c-0.2,0.1-0.7,0.2-0.7,0.2l0,0c0-0.1,0-0.2,0-0.3c-0.1-0.6-0.1-0.5-0.3-0.6
				c-0.2-0.1-0.3-0.3-0.3-0.3c0,0-0.2-0.1-0.3,0c-0.1,0.1,0,0.2,0,0.3c0,0,0.1,0.1,0.1,0.2h0l-0.1,0l-0.4-0.2
				C60.8,13.2,60.6,13.2,60.2,13.2L60.2,13.2L60.2,13.2z"/>
		</g>
	</g>
	<g>
		<polygon class="st2" points="59.1,43.1 63.1,44.4 63.1,44.9 63.1,45.1 63.1,45.2 63.1,45.5 59.1,44.2 59.1,43.1 		"/>
	</g>
	<g>
		<g>
			<path class="st2" d="M59.2,22.3c-0.2-0.1-1,0.1-1.1-0.2c-0.1-0.2-0.2-0.3-0.8-0.7c-0.5-0.4,0-0.8,0.2-0.9c0.1,0,0.1-0.1,0.1-0.1
				c0-0.1,0.1-0.2,0.3-0.4c0.2-0.2,0.1-0.2,0.1-0.7c0-0.5,0.3-0.7,0.3-0.7c-0.1-0.6,0.2-1.1,0.2-1.1c0-0.4,0.6-0.7,0.6-0.7
				c0.3-0.7,1-0.4,1-0.4c0.3-0.1,0.5-0.2,0.5-0.2s0.3,0,0.4,0c0.1,0,0.4-0.1,0.5-0.1c0,0,0.2,0,0.4,0.2c0,0,0.3,0,0.4,0.2
				c0,0.2,0.5,0.1,0.4,0.5c0,0,0.2,0.3,0.3,0.5c0,0.2,0.3,0.1,0.4,0.5c0,0,0,0.1,0,0.1c0,0,0.1,0.4,0.1,0.5c0.1,0.1,0,0.3,0,0.3
				c0,0,0.3,0.2,0.3,0.3c0,0.1-0.1,0.3-0.1,0.3s0.3,0.3,0.2,0.5c-0.1,0.3,0.2,0.5-0.2,0.8c-0.3,0.2-0.4,0.4-0.4,0.4
				c-0.1-0.1-0.4-0.1-0.4-0.1s-0.1,0-0.2-0.1c-0.1-0.1-0.2-0.1-0.2-0.2c0-0.1-0.2-0.1-0.1-0.8l-0.1-0.1c0.2-0.1,0.4-0.2,0.6-0.4
				c0.2-0.1,0-0.7,0-0.7c0-0.1-0.1-0.5-0.1-0.6c0-0.1-0.1-0.3-0.2-0.5c0-0.1,0-0.1-0.1-0.1c0,0-0.2-0.3-0.2-0.4c0-0.1,0-0.2-0.2-0.3
				c-0.2-0.1-0.4-0.2-0.5-0.3c-0.1,0-0.4-0.3-0.4-0.3c-0.8-0.2-1.2,0.1-1.4,0.1c-0.2,0.1-0.5,0.6-0.5,1c-0.1,0.4,0.2,0.6,0.3,0.8
				c0.1,0.2,0.3,0.5,0.3,0.7c0,0.2,0.1,0.6,0.2,1c0,0.1,0.1,0.2,0.1,0.4c0.1,0.3,0.1,0.7,0.1,0.8c-0.1,0.2-0.1,0.6-0.1,0.8
				c0,0.2-0.3,0.4-0.4,0.4C60,22.4,59.4,22.5,59.2,22.3"/>
		</g>
		<g>
			<path class="st2" d="M52.1,11.5c-0.1-0.4,0.6-0.8,0.6-0.8c0-0.4,0.6-0.4,0.6-0.4c0-0.4,0.8-0.3,0.8-0.3c0.3-0.4,0.3-0.4,0.3-0.4
				c0.4-0.2,1.7-0.1,1.7-0.1c1-0.2,1,0.2,1,0.2c0.7,0.1,0.9,0.3,0.9,0.3c0.2-0.2,0.5,0.1,0.5,0.1c0.6,0.2,0.7,0.7,0.7,0.7
				c0.7,0.2,0.4,0.7,0.4,0.7c0.4,0.4,0,0.6,0,0.7c0,0.1,0,0.3-0.4,0.3c-0.1,0-0.3,0-0.4-0.1c-0.3-0.1-0.6-0.4-0.8-0.4
				c-0.3-0.1-0.2-0.2-0.2-0.2c-0.2,0-0.1,0.1-0.2-0.1l-0.1,0c0,0,0,0.4-0.1,0.6c-0.2,0.2-0.3,0.2-0.4,0.2c-0.1,0-0.4,0.3-0.6,0.4
				c-0.2,0.1-0.3,0.1-0.3,0.1c-0.1,0-0.3,0.4-0.5,0.3c0,0-0.2-0.2-0.3-0.1c-0.1,0.1-0.5,0.2-0.7,0.1c-0.2-0.1-0.6-0.2-0.6-0.4
				c0-0.1-0.4-0.2-0.6-0.4l-0.1,0c-0.1-0.3-0.4-0.6-0.7-0.8C52.4,11.8,52.2,11.7,52.1,11.5L52.1,11.5L52.1,11.5z"/>
		</g>
		<g>
			<path class="st2" d="M54.1,19c0-0.4,0.2-0.7,0.3-0.9c0.2-0.3,0.6-0.3,0.6-0.3l0.4,0.1l0.4,0.1l0.3,0c0,0,0.7,0.1,0.7,0.1
				c0.1,0,0.7,0.1,0.7,0.1c0.1,0.2-0.3,0.3-0.3,0.3l-0.6,0.1l0.2,0.3c0.2,0.3-0.2,0.6-0.2,0.6c0.1,0.6-0.3,0.8-0.3,0.8
				c-0.6,0.4-1.2,0.1-1.6-0.2c-0.1-0.1-0.2-0.1-0.3-0.1C54,19.8,54.1,19.4,54.1,19"/>
		</g>
		<g>
			<path class="st1" d="M54.3,34.1L54.3,34.1c0.4,0,0.9-0.2,1.4-0.5c0,0,0.4-0.3,0.7-0.8h0l0,0c1.4-0.2,1.6-1.8,1.7-2.4L58,31.3
				c0,0-0.3,1.1-0.3,1.1c-0.1,0.5-0.1,0.5-0.5,1.6c-0.1,0.3-0.6,1.4-0.7,1.5l-1.3,1.3l-0.1-0.1C55,35.9,55,36,55,35.8
				C54.9,35.4,54.3,34.2,54.3,34.1L54.3,34.1z"/>
		</g>
		<g>
			<path class="st1" d="M51.8,18.9c-0.2-0.2,0-0.7,0-0.7l0-0.1l0.8-0.4c0,0,1.2-0.4,1.9-0.7h0l0.2,0.1c0,0,0.8,0.6,0.9,0.8v0l0,0.1
				L55,17.8c0,0-0.5,0.2-0.6,0.3c-0.1,0.1-0.3,0.5-0.3,0.9c0,0.4-0.1,0.8,0.3,1c0.1,0,0.2,0.1,0.3,0.1l0,0c0,0-1.1,0-1.3-0.1
				C52.2,20,51.8,18.9,51.8,18.9"/>
		</g>
		<g>
			<path class="st2" d="M52.9,15.2c0.2-0.3,0.3-0.5,0.4-0.9c0.2-0.5,0.1-1.1-0.1-1.6l0.1,0c0.2,0.2,0.6,0.3,0.6,0.4
				c0.1,0.2,0.4,0.2,0.6,0.4c0.2,0.1,0.6,0,0.7-0.1c0.1-0.1,0.3,0.1,0.3,0.1c0.2,0.2,0.4-0.3,0.5-0.3c0.1,0,0.2,0,0.3-0.1
				c0.2-0.1,0.4-0.4,0.6-0.4c0.1,0,0.2,0,0.4-0.2c0.2-0.2,0.1-0.6,0.1-0.6l0.1-0.1c0,0,0.1,0.2,0.3,0.2c0,0-0.1,0.1,0.2,0.2
				c0.2,0,0.5,0.3,0.8,0.4l0,0c0,0-0.1,0.1-0.2,0.3c-0.1,0.2-0.5,1.1-0.6,1.6c-0.1,0.4-0.4,0.1-0.4,0.1c0,0-0.1,0.2-0.2,0.2
				c-0.1,0.1-0.3,0.1-0.3,0.1S57,15,56.9,15c-0.1,0-0.2,0.2-0.2,0.2c0,0.1,0,0.2-0.2,0.2c-0.2,0-0.7-0.2-0.7-0.2l-0.8-0.4L55,14.7
				l-2,0.5L52.9,15.2z"/>
		</g>
		<g>
			<path class="st1" d="M46.1,30.4c-0.3-0.2-0.1-0.5-0.2-1.2c0-0.7,1.2-1,1.5-1c0.3,0,1.6-0.4,1.6-0.4l1.3-0.5l0,0
				c0,0,0.1,0.1,0.1,0.1c0.1,0.1,0.3,0.3,0.4,0.4c0.1,0.1,0.4,0.1,0.5,0.1c0.1,0,0.4-0.2,0.4-0.2c0.1-0.1,0.1-0.2,0.1-0.4
				c0-0.1,0.1-0.5,0.1-0.6c0-0.1,0.1-0.4,0.1-0.4v0c0.1-0.1,0.3-0.2,0.4-0.2c0.1,0,0.2-0.1,0.2-0.1c0.1,0,0.3,0.1,0.3,0.1
				s0.4,0.1,0.8,0c0.2-0.1,0.2-0.1,0.2-0.2l0,0c0,0,1.4,0.4,2.1,0.8c0,0,0,0,0,0v0l0,0c0,0,0.4,0.2,0.6,0.8c0,0.1,0.1,0.2,0.2,0.3
				c0.1,0.1,0,0.1,0.1,0.2c0.2,0.2,0.4,0.4,0.5,0.5c0.1,0.2,0.2,0.5,0.2,0.5l0,0c0.1,0.5,0.2,1,0.2,1l0.1,0.5c0,0,0,0,0,0
				c0,0.5-0.3,2.2-1.7,2.4l0,0h0c-0.3,0.5-0.7,0.8-0.7,0.8c-0.6,0.3-1,0.5-1.4,0.5v0c-0.8,0-1.2-0.5-1.2-0.5l-0.2,0
				c0.2-0.4,0.5-1,0.5-1.2c0,0,0.9-0.1,1-0.6c0-0.5,0.4-1.1-2.4-2.1c0,0-0.8,0.5-1.2,1.4c-0.2,0.4-0.4,0.9-0.6,1.5l-0.1,0
				c-0.6-0.4-1.9-1.7-2.5-2.4v0l0,0c0,0-0.5,0.2-1,0.5l0,0C46.6,30.7,46.4,30.6,46.1,30.4"/>
		</g>
		<g>
			<path class="st2" d="M50,34.5c0-0.7,0.1-1.4,0.2-1.9c0.1-0.6,0.4-1.1,0.6-1.5c0.4-0.8,1.2-1.4,1.2-1.4c2.7,1,2.4,1.7,2.4,2.1
				c0,0.5-1,0.6-1,0.6c0,0.3-0.3,0.9-0.5,1.2c-0.1,0.2-0.2,0.3-0.2,0.3l-0.4,0.8c0,0-0.5,1.3-0.6,1.5c0,0.3,0.4,0.3,0.6,0.4
				c0.2,0,0.7,0.4,0.7,0.4c0.1,0.1,0.4,0.3,0.4,0.4c0,0.1,0.2,0.2,0.2,0.2c0.1,0.1,0.4,0.2,0.4,0.2s0.6,0.7,0.6,0.8
				c0.1,0.1,0.1,0.2,0.1,0.2c0,0.1-0.2,0.1-0.2,0.1l-0.8-0.5l-0.6-0.2c0.3,0.2,0.5,0.7,0.5,0.7s0.2,0.4,0.3,0.7
				c0.1,0.2,0,0.3-0.1,0.3c-0.1,0-0.3-0.1-0.3-0.1l-0.3-0.5l-0.6-0.8l0.1,0.4l0.1,0.3l0.2,0.5c0,0,0.1,0.4,0.1,0.5
				c0,0.1,0,0.1-0.1,0.2c-0.1,0-0.2,0-0.2,0L52.3,39c0,0,0,0.1,0,0.3c0,0.2-0.4,0.3-0.5,0.3c-0.1,0-0.2,0.1-0.3,0.1
				c-0.1,0.1-0.1,0-0.1,0c-0.1-0.1-0.1-0.3-0.1-0.3c0,0,0.2-0.2,0.3-0.2c0.1-0.1-0.1-0.3-0.1-0.4c0-0.1-0.4-0.3-0.5-0.4
				c0,0-0.5-0.4-0.5-0.4c-0.3-0.3-0.5-1-0.6-1.9C50.1,35.6,50.1,35,50,34.5"/>
		</g>
		<g>
			<path class="st1" d="M50.6,18.6c0-0.2,0-0.2,0-0.2c0.5-0.4,0.7-1.4,0.8-1.8c0.1-0.4,0.4-0.5,0.7-0.6c0.2-0.1,0.5-0.4,0.7-0.7
				l0.1,0.1l2-0.5l0.1,0.1l0,0c0,0,0.1,0.7-0.3,1.2h0l0.1,0c0,0,0,0.5,0,0.7c0,0-0.2,0.1-0.4,0.2c-0.7,0.3-1.9,0.7-1.9,0.7l-0.8,0.4
				L50.6,18.6L50.6,18.6z"/>
		</g>
		<g>
			<path class="st2" d="M46.2,15c-0.6-0.8-0.2-1.5,0.8-2.5c0.8-0.9,3.3-1.1,3.8-1.2l0,0c0.2,0,0.8,0.1,1.3,0.3
				c0.1,0.1,0.3,0.2,0.4,0.3c0.3,0.2,0.5,0.5,0.7,0.8c0.3,0.5,0.3,1.1,0.1,1.6c-0.1,0.3-0.3,0.6-0.4,0.9c-0.3,0.4-0.5,0.6-0.7,0.7
				c-0.3,0.1-0.6,0.2-0.7,0.6c-0.1,0.4-0.4,1.4-0.8,1.8c0,0-0.1,0,0,0.2c0,0.1,0,0.1,0.1,0.2c0.2,0.4,0.8,1.5,0.7,2.4
				c0,0.8,0.1,1.7,0.3,2.3c0.2,0.7,0.6,1.4,0.8,1.5c0.2,0,0.5,0.1,0.6,0.2c0.1,0.1,0.5,0.3,0.7,0.4c0.1,0,0.2,0.1,0.3,0.2
				c0,0.1,0,0.1-0.2,0.2c-0.4,0.1-0.8,0-0.8,0s-0.2-0.1-0.3-0.1c-0.1,0-0.2,0.1-0.2,0.1c-0.1,0-0.3,0.1-0.4,0.2c0,0,0,0,0,0
				c0,0-0.1,0.3-0.1,0.4c0,0.1-0.1,0.4-0.1,0.6c0,0.1,0,0.3-0.1,0.4c0,0-0.3,0.2-0.4,0.2c-0.1,0-0.4,0-0.5-0.1
				c-0.1-0.1-0.3-0.3-0.4-0.4c0,0-0.1-0.1-0.1-0.1c-0.1-0.1-0.2-0.4-0.2-0.8c0.1-0.4,0.3-0.8,0.3-0.9c0-0.1-0.5-1.4-0.5-1.4
				s-0.7-1-0.9-1.3c-0.1-0.2-0.5-0.6-0.8-1.7c-0.1-0.4-0.2-0.8-0.2-1.3c0,0-0.1-0.3-0.1-0.9c0-0.1,0-0.3,0-0.4
				c0.1-0.8,0.1-1.9,0.1-2.1c0,0,0-0.1,0-0.3l-0.1,0C47.5,16.5,46.9,15.8,46.2,15"/>
		</g>
		<g>
			<path class="st1" d="M43.3,30.2c0-0.1,0.1-0.4,0.1-0.9c0.1-0.7,0.4-1.6,0.4-1.9c0-0.5-0.4-2.5-0.4-3.8c0-1.4,0.8-2.2,0.8-2.2l0,0
				c2.1,0.1,4.1-0.2,4.1-0.2l0,0c0.3,1.1,0.7,1.5,0.8,1.7c0.1,0.3,0.9,1.3,0.9,1.3s0.5,1.3,0.5,1.4c0,0.1-0.3,0.4-0.3,0.9
				c-0.1,0.3,0.1,0.6,0.2,0.8l0,0l-1.3,0.5c0,0-1.3,0.3-1.6,0.4c-0.3,0-1.6,0.3-1.5,1c0,0.7-0.1,1,0.2,1.2c0.3,0.2,0.5,0.3,0.5,0.3
				l0,0c-0.2,0.1-0.4,0.3-0.6,0.4c-0.3,0.4-0.6,0.8-0.7,1.2l-0.1,0c0,0-0.9-0.6-1-0.6c-0.1,0-0.3,0-0.6-0.1l0-0.1v0
				C43.4,31,43.4,30.4,43.3,30.2"/>
		</g>
		<g>
			<path class="st1" d="M41.4,20.8c-0.7-1.1-0.3-1.6-0.2-1.7c0.3,0.3,0.7,0.6,1.2,0.5c0.8-0.1,1.7-0.4,2.1-0.1
				c0.4,0.3,1.1,1.1,2,0.5c0.6-0.4,1.2-0.8,1.4-1C48,19,48.1,19,48.1,19l0.1,0c0,0.6,0.1,0.9,0.1,0.9c0,0.5,0.1,1,0.2,1.3l0,0
				c0,0-2,0.3-4.1,0.2c-0.5,0-1.1-0.1-1.6-0.2c-0.3-0.1-0.6-0.1-0.9-0.2v0C41.6,20.9,41.5,20.9,41.4,20.8"/>
		</g>
		<g>
			<path class="st1" d="M40.7,18.7c-0.2-0.2-0.3-1-0.1-1.1c0.2-0.2,0.8-0.9,0.8-0.9c1-1.7,1.9-1.9,1.9-1.9l0.1,0
				c-0.1,0.7-0.2,1.6-0.2,1.8c0,0.2,0.5,1,0.8,1.2c0.3,0.2,0.9,0.4,1.1,0.4c0.2,0,1.4,0.5,1.6,0.5l1.2,0.4l0,0.1
				c-0.3,0.2-0.8,0.6-1.4,1c-0.8,0.6-1.6-0.2-2-0.5c-0.4-0.3-1.3,0-2.1,0.1c-0.5,0.1-0.9-0.2-1.2-0.5C40.9,19,40.8,18.8,40.7,18.7"
				/>
		</g>
		<g>
			<path class="st1" d="M42.6,34.8c-1.4,0-1-1.5-0.9-2c0.1-0.6,1-1.1,1.3-1.1c0.2,0,0.5,0,0.7,0.1c0.3,0,0.5,0.1,0.6,0.1
				c0.1,0,1,0.6,1,0.6l0.1,0c0,0.1,0,0.1,0,0.2c0,0.4,0.3,0.7,0.5,0.9l0,0c-0.4,0-0.9,0-1,0c-0.2,0-1.2,0.6-1.4,0.8
				c0,0-0.1,0.1-0.1,0.1C43.2,34.5,42.6,34.8,42.6,34.8"/>
		</g>
		<g>
			<path class="st2" d="M44.2,42.8c0-0.1-0.6-1.1-0.6-1.3c0-0.2,0.4-1.3,0.6-1.8c0.2-0.5,0.2-1,0.2-1.3c0-0.3,0.2-0.5,0.2-0.5l0-0.1
				c0,0,0,0,0.1,0.1c1,0.9,2,1.9,3.2,2.5c1.2,0.6,3.9,1.7,4.2,1.8c0.1,0,0.2,0.1,0.3,0.1l0,0l0.6,0.1c2.4,0.1,2.5-1,3-1.9
				c0.1-0.1,0.1-0.2,0.1-0.3l0.1,0c0,0,0.3,0.3,0.6,0.8c0.3,0.5,0.1,1.5,0.1,1.8c0,0.3-0.2,0.4-0.7,0.9c-0.5,0.5-1.6,0.3-2.1,0.2
				c-0.5-0.1-1.7-0.4-2.4-0.5c-0.7-0.1-2-0.9-2.4-1c-0.3-0.2-1.9-1.5-2.1-1.6c-0.2-0.2-0.6-0.3-0.8-0.3c-0.2,0-1.3,0.8-1.4,0.8
				c-0.1,0.1-0.2,0.2-0.3,0.3c0,0.1,0,0.2,0.1,0.3c0.1,0.1,0.2,0.1,0.3,0.2c0.1,0,0.3,0.1,0.4,0.1c0.1,0-0.2,0.4-0.3,0.4
				c-0.1,0,0,0.1-0.1,0.2c0,0.1-0.2,0.1-0.2,0.1c-0.1,0-0.2,0-0.3,0c-0.1,0-0.3,0-0.3,0C44.3,43.1,44.2,42.9,44.2,42.8"/>
		</g>
		<g>
			<path class="st1" d="M43.2,16.5c0-0.2,0.1-1.1,0.2-1.8c0-0.2,0.1-0.3,0.1-0.4c0.2-0.6,0.7-0.8,1.1-1.1c0.4-0.2,0.8-1,1.2-1.3
				c0.4-0.3,1.5-0.5,2.4-0.7c0.9-0.2,2.5,0,2.5,0s0.1,0,0.1,0l0,0c-0.5,0-3,0.3-3.8,1.2c-0.9,1-1.4,1.7-0.8,2.5
				c0.6,0.8,1.3,1.5,2,1.2l0.1,0c0,0.1,0,0.2,0,0.3c0,0.2,0,1.3-0.1,2.1c0,0.1,0,0.3,0,0.4l-0.1,0c0,0-0.1,0-0.2,0.1l0-0.1l-1.2-0.4
				c-0.2-0.1-1.3-0.5-1.6-0.5c-0.2,0-0.8-0.2-1.1-0.4C43.7,17.5,43.2,16.7,43.2,16.5"/>
		</g>
		<g>
			<path class="st1" d="M44.1,35.6c0.4,0.4,1.4,1,2.6,1.1c1.3,0.1,2.7,0.3,3.5-0.5c0.1,0.9,0.2,1.6,0.6,1.9c0,0,0.4,0.3,0.5,0.4
				c0,0,0.4,0.3,0.5,0.4c0,0.1,0.1,0.4,0.1,0.4c-0.1,0.1-0.3,0.2-0.3,0.2c0,0-0.1,0.3,0.1,0.3c0,0,0.1,0.1,0.1,0
				c0.1-0.1,0.2-0.1,0.3-0.1c0.1,0,0.4-0.2,0.5-0.3c0-0.2,0-0.3,0-0.3l0.6,1.3c0,0,0.2,0.1,0.2,0c0.1,0,0.1-0.1,0.1-0.2
				c0-0.1-0.1-0.5-0.1-0.5L53,39.1l-0.1-0.3l-0.1-0.4l0.6,0.8l0.3,0.5c0,0,0.2,0.2,0.3,0.1c0.1,0,0.2-0.1,0.1-0.3
				C54,39.4,53.8,39,53.8,39s-0.3-0.5-0.5-0.7l0.6,0.2l0.8,0.5c0,0,0.1,0,0.2-0.1c0-0.1,0-0.2-0.1-0.2c-0.1-0.1-0.6-0.8-0.6-0.8
				s-0.3-0.2-0.4-0.2c0,0-0.1-0.1-0.1-0.2c0-0.1-0.3-0.4-0.4-0.4c-0.1-0.1-0.6-0.4-0.7-0.4c-0.2,0-0.6-0.1-0.6-0.4
				c0-0.3,0.6-1.5,0.6-1.5l0.4-0.8c0,0,0.1-0.1,0.2-0.3l0.2,0c0,0,0.4,0.5,1.3,0.5l0,0.1c0,0,0.6,1.2,0.6,1.6c0,0.2,0.4,1.3,0.6,2.1
				c0.2,0.5,0.3,0.9,0.3,1c0.1,0.2,0.4,0.6,0.3,1.2c0,0,0,0.1,0,0.1c0,0.1-0.1,0.2-0.1,0.3c-0.5,0.9-0.6,2-3,1.9l-0.6-0.1l0,0
				c-0.1-0.1-0.3-0.1-0.3-0.1c-0.3-0.1-3-1.2-4.2-1.8c-1.2-0.6-2.1-1.6-3.2-2.5c0,0,0,0-0.1-0.1C43.7,37.1,44,35.6,44.1,35.6
				L44.1,35.6L44.1,35.6z"/>
		</g>
		<g>
			<path class="st1" d="M40.8,30.9c-0.5,0-0.3-0.3-0.3-0.3c0.1-0.1,0.2-0.4,0.2-0.5c1-1.4,0.8-3.9,0.8-5.8c0-2,1.2-3.1,1.2-3.1l0,0
				c0.5,0.1,1.1,0.2,1.6,0.2l0,0c0,0-0.8,0.9-0.8,2.2c0,1.3,0.4,3.4,0.4,3.8c0,0.3-0.2,1.2-0.4,1.9l-0.2,0.8l0.2,1.1
				c0,0,0.2,0.4-0.6,0.4c-0.4,0.2-1,0-1.3-0.3C41.5,31,41.3,31,40.8,30.9"/>
		</g>
		<g>
			<path class="st1" d="M44,35.5c-0.3-0.4-0.4-1.2-0.4-1.2l-0.2,0h0c0,0,0.1-0.1,0.1-0.1c0.2-0.2,1.2-0.8,1.4-0.8c0.1,0,0.6,0,1,0
				l0,0c-0.2-0.1-0.5-0.5-0.5-0.9c0-0.1,0-0.1,0-0.2c0.1-0.4,0.3-0.8,0.7-1.2c0.1-0.1,0.3-0.3,0.6-0.5c0.4-0.3,1-0.5,1-0.5l0,0v0
				c0.6,0.6,1.9,2,2.5,2.4l0.1,0c-0.1,0.6-0.2,1.2-0.2,1.9c0,0.6,0,1.2,0.1,1.7l0,0c-0.8,0.7-2.2,0.5-3.5,0.5
				c-1.2-0.1-2.2-0.7-2.6-1.1C44,35.5,44,35.5,44,35.5"/>
		</g>
		<g>
			<path class="st1" d="M39.3,30.5c0,0-0.3,0-0.2-0.1c0.1-0.1,0.4-0.7,0.5-0.8c0-0.1,0.2-0.5,0.3-0.7c0.2-0.4,0.3-0.9,0.3-0.9
				c0.3-0.7,0.3-1,0.3-1l0.2-3c0-1.7,1.1-3,1.1-3l0,0c0.3,0.1,0.6,0.2,0.9,0.2l0,0c0,0-1.2,1.1-1.2,3.1c0,1.9,0.5,3.6-0.3,5L40.9,30
				c0,0-0.4,1-0.4,1c0,0-0.3-0.2-0.6-0.1C39.7,30.9,39.3,30.7,39.3,30.5"/>
		</g>
		<g>
			<path class="st1" d="M38,29.7c-0.6-0.3,0.4-1.1,0.4-1.1l0.7-1c0,0,0.5-0.7,0.7-1.5c0.2-0.3,0.3-2.3,0.3-2.3
				c0.3-2.3,1.2-2.9,1.2-2.9c0.1,0.1,0.3,0.1,0.4,0.1v0l0,0c0,0-1,1.3-1.1,3l-0.2,3c0,0,0,0.3-0.3,1c0,0-0.1,0.5-0.3,0.9l-0.8,1.5
				c0,0-0.3-0.3-0.6-0.4C38.2,30.1,38,29.7,38,29.7"/>
		</g>
		<g>
			<path d="M63.1,45.7l-4.1-1.4L59,44.2v-1.1c0,0,0-0.1,0-0.1l0,0c0,0,0.1,0,0.1,0l0,0l4.1-1l0.2-1.7c-0.3-0.1-0.3-0.4-0.3-0.5l0,0
				c0,0,0,0,0,0l0,0l-0.1-1.7c-0.1-0.1-0.2-0.2-0.2-0.2l0,0c0,0,0,0,0-0.1l0,0c-0.2-0.1-0.3-0.1-0.4-0.1l0,0c-0.4,0-0.9,0.4-1.5,0.6
				l0,0c-0.8,0.3-1.7,0.3-1.7,0.3l0,0c0,0,0,0-0.1,0l0,0c-0.9-0.2-2.9-2.5-3-2.5l0,0h0c-0.1-0.1,0-0.1,0-0.2l0,0
				c0.1-0.1,0.1,0,0.2,0l0,0c0,0,0.5,0.5,1,1l0,0c0-0.6-0.1-2-0.1-2.8l0,0c0-0.2,0-0.3,0-0.4l0,0c0-0.1,0.1-0.1,0.2-0.1l0,0
				c0.1,0,0.1,0.1,0.1,0.2l0,0c0,0,0,0.2,0,0.4l0,0c0,0.9,0.1,3,0.1,3l0,0c0,0,0,0,0,0l0,0c0.5,0.5,1.1,1,1.4,1.1l0,0
				c0.2-0.5,0.8-2.2,1-3.6l0,0c0,0,0.1-0.8,0.2-2l0,0v0c0-0.1,0.1-0.1,0.1-0.1l0,0c0.1,0,0.1,0.1,0.1,0.1l0,0c-0.1,1.2-0.2,2-0.2,2
				l0,0c-0.2,1.4-0.8,3.1-1,3.6l0,0c0.3,0,0.9-0.1,1.5-0.3l0,0c0.6-0.2,1-0.6,1.6-0.6l0,0c0.1,0,0.2,0,0.3,0.1l0,0
				c0-0.1,0-0.2,0-0.3l0,0c0-0.2,0-0.3,0-0.4l0,0c0-0.5,0.4-0.9,0.6-1.5l0,0c0.1-0.1,0.2-0.4,0.3-0.8l0,0l-0.1,0.1
				c-0.1,0.1-0.2,0.2-0.3,0.2l0,0c-0.3,0-0.3-0.4-0.3-0.3l0,0c0-0.1,0-0.1,0-0.1l0,0c0-0.2,0.1-0.6,0.2-0.7l0,0c0,0,0-0.1,0-0.1l0,0
				c-0.1,0.1-0.3,0.1-0.4,0.1l0,0c-0.1,0-0.2,0-0.2,0l0,0c-0.3-0.1-0.6-0.4-0.6-0.4l0,0l-0.4-0.3c-0.1-0.1-0.2-0.2-0.2-0.3l0,0
				c0-0.2,0.2-0.2,0.2-0.2l0,0c0,0,0,0,0-0.1l0,0c0-0.2,0.2-0.2,0.3-0.2l0,0c0.1,0,0.1,0,0.2,0l0,0c0.2,0.1,0.4,0.3,0.5,0.5l0,0
				c0,0,0.1,0,0.1-0.1l0,0c0.1,0,0.2-0.1,0.2-0.1l0,0l0,0l0,0l0,0c0,0,0,0,0-0.1l0,0c0-0.1,0-0.1,0-0.2l0,0c0,0,0,0,0,0l0,0
				c0,0,0,0,0,0l0,0c0-0.2,0.2-0.9,0.2-1l0,0c0-0.1,0.1-0.1,0.3-0.4l0,0c0,0,0,0,0,0l0,0c-0.2-0.4-0.2-0.7-0.2-1l0,0
				c0-0.5,0.2-1,0.5-1.3l0,0c0-0.1-0.1-1.1-0.1-1.7l0,0c0-0.1,0-0.2,0-0.3l0,0c0-0.3,0.3-1.8,0.6-3.1l0,0c0-0.1,0.1-0.1,0.2-0.1l0,0
				c0.1,0,0.1,0.1,0.1,0.2l0,0c-0.3,1.3-0.6,2.8-0.6,3l0,0c0,0.1,0,0.1,0,0.2l0,0c0,0.4,0,1.1,0.1,1.4l0,0c0.4-0.4,0.9-0.6,0.9-0.6
				l0,0v0c0.1,0,0.1,0,0.2,0.1l0,0c0,0.1,0,0.1-0.1,0.2l0,0c0,0-1.5,0.6-1.4,1.9l0,0c0,0.2,0,0.5,0.2,0.8l0,0c0,0,0,0,0,0l0,0
				c0,0,0,0,0,0l0,0c0,0,0.1-0.1,0.5-0.4l0,0c0.2-0.2,0.5-0.3,0.7-0.3l0,0c0.1,0,0.3,0,0.3,0.1l0,0c0.4-1,0.8-1.3,0.9-1.4l0,0
				c0.1,0,0.2-0.4,0.3-0.6l0,0l-0.1,0c-0.1,0-0.1,0-0.1-0.1l0,0c0,0-0.3-1-0.4-1.6l0,0c0-0.1,0-0.1,0-0.2l0,0c0-0.6,0.6-1.4,0.8-1.5
				l0,0c0.1,0,0.2-0.4,0.2-0.4l0,0c0,0,0,0,0,0l0,0c-0.3-0.4-0.3-0.9-0.3-0.9l0,0c0-0.3-0.1-0.5-0.1-0.7l0,0c0,0,0,0,0-0.1l0,0
				c0,0,0,0-0.1,0l0,0c0,0-0.2-0.1-0.2-0.4l0,0c0,0,0-0.1,0-0.1l0,0c0,0,0,0,0-0.1l0,0c0-0.1,0-0.1,0-0.2l0,0l-1.5-0.7
				c0,0.1-0.1,0.3-0.2,0.4l0,0c0,0-0.2,0.2-0.5,0.4l0,0c-0.2,0.1-0.3,0.1-0.4,0.1l0,0c-0.1,0-0.1,0-0.1,0l0,0l-0.1-0.1
				c0,0-0.1-0.1-0.1-0.2l0,0c0,0-0.4-0.3-0.4-0.9l0,0c-0.9,0-1.6-0.1-1.9-0.2l0,0c0,0.1,0.1,0.2,0.1,0.3l0,0
				c0.1,0.2,0.1,0.4,0.1,0.5l0,0c0,0.1,0,0.2,0,0.3l0,0c0,0-0.1,1.1-0.6,1.3l0,0c-0.1,0-0.3,0.1-0.5,0.1l0,0c-0.6,0-1.4-0.1-1.6-0.4
				l0,0c-0.1-0.2-0.2-0.2-0.6-0.6l0,0c-0.3,0.2-1.7,1.3-1.7,3.7l0,0c0,0.3,0,0.6,0.1,0.9l0,0c0.1,0,0.2,0.1,0.3,0.1l0,0
				c0-0.1,0-0.2,0-0.3l0,0c0-0.2,0-0.5,0.3-0.6l0,0c0,0,0,0,0,0l0,0c0.1-0.1,0.2-0.2,0.3-0.2l0,0c0.1-0.1,0.3-0.4,0.6-0.5l0,0
				c0.1,0,0.3-0.1,0.4-0.3l0,0c0.1-0.1,0.4-0.6,1-0.6l0,0c0,0,0.1,0,0.2,0l0,0c0.5,0.1,1.7,0.1,1.9,0.3l0,0c0.1,0.1,0.5,0.4,0.8,0.5
				l0,0c0.1,0,0.1,0.1,0.1,0.1l0,0c0,0,0.1,0,0.1,0l0,0l-0.1-2.4c0-0.1,0.1-0.1,0.1-0.1l0,0c0.1,0,0.1,0.1,0.1,0.1l0,0l0.1,2.4
				c0.2,0.1,0.4,0.2,0.5,0.5l0,0c0.1,0.1,0.2,0.2,0.2,0.4l0,0c0,0.1,0,0.2-0.1,0.3l0,0c0.2,0.1,0.5,0.3,0.6,0.6l0,0
				c0,0.1,0.1,0.3,0.1,0.4l0,0c0,0.3-0.1,0.6-0.5,0.7l0,0c0,0-0.4,0-0.6,0.1l0,0c-0.1,0.4-0.3,0.6-0.4,0.7l0,0c0,0.2,0,0.7,0,0.9
				l0,0c0,0.3-0.3,0.3-0.4,0.3l0,0c0,0-0.1,0-0.1,0l0,0c-0.1,0.1-0.2,0.3-0.3,0.3l0,0c-0.1,0-0.2,0.1-0.4,0.2l0,0
				c0,0-0.1,0.1-0.3,0.2l0,0c-0.1,0-0.2,0-0.3,0l0,0c-0.5,0-1-0.2-1.2-0.5l0,0c-0.2-0.3-0.4-0.6-0.4-0.6l0,0v0c0-0.1,0-0.1,0.1-0.2
				l0,0c0.1,0,0.1,0,0.2,0.1l0,0c0,0,0.2,0.4,0.4,0.6l0,0c0.1,0.2,0.6,0.4,1,0.4l0,0c0.1,0,0.2,0,0.2,0l0,0c0.1,0,0.1-0.2,0.4-0.2
				l0,0c0,0,0,0,0,0l0,0l-0.2-0.1c-0.1,0-0.1-0.1,0-0.2l0,0c0-0.1,0.1-0.1,0.2,0l0,0l0.2,0.1c0,0,0,0,0,0.1l0,0c0,0,0.1,0,0.1,0l0,0
				c0,0,0.1-0.1,0.1-0.1l0,0c-0.1,0-0.2-0.1-0.3-0.3l0,0h0v0c0,0,0,0,0-0.1l0,0c0.1-0.1,0.1,0,0.2,0l0,0c0,0,0.1,0.1,0.1,0.1l0,0
				l0,0c0,0,0.1,0,0.1,0l0,0c0.1,0,0.1,0,0.1,0.1l0,0c0,0,0,0,0,0l0,0c0,0,0.1,0,0.2,0l0,0c0.1,0,0.1,0,0.1-0.1l0,0
				c0-0.3,0-0.9,0-0.9l0,0l0.1-0.1c0,0,0.3-0.2,0.4-0.6l0,0c0,0-0.1-0.2-0.1-0.2l0,0c0,0-0.1,0-0.1,0l0,0c-0.1,0-0.1,0-0.2,0.1l0,0
				c-0.2,0.1-0.6,0.4-0.8,0.5l0,0c-0.1,0-0.3,0.1-0.3,0.1l0,0l0,0c0,0.1-0.2,0.3-0.7,0.6l0,0L57.9,29c0.1,0.5,0.2,1,0.2,1l0,0
				c0,0,0.1,0.4,0.1,0.6l0,0c0,0,0,0,0,0l0,0c0,0.5-0.3,2.3-1.8,2.5l0,0c0,0,0,0,0,0l0,0c-0.3,0.5-1.1,1-2,1.2l0,0
				c0.1,0.3,0.5,1.1,0.6,1.5l0,0c0,0.2,0.3,1.3,0.6,2.1l0,0c0.2,0.5,0.3,1,0.3,1l0,0c0,0.1,0.3,0.5,0.3,1l0,0c0,0.1,0,0.2,0,0.3l0,0
				c0,0,0,0,0,0l0,0c0,0,0,0,0,0l0,0c0,0,0.3,0.3,0.6,0.8l0,0c0.1,0.3,0.2,0.6,0.2,0.9l0,0c0,0.4-0.1,0.8-0.1,1l0,0
				c0,0.4-0.3,0.5-0.8,1l0,0c-0.3,0.3-0.7,0.4-1.1,0.4l0,0c-0.4,0-0.8-0.1-1.1-0.2l0,0c-0.5-0.1-1.7-0.4-2.3-0.5l0,0
				c-0.7-0.1-2.1-0.9-2.4-1l0,0c-0.4-0.2-1.9-1.5-2.1-1.7l0,0c-0.1-0.1-0.5-0.2-0.7-0.3l0,0v0c0,0,0,0,0,0l0,0
				c-0.2,0-1.2,0.8-1.3,0.8l0,0c-0.1,0.1-0.2,0.2-0.2,0.3l0,0c0,0,0,0,0,0l0,0c0,0,0,0.1,0.1,0.2l0,0c0,0,0.1,0,0.2,0.1l0,0
				c0.1,0,0.3,0.1,0.4,0.1l0,0c0.1,0,0.1,0.1,0.1,0.2l0,0c0,0.2-0.2,0.4-0.3,0.5l0,0l0,0v0l0,0c0,0,0,0.1,0,0.1l0,0
				c-0.1,0.3-0.3,0.2-0.3,0.3l0,0c0,0,0,0-0.1,0l0,0c-0.1,0-0.2,0-0.2,0l0,0l0-0.1l0,0.1h0c-0.1,0-0.3,0-0.4,0l0,0
				c-0.1-0.1-0.2-0.1-0.3-0.3l0,0l0,0c0,0,0,0,0,0l0,0c0,0,0-0.1-0.1-0.1l0,0c-0.1-0.1-0.1-0.2-0.2-0.4l0,0
				c-0.2-0.3-0.3-0.6-0.3-0.7l0,0c0,0,0-0.1,0-0.1l0,0c0-0.4,0.4-1.3,0.6-1.8l0,0c0.2-0.4,0.2-0.9,0.2-1.2l0,0
				c0-0.2,0.2-0.4,0.2-0.5l0,0c-0.5-0.6-0.6-1.3-0.6-1.8l0,0c0-0.3,0-0.6,0.1-0.6l0,0c0,0,0,0,0,0l0,0c-0.3-0.3-0.4-0.9-0.4-1.1l0,0
				c-0.3,0.2-0.8,0.5-0.8,0.5l0,0l-0.1,0h0c-0.9,0-1.1-0.6-1.1-1.2l0,0c0-0.4,0.1-0.8,0.1-1l0,0c0.1-0.4,0.4-0.8,0.8-1l0,0
				c-0.2,0-0.4-0.1-0.4-0.1l0,0c-0.1-0.1-0.3-0.2-0.4-0.3l0,0c-0.2-0.2-0.4-0.2-1-0.2l0,0c-0.1,0-0.2,0-0.2-0.1l0,0
				c-0.1,0-0.4-0.1-0.7-0.2l0,0c-0.3-0.1-0.6-0.1-0.8-0.4l0,0c0,0,0,0,0-0.1l0,0c0,0-0.1,0-0.1,0l0,0L38,29.8
				c-0.2-0.2-0.2-0.3-0.2-0.5l0,0c0-0.3,0.2-0.4,0.2-0.4l0,0c0,0,1.2-1.2,1.7-2.3l0,0c0.3-0.9,0.4-3.1,0.4-3.1l0,0
				c0.2-1.8,0.8-2.4,1.1-2.6l0,0c-0.3-0.4-0.4-0.8-0.4-1.1l0,0c0-0.3,0.1-0.4,0.2-0.5l0,0c-0.2-0.2-0.3-0.3-0.4-0.4l0,0
				c-0.2-0.2-0.3-0.6-0.3-0.9l0,0c0-0.2,0-0.3,0.1-0.4l0,0c0.2-0.2,0.8-0.9,0.8-0.9l0,0c0.9-1.6,1.9-2,2-2l0,0c0-0.1,0-0.2,0.1-0.3
				l0,0c0.2-0.7,0.8-0.9,1.1-1.1l0,0c0.3-0.2,0.7-1,1.2-1.3l0,0c0.5-0.3,1.6-0.5,2.4-0.7l0,0c0.3-0.1,0.7-0.1,1.1-0.1l0,0
				c0.7,0,1.4,0.1,1.4,0.1l0,0c0,0,0,0,0.1,0l0,0c0,0,0,0,0.1,0l0,0c0.2,0,0.7,0,1.2,0.3l0,0c0-0.3,0.3-0.5,0.4-0.6l0,0
				c0,0,0.1,0,0.2,0l0,0c0.1-0.5,1-0.6,1.3-0.7l0,0c0.1-0.5,0.8-0.6,1.3-0.6l0,0c0.5,0,0.9,0.1,0.9,0.1l0,0c0.1,0,0.2,0,0.3,0l0,0
				c0.8,0,1.5,0.5,1.7,0.6l0,0c0,0,0.1,0,0.1,0l0,0c0.7,0,1,0.6,1.1,0.8l0,0c0.4,0.2,0.5,0.6,0.5,0.9l0,0c0,0.3-0.1,0.6-0.1,0.6l0,0
				c0,0.1-0.1,0.4-0.5,0.4l0,0c0,0-0.1,0-0.1,0l0,0c-0.1,0-0.2,0-0.3-0.1l0,0c0,0-0.1,0.1-0.1,0.2l0,0c-0.1,0.2-0.5,1.1-0.6,1.5l0,0
				c0,0.2-0.1,0.3-0.3,0.3l0,0c-0.1,0-0.2,0-0.2-0.1l0,0c0,0-0.1,0.1-0.2,0.1l0,0c-0.1,0.1-0.3,0.1-0.3,0.1l0,0
				c0,0.1-0.1,0.1-0.2,0.2l0,0c0,0-0.1,0.1-0.1,0.1l0,0c0,0.1-0.1,0.3-0.3,0.3l0,0c0,0,0,0,0,0l0,0c-0.3,0-0.7-0.3-0.7-0.3l0,0
				L55.2,15c0,0.2,0,0.6-0.3,1l0,0c0,0,0,0,0,0.1l0,0c0,0,0,0,0,0.1l0,0c0,0.2,0,0.5,0,0.6l0,0c-0.1,0.1-0.1,0.1-0.2,0.2l0,0
				c0.2,0.1,0.8,0.5,0.9,0.9l0,0c0,0,0,0,0,0l0,0l0.3,0.1l0.3,0c0,0,0.7,0.1,0.7,0.1l0,0c0.1,0,0.7,0.1,0.7,0.1l0,0l0.1,0.1
				c0,0,0,0.1,0,0.1l0,0c-0.1,0.3-0.4,0.4-0.4,0.4l0,0l-0.4,0.1l0.1,0.2c0,0.1,0.1,0.2,0.1,0.2l0,0c0,0.2-0.2,0.4-0.3,0.5l0,0
				c0,0.1,0,0.1,0,0.2l0,0c0,0.5-0.3,0.7-0.3,0.7l0,0c-0.2,0.1-0.4,0.2-0.7,0.2l0,0c-0.4,0-0.7-0.2-1-0.3l0,0c0,0,0,0,0,0l0,0
				c0,0-1.1,0-1.3-0.1l0,0c-1.3-0.1-1.8-1.3-1.8-1.3l0,0c-0.1-0.1-0.1-0.3-0.1-0.4l0,0c0-0.1,0-0.2,0-0.3l0,0l-0.8,0.4
				c0,0,0,0,0,0.1l0,0c0.2,0.4,0.8,1.5,0.8,2.4l0,0c0,0,0,0,0,0l0,0c0,0,0,0.1,0,0.1l0,0c0,0.8,0.1,1.6,0.3,2.2l0,0
				c0.2,0.6,0.5,1.2,0.7,1.4l0,0l0,0c0.2,0,0.5,0.1,0.7,0.3l0,0c0.1,0.1,0.5,0.3,0.6,0.3l0,0c0.1,0,0.2,0.1,0.3,0.2l0,0
				c0.1,0,0.7,0.2,1.3,0.4l0,0c0-0.3,0-0.5,0-0.8l0,0c0-2.4,1.3-3.6,1.7-3.9l0,0c-0.1-0.1-0.1-0.2-0.1-0.3l0,0
				c0-0.5,0.7-1.2,0.8-1.3l0,0c0-0.1,0,0,0.1-0.5l0,0c0.1-0.5,0.6-2,0.6-2l0,0c0.2-0.3,0.5-0.5,0.5-0.5l0,0c0.2-0.5,0.7-0.6,0.9-0.6
				l0,0c0.1,0,0.1,0,0.1,0l0,0c0.1-0.1,0.3-0.1,0.4-0.1l0,0c0.1,0,0.1,0,0.2,0l0,0c0.1-0.1,0.6-0.2,0.8-0.2l0,0c0,0,0,0,0.1,0l0,0
				c0,0,0.5,0.1,0.6,0.3l0,0c0,0,0.4,0.2,0.5,0.4l0,0c-0.1,0,0.4,0.1,0.4,0.5l0,0c0,0,0,0,0,0l0,0c0.1,0.1,0.2,0.2,0.2,0.3l0,0
				c0.1,0,0.2,0.1,0.3,0.3l0,0c0.1-0.3,0.4-0.8,0.4-0.9l0,0c0,0,0.3-0.5,0.3-1.5l0,0c0-0.5-0.1-1.1-0.4-1.7l0,0v0
				c-0.1,0-0.4,0.3-0.4,0.4l0,0v0c0,0,0,0,0,0l0,0c-0.1,0.1-0.2,0.2-0.3,0.2l0,0c-0.2,0.1-0.5,0.2-0.6,0.2l0,0
				c-0.1,0.3-0.5,0.3-0.8,0.5l0,0c-0.2,0.1-0.4,0.2-0.6,0.2l0,0c-0.4,0-0.6-0.2-0.7-0.2l0,0c0,0-0.8-0.7-0.9-0.9l0,0c0,0,0,0,0,0
				l0,0c0,0.1-0.2,0.2-0.4,0.1l0,0h0c-0.4,0-0.6-0.2-0.6-0.3l0,0c0,0,0,0,0-0.1l0,0c0.1-0.3,0.5-0.3,0.5-0.4l0,0c0,0,0.5-0.3,1-0.3
				l0,0c0,0,0.1,0,0.1,0l0,0c0-0.2,0-0.7,0.3-1l0,0c0.1-0.1,0.4-0.3,0.7-0.4l0,0c0-0.1-0.1-0.3-0.1-0.6l0,0c0-0.3,0.1-0.7,0.4-1.1
				l0,0c0.7-0.8,0.9-1,1.3-1l0,0C62.9,9,63.3,9,63.4,9l0,0c0.1,0,0.5-0.4,1.1-0.4l0,0c0.2,0,0.5,0.1,0.8,0.2l0,0
				c0.2-0.2,0.4-0.5,0.5-0.5l0,0c0.2-0.2,1.1-0.3,1.1-0.4l0,0c0,0,0.1,0,0.2,0l0,0c0.3,0,1,0.1,1.5,0.5l0,0c0.2,0,0.7,0.1,0.9,0.5
				l0,0c0.2,0.4,0.5,1,0.5,1.3l0,0c0,0,0,0,0,0.1l0,0c0,0.2-0.1,0.4-0.1,0.5l0,0h-0.1l0.1,0c0,0,0,0.1,0,0.1l0,0
				c0,0.2,0,0.6-0.1,0.8l0,0c0.2,0.1,1.9,0.8,3,2.6l0,0c0,0,0.4,0.7,0.4,1.2l0,0c0,0.1,0,0.2,0,0.2l0,0c0.5,0.4,0.8,0.8,0.8,0.9l0,0
				c0.4-0.1,0.8-0.1,1.1-0.1l0,0c0.4,0,0.8,0,1.2,0.1l0,0c0,0,0,0,0,0l0,0c0.1,0,0.2,0,0.3,0l0,0c0.4,0,0.7,0.1,0.7,0.1l0,0
				c0,0,0.1,0,0.3,0l0,0c0.1,0,0.2,0,0.3,0l0,0c0.5,0,1.1,0.1,1.9,0.6l0,0l0.9-0.3c0.1,0,0.3,0,0.4,0l0,0c1.4,0,2.1,1.3,2.1,2.1l0,0
				c0,0.4-0.2,0.9-0.5,1.2l0,0c0,0,0,0,0,0l0,0c0.5,1.3,0.9,3.1,1.1,5.6l0,0c0.1,0.8,0.1,1.7,0.1,2.5l0,0c0,3.7-0.9,6.9-1.2,8.1l0,0
				c-0.1,0.3-0.1,0.7-0.1,1l0,0c0,1.3,0.5,2.7,1,2.8l0,0c0.1,0,0.1,0.1,0.1,0.1l0,0c0,0.1-0.1,0.1-0.1,0.1l0,0c0,0-2.3,0.3-3.6,0.3
				l0,0c-0.1,0-0.2,0-0.3,0l0,0c-0.5,0-0.5,0-1.1,0l0,0c-1.7-0.1-3.3-0.1-3.9-0.3l0,0c0,0.1,0,0.1,0,0.1l0,0c0,0,0.6,0.8,0.6,1.2
				l0,0l0,0h0c0,0,0,0,0,0l0,0c0,0,0,0,0,0l0,0c0,0.3-0.4,0.6-0.5,0.7l0,0c-0.2,0.1-0.4,0.2-0.6,0.3l0,0c-0.1,0.1-0.2,0.1-0.4,0.1
				l0,0c-0.1,0-0.2,0-0.3,0l0,0c-0.2,0-0.5-0.1-0.6-0.2l0,0c-0.1,0-0.3,0.1-0.6,0.1l0,0c-0.1,0-0.1,0-0.2,0l0,0
				c-0.4-0.1-0.4-0.5-0.5-0.9l0,0c0,0,0-0.1,0-0.1l0,0c0-0.1,0-0.2,0.1-0.4l0,0c0.1-0.3,0.2-0.5,0.2-0.6l0,0c0-0.1,0.1-0.3,0.1-0.5
				l0,0c0,0,0,0,0,0l0,0c-0.6-0.1-0.8-0.3-1.3-1.8l0,0l-0.3-1c-0.2-0.6-0.3-1.2-0.3-1.6l0,0c0-1,0.4-1.7,0.4-1.9l0,0
				c0.2-0.4,1-2,1-2l0,0l0.5-1.1l0-0.1c-0.2,0-0.6,0-1.1,0.1l0,0c0,0,0,0,0,0l0,0c-0.2,2.1-0.7,2.9-0.7,2.9l0,0c0,0-1,1.5-1.2,1.8
				l0,0c-0.1,0.1-0.1,0.4-0.1,0.6l0,0c0,0.1,0,0.2,0,0.3l0,0l0,0h0c0,0,0,0,0,0l0,0c0,0,0,0,0,0l0,0c0,0.2-0.1,0.5-0.1,0.5l0,0
				c0,0,0,0,0,0.1l0,0c0,0.2,0.1,0.5,0.3,0.6l0,0c0.1,0.2,0.4,0.3,0.5,0.6l0,0c0,0,0,0.1,0,0.1l0,0c0,0.3-0.3,0.6-0.6,0.7l0,0
				c-0.2,0.1-0.6,0.1-1,0.1l0,0c-0.3,0-0.6,0-0.8-0.1l0,0c-0.5-0.1-0.6-0.5-0.6-0.7l0,0c0-0.1,0-0.1,0-0.1l0,0c0,0,0.2-0.8,0.3-0.9
				l0,0c0,0,0-0.2,0-0.4l0,0c0-0.1,0-0.3,0-0.4l0,0c0,0,0-0.1,0-0.1l0,0c0-0.3,0.3-0.9,0.5-1.2l0,0c0.1-0.2,0.2-0.6,0.2-0.9l0,0
				c0-0.2,0-0.3,0-0.4l0,0c0,0,0-0.1,0-0.2l0,0c0-0.4,0-1.4,0-2l0,0c0,0,0,0,0,0l0,0c-0.9,1.7-2.3,3.4-2.3,3.5l0,0
				c0,0.1-0.1,0.2-0.1,0.4l0,0c0,0.2,0,0.6,0.2,1.2l0,0c0,0.2,0.1,0.3,0.1,0.4l0,0c0,0.5-0.2,0.9-0.4,1.1l0,0c0,0,0,0,0,0l0,0
				l0.5,3.1l0.7-0.2l4.3,0.9c0.1,0,0.1,0.1,0.1,0.1l0,0c0,0,0,0,0,0l0,0v0l0,0v1.1c0,0.1,0,0.1-0.1,0.1l0,0L63.1,45.7L63.1,45.7
				L63.1,45.7z M63.2,45.4l7.2-2.1v-0.8l-7.2,2.1L63.2,45.4L63.2,45.4z M59.2,44.1l3.7,1.3l0-0.8l-3.7-1.2L59.2,44.1L59.2,44.1z
				 M63.1,44.3l6.9-2l-3.7-0.8l-0.6,0.1l0.2,1.1c0,0.1,0,0.1-0.1,0.1l0,0c-0.1,0-0.1,0-0.2-0.1l0,0l-0.4-1.1l-1.5,0.4l-0.5,1.3
				c0,0.1-0.1,0.1-0.2,0.1l0,0c-0.1,0-0.1-0.1-0.1-0.2l0,0l0.2-1.1l-3.6,0.8L63.1,44.3L63.1,44.3z M56.1,43.7
				c0.5-0.6,0.7-0.6,0.7-0.9l0,0c0-0.2,0.1-0.6,0.1-1l0,0c0-0.3,0-0.6-0.1-0.8l0,0c-0.2-0.3-0.4-0.6-0.5-0.7l0,0
				c0,0.1-0.1,0.1-0.1,0.2l0,0c-0.4,0.9-0.6,2-2.8,2l0,0c0,0-0.1,0-0.1,0l0,0c0.4,0.2,0.9,0.4,1,0.5l0,0c0.1,0.1,0.1,0.1,0,0.2l0,0
				c-0.1,0.1-0.1,0.1-0.2,0l0,0c-0.1-0.1-1.1-0.6-1.6-0.8l0,0c-0.1-0.1-0.3-0.1-0.3-0.1l0,0c-0.3-0.1-3-1.2-4.2-1.8l0,0
				c-1.2-0.6-2.2-1.6-3.2-2.5l0,0c-0.1,0.1-0.2,0.2-0.2,0.3l0,0c0,0.3,0,0.8-0.2,1.3l0,0c-0.2,0.4-0.6,1.5-0.6,1.7l0,0h0h0h0h0l0,0
				c0,0.2,0.6,1.1,0.6,1.3l0,0l0,0c0,0,0,0,0,0l0,0c0,0,0.1,0.1,0.1,0.1l0,0l0,0l0,0c0,0,0.2,0,0.3,0l0,0c0,0,0,0,0,0l0,0
				c0,0,0,0,0,0l0,0c0.1,0,0.2,0,0.2,0l0,0c0,0,0,0,0,0l0,0c0,0,0.1,0,0.1,0l0,0c0-0.1,0-0.2,0.1-0.3l0,0c0,0,0,0,0,0l0,0
				c0,0,0.1-0.1,0.1-0.1l0,0c0,0,0-0.1,0.1-0.1l0,0c-0.1,0-0.2-0.1-0.3-0.1l0,0c-0.1,0-0.3,0-0.4-0.2l0,0c0-0.1-0.1-0.2-0.1-0.3l0,0
				c0,0,0-0.1,0-0.1l0,0c0.1-0.2,0.2-0.3,0.3-0.4l0,0c0.1-0.1,1.1-0.8,1.5-0.9l0,0c0,0,0,0,0,0l0,0c0,0,0,0,0,0l0,0
				c0.2,0,0.6,0.1,0.9,0.3l0,0c0.2,0.2,1.8,1.5,2,1.6l0,0c0.3,0.2,1.7,1,2.3,1l0,0c0.7,0.1,1.9,0.3,2.4,0.5l0,0
				c0.2,0.1,0.6,0.2,1,0.2l0,0C55.5,44,55.9,43.9,56.1,43.7L56.1,43.7z M72.9,42.4c0,0,0.4,0.1,0.6,0.2l0,0c0.1,0,0.2,0,0.3,0l0,0
				c0.1,0,0.2,0,0.2,0l0,0c0.2-0.1,0.5-0.2,0.6-0.3l0,0c0.1-0.1,0.5-0.4,0.4-0.5l0,0c0,0,0,0,0,0l0,0h0c0-0.1-0.6-1-0.6-1.1l0,0
				c0,0,0-0.1-0.1-0.3l0,0c-0.1-0.2-0.1-0.6-0.1-0.9l0,0c0-0.2,0-0.4,0.1-0.6l0,0c0.3-0.6,3.1-4.5,3.1-7.4l0,0c0,0,0-0.1,0-0.1l0,0
				c-0.1,0.1-0.2,0.2-0.2,0.2l0,0c-0.5,0.7-2.3,2.2-3.6,3.2l0,0c0,0,0,0,0,0.1l0,0c0,0-0.2,2.5-0.6,3.2l0,0
				c-0.3,0.7-0.5,1.3-0.5,1.5l0,0h-0.1l0.1,0l0,0c0,0.3-0.2,1.1-0.3,1.3l0,0c-0.1,0.1-0.2,0.3-0.2,0.6l0,0c0,0.1,0,0.2,0,0.3l0,0
				c0,0,0,0.1,0,0.1l0,0c0,0.4,0.1,0.6,0.2,0.6l0,0c0,0,0.1,0,0.1,0l0,0C72.6,42.4,72.9,42.4,72.9,42.4L72.9,42.4L72.9,42.4
				L72.9,42.4z M52.5,42.3l0.6,0.1c0.1,0,0.2,0,0.3,0l0,0c2.1,0,2.1-0.9,2.6-1.8l0,0c0.1-0.1,0.1-0.2,0.1-0.3l0,0c0,0,0-0.1,0-0.1
				l0,0c0-0.1,0-0.2,0-0.3l0,0c0-0.5-0.2-0.7-0.3-0.9l0,0c0-0.1-0.2-0.5-0.3-1l0,0c-0.3-0.8-0.6-1.8-0.6-2.1l0,0
				c0-0.3-0.5-1.4-0.6-1.5l0,0c-0.7,0-1.1-0.4-1.2-0.5l0,0c-0.1,0.1-0.1,0.2-0.1,0.2l0,0l-0.4,0.8c0,0-0.5,1.3-0.6,1.5l0,0h0
				c0,0.1,0.3,0.2,0.5,0.2l0,0c0.2,0.1,0.7,0.4,0.8,0.4l0,0c0.1,0.1,0.4,0.3,0.4,0.5l0,0c0,0,0.1,0.1,0.1,0.1l0,0
				c0.2,0.1,0.4,0.3,0.4,0.3l0,0c0,0,0.6,0.7,0.6,0.8l0,0c0.1,0.1,0.1,0.1,0.1,0.3l0,0c0,0,0,0.1,0,0.1l0,0
				c-0.1,0.1-0.2,0.1-0.3,0.1l0,0l-0.1,0l-0.7-0.5l-0.1,0c0.1,0.2,0.2,0.4,0.2,0.4l0,0c0,0,0.2,0.4,0.3,0.7l0,0c0,0.1,0,0.1,0,0.2
				l0,0c0,0.2-0.2,0.3-0.3,0.3l0,0c0,0,0,0-0.1,0l0,0c-0.2,0-0.3-0.2-0.3-0.2l0,0l-0.3-0.5l-0.1-0.1l0.1,0.4c0,0,0.1,0.4,0.1,0.5
				l0,0c0,0,0,0.1,0,0.1l0,0c0,0.2-0.1,0.2-0.2,0.3l0,0c0,0-0.1,0-0.1,0l0,0c-0.1,0-0.2-0.1-0.3-0.1l0,0l-0.1-0.1l-0.4-0.9
				c-0.1,0.2-0.4,0.3-0.5,0.3l0,0c-0.1,0-0.1,0-0.2,0.1l0,0C51.6,40,51.5,40,51.5,40l0,0c-0.1,0-0.1,0-0.1,0l0,0
				c-0.1-0.1-0.2-0.2-0.2-0.3l0,0c0-0.1,0-0.2,0.1-0.2l0,0c0.1-0.1,0.2-0.2,0.3-0.2l0,0c0-0.1-0.1-0.2-0.1-0.3l0,0c0,0,0,0,0,0l0,0
				c0,0-0.1-0.1-0.1-0.1l0,0c-0.1-0.1-0.2-0.1-0.2-0.2l0,0c0,0-0.5-0.4-0.5-0.4l0,0c-0.4-0.3-0.5-1-0.6-1.8l0,0
				c-0.5,0.3-1.1,0.4-1.8,0.4l0,0c-0.5,0-1.1-0.1-1.6-0.1l0,0c-1.1-0.1-2-0.6-2.5-1l0,0c0,0.1,0,0.2,0,0.4l0,0
				c0,0.5,0.1,1.2,0.6,1.7l0,0c0,0,0,0,0.1,0.1l0,0c1.1,0.9,2,1.9,3.2,2.5l0,0c1.2,0.6,3.9,1.7,4.2,1.8l0,0
				C52.2,42.2,52.3,42.2,52.5,42.3L52.5,42.3C52.5,42.3,52.5,42.3,52.5,42.3L52.5,42.3C52.5,42.3,52.5,42.3,52.5,42.3L52.5,42.3z
				 M63.7,40.3L63.5,42l0,0l0.9-2.4c0-0.1,0.1-0.1,0.1-0.1l0,0c0.1,0,0.1,0,0.1,0.1l0,0l0.7,2l0,0L65,38.3l0-0.3
				c-0.1,0-0.3,0.1-0.5,0.3l0,0c-0.2,0.3-0.4,1.1-0.5,1.4l0,0C63.9,39.9,63.8,40.1,63.7,40.3L63.7,40.3
				C63.7,40.3,63.7,40.3,63.7,40.3L63.7,40.3z M63.8,41.9l1.3-0.3L64.6,40L63.8,41.9L63.8,41.9z M78.5,40.4c0.5,0,0.6,0,1.1,0l0,0
				c0.1,0,0.2,0,0.3,0l0,0c0.1,0,0.3,0,0.4,0l0,0c-0.7-0.4-2-1.5-2-4.2l0,0c0-0.1,0.1-0.1,0.1-0.1l0,0c0.1,0,0.1,0.1,0.1,0.1l0,0
				c0.1,3.7,2.4,4.1,2.4,4.1l0,0c0,0,0,0,0,0l0,0c0.8,0,1.7-0.1,2.2-0.2l0,0c-0.5-0.5-0.8-1.7-0.8-2.8l0,0c0-0.4,0-0.7,0.1-1.1l0,0
				c0.3-1.3,1.2-4.4,1.2-8.1l0,0c0-0.8,0-1.6-0.1-2.4l0,0c-0.3-2.4-0.6-4.1-1.1-5.4l0,0c-0.2,0.3-0.5,0.5-0.5,0.5l0,0l-1.1,0.9
				c-0.4,0.6-1.6,1.2-1.9,1.5l0,0c-0.3,0.2-0.5,0.3-0.8,0.3l0,0v0l0,0l-1,3.9c0,0.1-0.1,0.1-0.2,0.1l0,0c-0.1,0-0.1-0.1-0.1-0.2l0,0
				l1-3.8c-0.1,0-0.1,0-0.2,0l0,0c-0.1,0-0.3,0-0.4,0l0,0c-3.9,4.6-4.8,10.3-5,12l0,0c0.1-0.1,0.2-0.2,0.2-0.3l0,0
				c0.2-0.2,0.5-0.4,1-0.8l0,0c1.3-1,3.2-2.6,3.6-3.2l0,0c0.1-0.2,0.3-0.3,0.5-0.4l0,0c0.5-0.4,1.2-0.4,1.6-0.4l0,0
				c0.2,0,0.3,0,0.3,0l0,0h0c0.1,0,0.1,0.1,0.1,0.1l0,0c0,0.1-0.1,0.1-0.1,0.1l0,0c0,0-0.1,0-0.3,0l0,0c-0.3,0-0.9,0.1-1.3,0.3l0,0
				c0,0.1,0,0.2,0,0.3l0,0c0,3-2.9,7-3.1,7.5l0,0c-0.1,0.1-0.1,0.3-0.1,0.5l0,0c0,0.3,0,0.5,0.1,0.8l0,0c0,0,0,0,0.1,0l0,0l0,0
				c0,0,0,0,0.1,0l0,0c0.1,0,0.2,0,0.3,0l0,0c0.2,0,0.5,0,0.9,0.1l0,0c0.3,0,0.7,0,1.1,0.1l0,0c-0.8-0.5-1.5-1.2-1.5-1.3l0,0h0
				c0-0.1,0-0.1,0-0.2l0,0c0.1,0,0.1,0,0.2,0l0,0c0,0,1.1,1.3,2,1.5l0,0c0,0,0,0,0,0l0,0C77.9,40.4,78.2,40.4,78.5,40.4L78.5,40.4z
				 M53,40.2C53.1,40.2,53.1,40.2,53,40.2L53,40.2C53.1,40.2,53.1,40.2,53,40.2L53,40.2c0.1-0.1-0.1-0.5-0.1-0.5l0,0l-0.2-0.5
				l-0.1-0.3l-0.1-0.4c0,0,0-0.1,0-0.2l0,0c0,0,0,0,0,0l0,0c0,0,0,0,0,0l0,0c0.1-0.1,0.1-0.1,0.2,0l0,0l0,0c0,0,0,0,0,0l0,0l0.6,0.8
				l0.3,0.5c0,0,0.1,0.1,0.1,0.1l0,0c0.1,0,0.1,0,0.1-0.1l0,0c0,0,0,0,0-0.1l0,0c-0.1-0.2-0.3-0.6-0.3-0.6l0,0c0,0-0.3-0.5-0.5-0.7
				l0,0c-0.1,0-0.1-0.1,0-0.2l0,0c0-0.1,0.1-0.1,0.2-0.1l0,0l0.6,0.2l0.7,0.5c0,0,0,0,0,0l0,0c0,0,0-0.1,0-0.1l0,0
				C54.5,38.7,54,38,54,38l0,0c0,0-0.3-0.2-0.4-0.2l0,0c0,0-0.1-0.1-0.2-0.2l0,0c0,0-0.3-0.3-0.4-0.4l0,0c0,0-0.6-0.4-0.7-0.4l0,0
				c-0.1-0.1-0.6,0-0.7-0.5l0,0c0,0,0,0,0,0l0,0c0-0.3,0.6-1.6,0.6-1.6l0,0l0.4-0.8c0,0,0.1-0.1,0.2-0.3l0,0c0.2-0.4,0.5-1,0.5-1.2
				l0,0c0-0.1,0.1-0.1,0.1-0.1l0,0c0,0,0.9-0.2,0.9-0.5l0,0c0-0.1,0-0.2,0-0.3l0,0c0-0.3-0.2-0.9-2.3-1.7l0,0
				c-0.2,0.1-0.8,0.6-1.1,1.3l0,0c-0.2,0.4-0.4,0.9-0.5,1.5l0,0c-0.1,0.5-0.2,1.1-0.2,1.7l0,0c0,0.1,0,0.1,0,0.2l0,0
				c0,0.6,0,1.1,0.1,1.7l0,0c0,0,0,0,0,0.1l0,0c0.1,0.9,0.2,1.6,0.5,1.8l0,0c0,0,0.4,0.3,0.5,0.4l0,0c0,0,0.4,0.2,0.5,0.4l0,0
				c0,0.1,0.1,0.3,0.1,0.4l0,0c0,0,0,0.1,0,0.1l0,0c-0.1,0.1-0.2,0.1-0.3,0.2l0,0c0,0,0,0,0,0l0,0c0,0,0,0.1,0,0.1l0,0c0,0,0,0,0,0
				l0,0c0.1-0.1,0.2-0.2,0.3-0.2l0,0c0,0,0.1,0,0.2-0.1l0,0c0.1-0.1,0.1-0.1,0.1-0.1l0,0c0-0.1,0-0.2,0-0.3l0,0c0,0,0,0,0,0l0,0
				c0,0,0-0.1,0.1-0.1l0,0c0,0,0,0,0,0l0,0c0,0,0,0,0,0l0,0c0,0,0.1,0,0.1,0l0,0c0,0,0,0,0,0l0,0c0,0,0,0,0,0l0,0c0,0,0,0,0.1,0.1
				l0,0c0,0,0,0,0,0l0,0L53,40.2C53,40.2,53,40.2,53,40.2L53,40.2z M63.4,39.9c0,0.1,0,0.2,0.1,0.2l0,0c0.1-0.1,0.1-0.3,0.2-0.4l0,0
				c0.1-0.3,0.3-1.1,0.5-1.5l0,0c0.3-0.4,0.8-0.5,0.8-0.5l0,0c0.1,0,0.1,0,0.1,0.1l0,0l0,0.2c0.1-0.2,0.2-0.4,0.2-0.7l0,0
				c0-0.1,0-0.2,0-0.4l0,0c-0.1-0.6-0.2-1-0.2-1.2l0,0c0-0.2,0-0.4,0.1-0.5l0,0c0.1-0.3,1.4-1.8,2.4-3.5l0,0
				c0.1-0.2,0.2-0.4,0.3-0.5l0,0c0.3-0.7,0.6-1.4,0.6-1.9l0,0c0-0.1,0-0.1,0-0.2l0,0l0-0.1l0.8-1.6c-0.2,0.1-0.3,0.1-0.3,0.1l0,0
				l-2.5,0.3c0,0,0,0,0,0v0c0,0-0.2,0.6-0.4,0.8l0,0c-0.1,0.1-0.5,0.3-0.9,1.4l0,0c-0.2,0.5-0.3,1.2-0.5,2.2l0,0
				c0,0-0.2,0.8-0.5,1.6l0,0c-0.2,0.7-0.4,1.4-0.6,1.7l0,0C63.4,36,63,36.5,63,36.8l0,0c0,0.1,0,0.3,0,0.4l0,0c0,0.2,0,0.3,0.1,0.4
				l0,0c0,0,0,0,0,0.1l0,0c0,0,0,0,0,0l0,0c0,0.1,0.1,0.1,0.2,0.2l0,0l0.1,0.1L63.4,39.9L63.4,39.9z M72.8,23.8
				c0.1,0,0.1,0.1,0.1,0.1l0,0c0,0.3-0.4,1.6-0.4,1.9l0,0c0,0.1,0,0.2,0,0.4l0,0c0,0.1,0,0.3,0.1,0.5l0,0c0.1,0.4,0.3,1.2,0.3,1.6
				l0,0c0,0,0,0,0,0.1l0,0c0,0.4-0.2,1.4-0.3,2l0,0c0,0.1,0,0.2-0.1,0.3l0,0L72.4,31L71.9,32c0,0-0.8,1.6-1,2l0,0
				c-0.1,0.3-0.4,0.9-0.4,1.8l0,0c0,0.4,0.1,1,0.3,1.6l0,0l0.3,1c0.5,1.5,0.6,1.5,1.1,1.6l0,0c0,0,0,0,0.1,0l0,0
				c0-0.2,0.1-0.4,0.1-0.5l0,0c0,0,0,0,0,0l0,0c0-0.3,0.2-0.9,0.5-1.6l0,0c0.2-0.6,0.5-2.4,0.5-3l0,0c-0.3,0.3-0.6,0.5-0.8,0.6l0,0
				c-0.1,0-0.5,0.6-0.5,0.6l0,0c0,0-0.1,0.1-0.2,0.1l0,0c-0.1,0-0.1-0.1-0.1-0.1l0,0c0,0,0.4-7,5-12.6l0,0c-1.4-0.4-2.6-1.7-3.1-2.3
				l0,0c0,0,0,0.1,0,0.1l0,0c0,0-0.3,1.3-1.3,1.6l0,0c-0.1,0-0.3,0.2-0.3,0.2l0,0c-0.3,0.6-0.6,1.3-0.6,1.3l0,0
				c-0.1,0.1-0.2,0.3-0.2,0.4l0,0c0,0,0,0,0,0l0,0c0,0-0.9,1.5-1.2,1.9l0,0c-0.1,0.2-0.3,0.3-0.5,0.4l0,0c0,0,0,0.1,0,0.1l0,0l0,0
				L68.7,29c0,0.1,0,0.1,0,0.2l0,0c0,0.6-0.2,1.2-0.5,1.8l0,0c1.1-0.2,2-0.4,2.7-0.4l0,0c0.7-0.1,1.2-0.1,1.4-0.1l0,0
				c0-0.1,0-0.1,0-0.2l0,0c0.1-0.6,0.3-1.6,0.3-1.9l0,0c0,0,0-0.1,0-0.1l0,0c0-0.4-0.2-1.2-0.3-1.5l0,0c-0.1-0.2-0.1-0.4-0.1-0.6
				l0,0c0-0.1,0-0.3,0-0.4l0,0c0-0.3,0.4-1.7,0.4-1.9l0,0v0C72.7,23.9,72.8,23.8,72.8,23.8L72.8,23.8C72.8,23.8,72.8,23.8,72.8,23.8
				L72.8,23.8z M67.1,38.3c0,0.2,0,0.4,0.4,0.5l0,0c0.2,0,0.5,0.1,0.8,0.1l0,0c0.4,0,0.7,0,0.8-0.1l0,0c0.2-0.1,0.4-0.4,0.4-0.5l0,0
				c0,0,0,0,0,0l0,0c-0.1-0.2-0.3-0.3-0.5-0.5l0,0c-0.1-0.2-0.3-0.5-0.3-0.8l0,0c0,0,0-0.1,0-0.1l0,0c0,0,0.1-0.3,0.1-0.4l0,0
				c0,0,0,0,0,0l0,0l0,0c0,0,0-0.1,0-0.3l0,0c0-0.2,0-0.5,0.1-0.7l0,0c0.1-0.2,1.1-1.7,1.1-1.7l0,0c0,0,0.5-0.7,0.6-2.7l0,0
				c-0.7,0.1-1.7,0.2-2.7,0.4l0,0c0,0.3,0,1.8,0,2.4l0,0c0,0.1,0,0.2,0,0.2l0,0c0,0.1,0,0.2,0,0.4l0,0c0,0.3,0,0.8-0.2,1l0,0
				c-0.2,0.3-0.4,0.9-0.4,1.1l0,0c0,0,0,0,0,0l0,0c0,0.1,0,0.3,0,0.4l0,0c0,0.2,0,0.3,0,0.4l0,0C67.4,37.4,67.1,38.2,67.1,38.3
				L67.1,38.3C67.1,38.2,67.1,38.2,67.1,38.3L67.1,38.3z M43.7,34.3c0,0,0.1,0.8,0.4,1.1l0,0c0,0,0.1,0.1,0.1,0.1l0,0
				c0.4,0.4,1.3,1,2.5,1.1l0,0c0.5,0,1.1,0.1,1.6,0.1l0,0c0.7,0,1.3-0.1,1.7-0.5l0,0c0-0.5-0.1-1.1-0.1-1.7l0,0c0-0.1,0-0.2,0-0.2
				l0,0c0-0.6,0.1-1.1,0.2-1.6l0,0c0,0,0,0,0,0l0,0c-0.6-0.4-1.9-1.6-2.5-2.3l0,0c-0.1,0.1-0.5,0.3-0.9,0.5l0,0
				c-0.2,0.1-0.4,0.3-0.5,0.4l0,0c-0.3,0.4-0.6,0.8-0.6,1.1l0,0c0,0,0,0.1,0,0.1l0,0c0,0,0,0,0,0l0,0c0,0.3,0.3,0.6,0.4,0.7l0,0
				c0,0,0,0,0,0l0,0c0.2,0,0.5,0.1,0.6,0.2l0,0c0.2,0.3,0.3,1.1,0.4,1.1l0,0c0.1,0.1,0.9,0.8,0.9,0.8l0,0c0.1,0,0.1,0.1,0,0.2l0,0
				c0,0.1-0.1,0.1-0.2,0l0,0c0,0-0.8-0.7-0.9-0.8l0,0c-0.2-0.2-0.3-0.9-0.4-1.1l0,0c0,0-0.2-0.1-0.5-0.1l0,0c-0.4,0-0.8,0-1,0l0,0v0
				c0,0,0,0,0,0l0,0C44.7,33.5,43.9,34,43.7,34.3L43.7,34.3C43.7,34.2,43.7,34.2,43.7,34.3L43.7,34.3z M41.9,32.8
				c0,0.2-0.1,0.6-0.1,1l0,0c0,0.5,0.1,0.9,0.8,0.9l0,0h0l0,0c0.1-0.1,0.5-0.3,0.7-0.5l0,0c0,0,0.1-0.1,0.1-0.1l0,0
				c0.3-0.3,1.2-0.8,1.5-0.9l0,0c0,0,0,0,0,0l0,0c0,0,0,0,0,0l0,0c0.1,0,0.3,0,0.6,0l0,0c-0.1-0.2-0.3-0.4-0.3-0.7l0,0c0,0,0,0,0,0
				l0,0c0,0,0,0,0-0.1l0,0c0,0-0.2-0.2-0.4-0.3l0,0c-0.2-0.2-0.5-0.3-0.5-0.3l0,0c-0.1,0-0.3,0-0.6-0.1l0,0c-0.2,0-0.5-0.1-0.6-0.1
				l0,0c0,0,0,0,0,0l0,0c0,0-0.1,0-0.1,0l0,0C42.7,31.8,41.9,32.3,41.9,32.8L41.9,32.8z M63.2,34.4c0,0,0,0.1,0,0.1l0,0
				c0,0.1,0.1,0.1,0.1,0.1l0,0c0,0,0,0,0.1-0.1l0,0l0.2-0.3l0.3-0.4c0,0,0,0,0,0l0,0c0.2-0.8,0.4-1.5,0.4-1.5l0,0
				c0.1-0.9,0.3-1.6,0.4-2.2l0,0c0,0-0.1-0.1-0.3-0.1l0,0c-0.1,0-0.3,0-0.5,0.2l0,0c-0.4,0.3-0.4,0.4-0.5,0.4l0,0
				c-0.4,0.5-0.3,0.4-0.4,0.6l0,0c0,0.1-0.2,0.8-0.2,0.9l0,0c0,0,0,0,0,0l0,0h-0.1l0.1,0v0c0,0.1,0,0.3-0.1,0.5l0,0
				c-0.1,0-0.3,0.2-0.5,0.2l0,0c0,0-0.1,0-0.1-0.1l0,0c0,0-0.3-0.4-0.4-0.4l0,0c0,0-0.1,0-0.1,0l0,0c0,0,0,0,0,0l0,0
				c0,0.2-0.2,0.2-0.2,0.2l0,0c0,0,0,0,0.1,0.1l0,0l0.4,0.3c0,0,0.4,0.3,0.5,0.3l0,0c0,0,0.1,0,0.2,0l0,0c0.2,0,0.4-0.1,0.5-0.2l0,0
				c0,0,0,0,0.1,0l0,0c0-0.2,0-0.3,0-0.4l0,0c-0.1-0.1-0.2-0.3-0.2-0.4l0,0c0-0.2,0-0.3,0-0.4l0,0v0c0-0.1,0.1-0.1,0.1-0.1l0,0
				c0.1,0,0.1,0.1,0.1,0.1l0,0c0,0.1,0,0.2,0,0.4l0,0c0,0.2,0,0.2,0.1,0.2l0,0c0,0,0.2,0,0.2-0.2l0,0c0-0.3,0.2-0.5,0.2-0.6l0,0
				c0-0.1,0.1-0.1,0.2-0.1l0,0c0.1,0,0.1,0.1,0.1,0.2l0,0C64.2,32,64,32.1,64,32.3l0,0c0,0.3-0.3,0.4-0.4,0.4l0,0
				c0,0.1,0,0.3-0.1,0.4l0,0c0,0.2-0.1,0.4-0.1,0.6l0,0C63.4,33.8,63.2,34.2,63.2,34.4L63.2,34.4L63.2,34.4L63.2,34.4L63.2,34.4z
				 M53.4,33.8c0.2,0.1,0.4,0.2,0.8,0.2l0,0c0,0,0.1,0,0.1,0l0,0c1-0.2,1.7-0.7,2-1.2l0,0c0.2-0.4,0.4-0.8,0.4-1.3l0,0
				c0-0.6-0.2-1.2-0.8-2l0,0c0-0.1,0-0.1,0-0.2l0,0c0.1,0,0.1,0,0.2,0l0,0c0.7,0.8,0.9,1.6,0.9,2.2l0,0c0,0.5-0.1,0.9-0.3,1.2l0,0
				c1.1-0.3,1.3-1.8,1.4-2.2l0,0v0c0,0-0.1-0.5-0.1-0.5l0,0c0,0-0.1-0.5-0.2-1l0,0c0-0.2-1.4-2.2-1.4-2.2l0,0c0,0,0,0,0,0l0,0
				c0,0-0.1-0.1-0.1-0.1l0,0l0,0c-0.5-0.3-1.6-0.7-1.9-0.8l0,0c0,0.1-0.1,0.1-0.2,0.1l0,0c-0.2,0.1-0.4,0.1-0.5,0.1l0,0
				c-0.2,0-0.3,0-0.4-0.1l0,0c0,0-0.1,0-0.1-0.1l0,0c0,0-0.1,0-0.1,0l0,0c0,0,0,0,0,0l0,0c0,0-0.1,0.1-0.2,0.1l0,0
				c-0.1,0-0.3,0.1-0.3,0.2l0,0c0,0.1-0.1,0.3-0.1,0.4l0,0c0,0.1-0.1,0.4-0.1,0.6l0,0c0,0.1,0,0.3-0.2,0.5l0,0c0,0-0.2,0.2-0.5,0.2
				l0,0c-0.1,0-0.1,0-0.2,0l0,0c-0.1,0-0.3,0-0.4-0.1l0,0c-0.2-0.1-0.3-0.3-0.4-0.4l0,0c0,0,0,0,0,0l0,0l-1.2,0.5
				c0,0-1.3,0.3-1.7,0.4l0,0c-0.3,0-1.5,0.3-1.4,0.9l0,0c0,0,0,0,0,0l0,0c0,0.1,0,0.2,0,0.3l0,0c0,0.2,0,0.3,0,0.4l0,0
				c0,0.2,0,0.3,0.1,0.4l0,0c0.2,0.2,0.4,0.3,0.4,0.3l0,0c0.3-0.2,0.6-0.3,0.8-0.4l0,0c-0.1-0.1-0.2-0.2-0.2-0.2l0,0v0
				c-0.1-0.1,0-0.1,0-0.2l0,0c0.1,0,0.1,0,0.2,0l0,0c0,0,0.1,0.1,0.3,0.3l0,0c0.6,0.6,1.8,1.9,2.4,2.3l0,0c0.1-0.5,0.3-1,0.5-1.4
				l0,0c0.4-0.9,1.3-1.4,1.3-1.4l0,0l0.1,0c2.1,0.8,2.5,1.4,2.5,1.9l0,0c0,0.1,0,0.3,0,0.3l0,0c-0.1,0.5-0.7,0.6-1,0.7l0,0
				c-0.1,0.3-0.2,0.7-0.4,1l0,0c0,0,0,0,0.1,0l0,0h0l0,0C53.2,33.6,53.3,33.7,53.4,33.8L53.4,33.8z M44.3,31.6c0.2,0,0.8,0.4,1,0.6
				l0,0c0.1-0.4,0.4-0.7,0.7-1.1l0,0c0.1-0.1,0.3-0.2,0.4-0.4l0,0c-0.1-0.1-0.2-0.1-0.4-0.3l0,0c-0.2-0.1-0.2-0.4-0.2-0.6l0,0
				c0-0.1,0-0.2,0-0.4l0,0c0-0.1,0-0.2,0-0.3l0,0c0,0,0,0,0-0.1l0,0c0.1-0.9,1.3-1.1,1.7-1.1l0,0c0.3,0,1.6-0.4,1.6-0.4l0,0l1.1-0.5
				c-0.1-0.1-0.1-0.3-0.1-0.5l0,0c0-0.1,0-0.1,0-0.2l0,0c0.1-0.5,0.4-0.9,0.3-0.9l0,0v0c0,0-0.5-1.3-0.5-1.3l0,0c0,0-0.7-1-0.9-1.3
				l0,0c-0.1-0.1-0.5-0.6-0.8-1.6l0,0c-0.3,0-1.6,0.2-3,0.2l0,0c-0.3,0-0.6,0-1,0l0,0c-0.1,0.1-0.8,0.9-0.8,2.1l0,0
				c0,1.3,0.4,3.3,0.4,3.8l0,0h-0.1l0.1,0c0,0.3-0.1,1-0.3,1.7l0,0c-0.1,0.2-0.1,0.6-0.1,1.1l0,0c0,0.4,0.1,0.8,0.2,1.2l0,0
				c0,0,0,0,0,0l0,0C44,31.6,44.3,31.6,44.3,31.6L44.3,31.6z M42.7,31.5c0.1,0,0.2,0,0.3,0l0,0c0,0,0,0,0,0l0,0c0,0,0.1,0,0.1,0l0,0
				c0,0,0,0,0,0l0,0c0,0,0,0,0,0l0,0c0,0,0,0,0,0l0,0c0.1,0,0.2,0,0.4,0l0,0c-0.2-0.4-0.2-0.9-0.2-1.2l0,0c0-0.5,0.1-0.9,0.2-1.2
				l0,0c0.1-0.7,0.3-1.4,0.3-1.6l0,0c0,0,0-0.1,0-0.1l0,0c0-0.5-0.4-2.5-0.4-3.8l0,0c0-1,0.5-1.8,0.7-2.1l0,0
				c-0.4,0-0.9-0.1-1.3-0.2l0,0c0,0,0,0,0,0l0,0c0,0-1.1,0.8-1.1,2.7l0,0c0,0,0,0,0,0l0,0c0,0.8,0.1,1.7,0.1,2.6l0,0
				c0,1.2-0.1,2.4-0.6,3.3l0,0c-0.1,0.1-0.1,0.2-0.2,0.3l0,0c0,0-0.3,0.4-0.3,0.5l0,0c0,0,0,0,0.1,0l0,0c0.5,0,0.8,0,1.1,0.3l0,0
				c0.1,0.1,0.2,0.2,0.3,0.3l0,0h0l0,0C42.1,31.4,42.4,31.5,42.7,31.5L42.7,31.5z M39.4,30.5c0.1,0,0.3,0.1,0.4,0.1l0,0
				c0.2,0.1,0.4,0.1,0.5,0.1l0,0c0-0.3,0.3-0.6,0.3-0.6l0,0c0.1-0.1,0.1-0.2,0.2-0.3l0,0c0.4-0.8,0.5-1.9,0.5-3.2l0,0
				c0-0.9-0.1-1.8-0.1-2.6l0,0c0,0,0,0,0-0.1l0,0c0-1.6,0.7-2.5,1.1-2.8l0,0c-0.2,0-0.4-0.1-0.6-0.1l0,0c-0.1,0.1-1,1-1,2.6l0,0
				l-0.3,3.8c0,0,0,0,0,0.1l0,0c0,0.1,0,0.3-0.2,0.8l0,0c0,0-0.3,0.7-0.5,1.1l0,0c-0.1,0.3-0.1,0.3-0.2,0.4l0,0
				c-0.1,0.2-0.3,0.4-0.4,0.5l0,0h0c0,0,0,0,0,0l0,0l0,0C39.3,30.4,39.3,30.5,39.4,30.5L39.4,30.5z M41,21.4c-0.2,0.3-0.5,1-0.7,2.1
				l0,0c0,0-0.1,2.2-0.4,3.2l0,0c-0.6,1.2-1.8,2.4-1.8,2.4l0,0c0,0-0.1,0.1-0.1,0.2l0,0c0,0.1,0,0.2,0.1,0.3l0,0l0.9,0.6
				c0,0,0,0,0,0l0,0c0.1-0.1,0.3-0.3,0.3-0.4l0,0c0-0.1,0-0.1,0.2-0.4l0,0c0.2-0.4,0.5-1.1,0.5-1.1l0,0c0.2-0.5,0.2-0.7,0.2-0.7l0,0
				h0l0,0l0.3-3.8c0-1.4,0.7-2.4,1-2.7l0,0c-0.1,0-0.1,0-0.2-0.1l0,0C41.3,21,41.1,21.1,41,21.4L41,21.4z M60.7,29.3L60.7,29.3
				L60.7,29.3L60.7,29.3L60.7,29.3z M60.7,29.3C60.7,29.3,60.7,29.3,60.7,29.3L60.7,29.3C60.7,29.3,60.7,29.3,60.7,29.3L60.7,29.3z
				 M60.7,29.3C60.7,29.3,60.7,29.3,60.7,29.3L60.7,29.3C60.7,29.3,60.7,29.3,60.7,29.3L60.7,29.3z M60.7,29.3
				C60.7,29.3,60.6,29.3,60.7,29.3L60.7,29.3C60.6,29.3,60.6,29.3,60.7,29.3L60.7,29.3z M60.7,29.3C60.7,29.3,60.8,29.3,60.7,29.3
				L60.7,29.3L60.7,29.3C60.8,29.3,60.7,29.3,60.7,29.3L60.7,29.3z M56.4,26.7c0,0,1,1.4,1.4,2l0,0l1.7-0.4c0.5-0.3,0.5-0.4,0.6-0.5
				l0,0c0.1-0.2,0.4-0.2,0.5-0.2l0,0c0.1,0,0.6-0.3,0.7-0.4l0,0c0.1-0.1,0.2-0.1,0.3-0.1l0,0c0.1,0,0.1,0,0.2,0l0,0
				c0.2,0.1,0.2,0.2,0.2,0.3l0,0c0.1,0,0.2,0,0.3,0l0,0c0.1,0,0.3,0,0.3,0l0,0c0.2-0.1,0.3-0.2,0.3-0.5l0,0c0-0.1,0-0.3-0.1-0.3l0,0
				c0-0.2-0.6-0.5-0.6-0.5l0,0c0,0-0.1,0-0.1-0.1l0,0c0,0,0-0.1,0-0.1l0,0c0.1-0.1,0.1-0.2,0.1-0.2l0,0c0-0.1-0.1-0.2-0.1-0.2l0,0
				l0-0.1c-0.1-0.2-0.3-0.3-0.5-0.3l0,0c-0.1,0-0.2,0-0.2,0l0,0c-0.2,0-0.9-0.5-1.1-0.7l0,0c0-0.1-1.3-0.1-1.8-0.2l0,0
				c0,0-0.1,0-0.1,0l0,0c-0.4,0-0.7,0.3-0.8,0.5l0,0c-0.1,0.1-0.3,0.3-0.5,0.3l0,0c0,0-0.4,0.3-0.5,0.4l0,0
				c-0.1,0.1-0.2,0.2-0.3,0.3l0,0c0,0-0.1,0-0.1,0.1l0,0c-0.1,0-0.1,0.2-0.1,0.4l0,0c0,0.2,0.1,0.5,0.1,0.5l0,0c0,0,0,0,0,0l0,0
				C56.3,26.6,56.4,26.6,56.4,26.7L56.4,26.7C56.4,26.7,56.4,26.7,56.4,26.7L56.4,26.7z M49.9,12.4c0.1,0,0.1,0.1,0,0.2l0,0
				c0,0-0.9,1.5-1.2,2.1l0,0c-0.2,0.5-0.3,1.2-0.3,1.5l0,0c0,0.1,0,0.2,0,0.3l0,0c0,0.2,0,1.3-0.1,2.1l0,0c0,0.1,0,0.3,0,0.4l0,0
				c0,0.1,0,0.1,0,0.2l0,0c0,0.4,0.1,0.7,0.1,0.7l0,0c0,0.5,0.1,1,0.2,1.3l0,0c0.3,1.1,0.7,1.5,0.8,1.7l0,0c0.1,0.2,0.9,1.2,0.9,1.3
				l0,0c0,0,0.5,1.2,0.5,1.4l0,0c0,0,0,0,0,0l0,0c0,0.2-0.3,0.5-0.3,0.9l0,0c0,0.1,0,0.1,0,0.2l0,0c0,0.2,0.1,0.4,0.2,0.5l0,0
				c0,0,0,0.1,0.1,0.1l0,0c0.2,0.1,0.3,0.3,0.4,0.4l0,0c0,0,0.1,0.1,0.2,0.1l0,0c0.1,0,0.1,0,0.2,0l0,0c0.1,0,0.3-0.2,0.3-0.2l0,0
				c0,0,0-0.1,0-0.3l0,0c0-0.2,0.1-0.5,0.1-0.6l0,0c0-0.1,0.1-0.2,0.1-0.3l0,0c0,0,0-0.1,0-0.1l0,0l0,0c0,0,0,0,0,0l0,0
				c0.1-0.1,0.4-0.2,0.4-0.2l0,0c0,0,0.1-0.1,0.3-0.1l0,0c0,0,0,0,0,0l0,0h0c0.2,0,0.3,0.1,0.3,0.1l0,0c0,0,0.1,0,0.3,0l0,0
				c0.1,0,0.3,0,0.4-0.1l0,0c0,0,0,0,0.1,0l0,0c0,0-0.1-0.1-0.2-0.1l0,0c-0.1-0.1-0.5-0.2-0.7-0.4l0,0c-0.1-0.1-0.4-0.2-0.5-0.2l0,0
				c-0.4-0.1-0.6-0.9-0.9-1.6l0,0c-0.2-0.6-0.4-1.4-0.4-2.3l0,0c0,0,0-0.1,0-0.1l0,0c0,0,0,0,0,0l0,0c0-0.8-0.6-1.9-0.7-2.3l0,0
				c0-0.1-0.1-0.2-0.1-0.2l0,0c0-0.1,0-0.1,0-0.2l0,0c0-0.1,0.1-0.2,0.1-0.2l0,0c0.4-0.4,0.7-1.3,0.8-1.8l0,0
				c0.2-0.5,0.5-0.6,0.8-0.7l0,0c0.1-0.1,0.4-0.3,0.7-0.7l0,0c0.2-0.2,0.3-0.5,0.4-0.8l0,0c0.1-0.2,0.1-0.4,0.1-0.6l0,0
				c0-0.3-0.1-0.6-0.2-0.9l0,0c-0.1-0.3-0.3-0.5-0.6-0.8l0,0c-0.1-0.1-0.3-0.2-0.4-0.3l0,0c-0.5-0.2-0.9-0.3-1.2-0.3l0,0
				c0,0,0,0-0.1,0l0,0c-0.5,0-3,0.3-3.7,1.1l0,0c-0.6,0.7-1,1.2-1,1.7l0,0c0,0.2,0.1,0.4,0.3,0.7l0,0c0.5,0.7,1.1,1.3,1.6,1.2l0,0
				c0.1,0,0.2,0,0.2,0l0,0c0,0,0,0,0,0l0,0c0.1-0.4,0.2-1,0.3-1.5l0,0c0.3-0.7,1.2-2.2,1.2-2.2l0,0C49.7,12.4,49.7,12.3,49.9,12.4
				L49.9,12.4C49.8,12.3,49.8,12.3,49.9,12.4L49.9,12.4z M66.3,24.6c-0.1,0-0.7,0.8-0.6,1.3l0,0c0,0,0,0.1,0,0.1l0,0
				c0.1,0.5,0.3,1.2,0.4,1.4l0,0l0.2,0l2.6-0.3c0,0,0.2,0,0.4-0.1l0,0c0.2-0.1,0.5-0.2,0.7-0.4l0,0c0.1-0.2,0.4-0.5,0.6-0.9l0,0
				c-0.2,0.1-0.4,0.2-0.6,0.2l0,0c-0.2,0-0.4-0.1-0.4-0.1l0,0c-0.1,0-0.3-0.1-0.4-0.2l0,0l-0.3,0.3c0,0-0.1,0-0.1,0l0,0
				c-0.5,0-0.6-0.8-0.7-0.9l0,0c-0.1-0.1-0.2-0.2-0.2-0.2l0,0c-0.1,0-0.4-0.1-0.4-0.1l0,0c0,0-0.5-0.4-0.7-0.6l0,0
				C66.5,24.3,66.5,24.5,66.3,24.6L66.3,24.6z M68.7,25.6l0.3-0.3l0.1,0c0,0,0.1,0.1,0.3,0.1l0,0c0,0,0,0,0,0l0,0l0.3-0.2
				c0.1,0,0.1,0,0.2,0l0,0c0,0.1,0,0.1,0,0.2l0,0l-0.1,0.1c0,0,0.1,0,0.2,0l0,0c0.2,0,0.6-0.1,1.1-0.8l0,0c0.1-0.1,0.2-0.3,0.2-0.4
				l0,0c0,0,0.3-0.7,0.7-1.4l0,0c0.1,0,0.3-0.2,0.4-0.2l0,0c0.8-0.3,1.1-1.4,1.1-1.4l0,0c0,0,0,0,0-0.1l0,0c0-0.1,0-0.2,0-0.3l0,0
				c0-0.1,0-0.1,0.1-0.1l0,0c0,0,0.1,0,0.1,0l0,0c0,0,1.7,2.2,3.4,2.5l0,0c0.2,0,0.3,0.1,0.5,0.1l0,0c0.3,0,0.6-0.1,0.9-0.2l0,0
				c-2.4-0.7-3.3-1.9-3.3-3l0,0c0-1.5,1.4-3,1.9-3.4l0,0c-0.1,0-0.3-0.1-0.4-0.1l0,0c-0.2,0-0.4,0-0.6,0.2l0,0
				c-1.5,0.6-2.4,3.2-2.4,3.3l0,0c0,0.1-0.1,0.1-0.1,0.1l0,0c-0.1,0-0.1-0.1-0.1-0.1l0,0c0-0.2,0.8-2.7,2.5-3.5l0,0
				c-0.2,0-0.5,0-0.7,0l0,0c-2.4,0-4.8,1.2-4.9,1.3l0,0c-0.5,0.2-0.8,0.5-0.9,0.7l0,0c0,0,0.1,0,0.1,0l0,0c0.1,0,0.2,0,0.2,0l0,0
				c0,0,0.3,0.1,0.5,0.2l0,0c0.2,0.1,0.3,0.1,0.4,0.1l0,0c0.2,0,0.8,0.3,0.9,0.3l0,0c0.1,0,0.5-0.1,0.6,0.3l0,0c0,0,0,0,0,0.1l0,0
				c0,0.1-0.1,0.1-0.1,0.2l0,0c0.1,0.1,0.3,0.1,0.3,0.3l0,0h0v0h0l0,0c0,0.1-0.1,0.3-0.1,0.3l0,0h0c0,0,0.2,0.4,0.3,0.6l0,0
				c0,0.1,0,0.2,0,0.2l0,0c0,0.1,0,0.2-0.1,0.3l0,0c0,0-0.1,0-0.1,0.1l0,0c0,0,0,0.1,0,0.1l0,0c0,0.1,0,0.2-0.1,0.3l0,0
				c0,0-0.1,0.2-0.2,0.3l0,0c-0.1,0.1-0.2,0.4-0.4,0.5l0,0c-0.2,0.1-0.3,0.1-0.4,0.1l0,0l0,0c-0.1,0.2-0.4,0.3-0.6,0.3l0,0
				c0,0,0,0-0.1,0l0,0c-0.1,0-0.4,0.2-0.6,0.2l0,0c-0.1,0-0.2,0-0.2-0.1l0,0c-0.1-0.1-0.1-0.3-0.1-0.5l0,0c0-0.1,0-0.2,0-0.3l0,0
				c0.1-0.2,0.2-0.3,0.2-0.3l0,0c0,0,0-0.1,0-0.1l0,0c0,0,0-0.1,0-0.1l0,0c0,0-0.2-0.2-0.2-0.4l0,0c0-0.1,0-0.2,0.1-0.3l0,0
				c0.2-0.2,0.6-1,0.7-1.1l0,0c0-0.1,0-0.1,0-0.2l0,0c0-0.1,0-0.2,0-0.2l0,0c0,0-0.6-0.3-0.6-0.4l0,0c0,0-0.7-0.2-0.8-0.2l0,0v0l0,0
				c0,0,0,0,0,0l0,0c-0.1,0-0.2,0-0.2,0l0,0c-0.2,0-0.4,0-0.4,0.1l0,0c-0.2,0.1-0.6,0.3-0.7,0.3l0,0c-0.1,0-0.4,0.4-0.4,0.4l0,0
				l-0.5,0.4c0,0-0.5,0.5-0.6,1.6l0,0c0,0.1,0,0.1,0,0.2l0,0c0,0.2,0,0.4,0.1,0.7l0,0c0,0,0.1,0.5,0.4,0.9l0,0
				c0.1,0.1,0.7,0.6,0.7,0.6l0,0c0,0,0.3,0.1,0.3,0.1l0,0c0.1,0,0.3,0.1,0.5,0.3l0,0C68.2,25,68.5,25.6,68.7,25.6L68.7,25.6
				C68.7,25.6,68.7,25.6,68.7,25.6L68.7,25.6C68.7,25.6,68.7,25.6,68.7,25.6L68.7,25.6z M69.1,19.1C69.1,19.1,69.1,19.1,69.1,19.1
				L69.1,19.1c0.2,0,0.8,0.1,0.9,0.2l0,0c0.1,0.1,0.6,0.3,0.7,0.4l0,0c0.1,0.1,0.1,0.2,0.1,0.4l0,0c0,0.1,0,0.2,0,0.2l0,0
				c-0.1,0.2-0.5,1-0.7,1.2l0,0c0,0,0,0.1,0,0.1l0,0c0,0.1,0.1,0.2,0.1,0.2l0,0c0.1,0.1,0.1,0.2,0.1,0.2l0,0c0,0.1,0,0.1,0,0.2l0,0
				c-0.1,0.2-0.2,0.3-0.2,0.3l0,0c0,0,0,0.1,0,0.2l0,0c0,0.1,0,0.3,0.1,0.4l0,0v0c0.1,0,0.4-0.1,0.5-0.2l0,0c0,0,0,0,0,0l0,0h0l0,0
				c0,0,0,0,0,0l0,0l0,0l0,0c0,0,0.3-0.1,0.4-0.1l0,0c0,0,0,0,0,0l0,0c0.2-0.3,0.5-0.2,0.5-0.2l0,0c0.1,0,0.3-0.4,0.4-0.5l0,0
				c0.1-0.1,0.1-0.2,0.2-0.3l0,0c0,0,0-0.1,0-0.1l0,0c0,0,0,0,0,0l0,0c0,0-0.1-0.1-0.1-0.1l0,0c0-0.2,0.1-0.2,0.2-0.3l0,0
				c0,0,0,0,0-0.1l0,0c0,0,0-0.1,0-0.2l0,0c0-0.1-0.3-0.4-0.3-0.6l0,0c0,0,0-0.1,0-0.1l0,0c0-0.2,0.1-0.3,0.1-0.3l0,0v0v0
				c0,0,0,0-0.1-0.1l0,0c-0.1,0-0.1-0.1-0.2-0.1l0,0c-0.1,0-0.1-0.1-0.1-0.2l0,0c0-0.1,0.1-0.2,0.1-0.2l0,0c0,0,0,0-0.1,0l0,0
				c-0.1,0-0.2,0-0.2,0l0,0c-0.2,0-0.8-0.3-0.9-0.3l0,0c-0.1,0-0.3-0.1-0.4-0.1l0,0c-0.2-0.1-0.5-0.2-0.6-0.3l0,0c0,0,0,0,0,0l0,0
				c0,0,0,0-0.1,0l0,0c-0.1,0-0.2,0-0.3,0l0,0c-0.2,0-0.3,0-0.4,0.1l0,0c-0.1,0-0.5,0.2-0.8,0.2l0,0c0,0,0,0,0,0l0,0c0,0,0,0,0,0
				l0,0c-0.1,0-0.4,0.3-0.8,0.4l0,0c-0.2,0-0.1,0.5-0.7,0.7l0,0c-0.1,0-0.2,0.1-0.3,0.2l0,0c-0.1,0.2-0.1,0.5-0.3,0.7l0,0
				c0,0,0,0,0,0l0,0c0,0,0,0.1,0,0.1l0,0c0,0,0,0,0,0l0,0c0,0.1,0,0.2,0.1,0.3l0,0c0,0,0,0.1,0,0.1l0,0c0,0,0,0,0,0l0,0
				c0,0,0,0.1,0,0.1l0,0c0.1-1.1,0.6-1.6,0.6-1.6l0,0l0.5-0.4c0,0,0.3-0.3,0.4-0.4l0,0c0.1-0.1,0.5-0.2,0.7-0.3l0,0
				c0.2-0.1,0.4-0.1,0.5-0.1l0,0C68.9,19.1,69,19.1,69.1,19.1L69.1,19.1C69,19.1,69,19.1,69.1,19.1L69.1,19.1
				C69.1,19.1,69.1,19.1,69.1,19.1L69.1,19.1C69.1,19.1,69.1,19.1,69.1,19.1L69.1,19.1z M77.3,16.9c-0.4,0.3-1.9,1.9-1.9,3.3l0,0
				c0,1,0.7,2.1,3.3,2.8l0,0c0.4-0.3,1.5-0.9,1.8-1.4l0,0l1.1-0.9c0,0,1.1-1.1,1.1-1.8l0,0c0-0.7-0.6-1.8-1.8-1.8l0,0
				c-0.1,0-0.2,0-0.3,0l0,0l-0.9,0.3l-0.1,0c-0.7-0.5-1.3-0.6-1.7-0.6l0,0c-0.1,0-0.2,0-0.3,0l0,0C77.5,16.9,77.4,16.9,77.3,16.9
				L77.3,16.9C77.3,16.9,77.3,16.9,77.3,16.9L77.3,16.9z M58.3,22.1c0.1,0,0.2,0.1,0.4,0.1l0,0c0.3,0.1,0.6,0.1,0.9,0.1l0,0
				c0.2,0,0.3,0,0.4,0l0,0c0.2,0,0.4-1.1,0.4-1.1l0,0c0-0.1,0-0.2,0-0.3l0,0c0-0.1,0-0.3-0.1-0.5l0,0c0-0.1-0.1-0.2-0.1-0.3l0,0
				c-0.2-0.4-0.2-0.8-0.2-1l0,0c0,0,0,0,0-0.1l0,0v0c0-0.2-0.1-0.5-0.2-0.6l0,0c-0.1-0.1-0.3-0.4-0.3-0.7l0,0c0,0,0-0.1,0-0.1l0,0
				c0.1-0.4,0.3-0.9,0.6-1.1l0,0c0,0,0.1,0,0.1-0.1l0,0c0,0,0,0-0.1,0l0,0l-0.1,0c0,0,0,0-0.1,0l0,0c-0.2,0-0.5,0.1-0.7,0.5l0,0
				c0,0-0.3,0.2-0.4,0.4l0,0c0,0-0.5,1.5-0.6,1.9l0,0c-0.1,0.5,0,0.4-0.1,0.6l0,0c-0.1,0.3-0.8,0.9-0.7,1.2l0,0c0,0.1,0,0.1,0.1,0.2
				l0,0c0,0,0,0,0,0l0,0c0.5,0.4,0.7,0.4,0.8,0.7l0,0c0,0,0,0,0,0h0C58.2,22.1,58.2,22.1,58.3,22.1L58.3,22.1z M41.8,20.9
				c0.3,0.1,0.6,0.2,0.9,0.2l0,0c0.5,0.1,1.1,0.2,1.6,0.2l0,0c0.4,0,0.7,0,1,0l0,0c1.4,0,2.6-0.1,2.9-0.2l0,0
				c-0.1-0.3-0.2-0.7-0.2-1.2l0,0c0,0-0.1-0.3-0.1-0.7l0,0c0,0,0,0,0,0l0,0c-0.3,0.2-0.8,0.6-1.4,1l0,0c-0.2,0.2-0.5,0.2-0.7,0.2
				l0,0c-0.7,0-1.2-0.5-1.5-0.7l0,0c-0.1-0.1-0.3-0.1-0.5-0.1l0,0c-0.4,0-1,0.2-1.6,0.2l0,0c-0.1,0-0.1,0-0.2,0l0,0
				c-0.4,0-0.8-0.2-1-0.5l0,0c0,0.1-0.1,0.2-0.1,0.4l0,0c0,0.2,0.1,0.5,0.4,1l0,0C41.6,20.8,41.7,20.8,41.8,20.9L41.8,20.9z
				 M63.1,21.2c0.1,0,0.2,0,0.3-0.1l0,0c0.2-0.1,0.4-0.3,0.4-0.3l0,0c0.1-0.1,0.1-0.1,0.1-0.2l0,0c0-0.1,0-0.2,0-0.4l0,0
				c0-0.1,0-0.1,0-0.2l0,0c0,0,0-0.1,0-0.1l0,0c0-0.2-0.1-0.3-0.1-0.3l0,0c0,0,0-0.1,0-0.1l0,0c0,0,0-0.1,0.1-0.1l0,0c0,0,0,0,0,0
				l0,0c0,0,0-0.1-0.1-0.1l0,0c-0.1-0.1-0.1-0.1-0.1-0.1l0,0c-0.1-0.1-0.1-0.1-0.1-0.2l0,0c0,0,0-0.1,0-0.1l0,0c0,0,0-0.1,0-0.1l0,0
				c-0.1-0.2-0.2-0.5-0.2-0.5l0,0c0,0-0.1-0.3-0.1-0.3l0,0c-0.1-0.3-0.2-0.3-0.2-0.3l0,0L63,17.6c0-0.1-0.2-0.2-0.2-0.2l0,0
				l-0.1-0.1c0,0,0,0,0-0.1l0,0c0-0.2-0.2-0.1-0.4-0.4l0,0c0-0.1-0.3-0.3-0.4-0.3l0,0c-0.1-0.2-0.5-0.3-0.5-0.3l0,0v0
				c-0.1,0-0.2,0-0.4,0.1l0,0c0.1,0,0.3,0,0.5,0.1l0,0c0,0,0.3,0.3,0.4,0.3l0,0c0,0,0.3,0.2,0.5,0.3l0,0c0.2,0.2,0.3,0.4,0.3,0.5
				l0,0c0,0.1,0,0.1-0.1,0.1l0,0c-0.1,0-0.1,0-0.1-0.1l0,0c0,0-0.1-0.2-0.2-0.3l0,0c-0.2-0.1-0.4-0.3-0.5-0.3l0,0
				c-0.1,0-0.3-0.3-0.3-0.3l0,0c-0.2,0-0.3-0.1-0.5-0.1l0,0c-0.4,0-0.7,0.2-0.8,0.2l0,0c-0.1,0-0.4,0.5-0.4,0.9l0,0c0,0,0,0.1,0,0.1
				l0,0c0,0.2,0.1,0.4,0.3,0.6l0,0c0.1,0.2,0.3,0.5,0.3,0.8l0,0c0,0,0,0,0,0l0,0c0,0,0,0,0,0l0,0c0,0.1,0,0.4,0.1,0.6l0,0
				c0.1,0,0.8,0.3,2.1,0.3l0,0c0.2-0.1,0.4-0.2,0.6-0.3l0,0c0,0,0,0,0-0.1l0,0c0-0.2-0.1-0.5-0.1-0.6l0,0c0,0,0,0,0,0l0,0
				c0,0,0-0.1,0-0.2l0,0c-0.3,0.2-0.6,0.2-0.7,0.2l0,0h0c-0.1,0-0.1,0-0.2-0.1l0,0c0-0.1,0-0.1,0.1-0.2l0,0c0,0,0.4-0.1,0.6-0.2l0,0
				c0,0,0,0,0.1,0l0,0c0-0.2-0.1-0.5-0.1-0.5l0,0c0-0.1,0.1-0.1,0.1-0.1l0,0C63,17.9,63,18,63,18l0,0c0,0.1,0.1,0.8,0.1,1l0,0l0,0
				c0,0,0,0,0,0l0,0c0,0,0,0,0,0l0,0c0,0,0,0,0,0l0,0c0,0,0,0,0,0l0,0c0,0.1,0.1,0.4,0.1,0.6l0,0c0,0.1,0,0.2-0.1,0.3l0,0
				c-0.2,0.1-0.3,0.2-0.5,0.3l0,0c0,0,0,0,0,0.1l0,0c0,0.6,0.2,0.6,0.3,0.8l0,0C63,21.1,63.1,21.2,63.1,21.2L63.1,21.2
				C63.1,21.2,63.1,21.2,63.1,21.2L63.1,21.2z M65.7,21.1c0-0.1,0-0.2,0.1-0.2l0,0c0,0,0.1-0.3,0.2-0.6l0,0c0.1-0.1,0.2-0.3,0.4-0.3
				l0,0c0.4,0,0.2-0.4,0.7-0.7l0,0c0.3-0.1,0.6-0.4,0.9-0.4l0,0c0,0,0,0,0,0l0,0h0c0.1,0,0.5-0.2,0.7-0.2l0,0c0,0,0.1,0,0.3,0l0,0
				c0,0,0-0.1,0-0.1l0,0c0,0,0.4-0.5,1-0.8l0,0c-1.2-0.9-1.3-1.8-1.3-2.2l0,0c0,0,0-0.1,0-0.1l0,0c0,0,0,0,0,0l0,0l-0.1,0.1
				c0,0.1,0,0.2-0.1,0.3l0,0c-0.1,0.2,0,0.3-0.3,0.4l0,0c0,0,0,0-0.1,0l0,0c-0.2-0.1-0.4-0.5-0.4-0.5l0,0l0-0.1l0.3-1l0.1-1
				c-0.7,0.4-1.4,0.4-1.6,0.4l0,0c0,0,0,0-0.1,0l0,0c-0.5-0.2-0.8-0.9-0.9-1.2l0,0c0,0,0,0,0,0.1l0,0c0,0,0,0.1,0,0.1l0,0
				c0,0.1,0,0.2,0.1,0.5l0,0c0,0.1,0,0.2,0,0.2l0,0c0,0.3,0,0.5-0.1,0.7l0,0c-0.1,0.2-0.3,0.2-0.4,0.2l0,0l0,0l0,0v0c0,0,0,0,0,0
				l0,0c0,0-0.1,0-0.1,0.1l0,0c-0.1,0-0.1,0.1-0.1,0.1l0,0c0,0-0.1,0-0.1,0l0,0c0,0-0.1-0.1-0.1-0.1l0,0c0,0,0.1-0.4,0.1-0.5l0,0h0
				c0-0.1-0.2-0.6-0.3-0.8l0,0c-0.1-0.2-0.2-1.5-0.2-1.8l0,0c0,0,0,0,0,0l0,0h0c0-0.3,0.3-1.1,0.3-1.3l0,0c0-0.2,0.2-0.8,0.4-1.1
				l0,0c0-0.1,0.1-0.2,0.2-0.3l0,0c-0.2-0.1-0.4-0.1-0.6-0.1l0,0c-0.5,0-1,0.3-1,0.3l0,0c0,0-0.5,0.1-0.8,0.1l0,0
				c-0.2,0-0.4,0.1-1.1,0.9l0,0c-0.3,0.3-0.4,0.7-0.4,0.9l0,0c0,0.3,0.1,0.5,0.1,0.5l0,0v0c0,0,0,0,0,0l0,0c0,0,0,0,0,0l0,0
				c0.1,0,0.2,0,0.3,0.1l0,0c0.4,0.2,1.5,0.7,1.9,1.4l0,0c0.1,0.2,0.1,0.3,0.1,0.5l0,0c0.1-0.1,0.2-0.1,0.3-0.1l0,0l-0.3-1.1
				c0-0.1,0-0.1,0.1-0.2l0,0c0.1,0,0.1,0,0.2,0.1l0,0l0.4,1.5c0,0,0,0,0,0l0,0c0.2,0.6,0.3,1.1,0.3,1.6l0,0c0,1-0.4,1.6-0.4,1.6l0,0
				c0,0-0.5,1-0.5,1.1l0,0c0,0.1,0,0.1,0,0.1l0,0c0,0,0.1,0.4,0.1,0.5l0,0c0,0.1,0,0.2,0,0.2l0,0c0,0,0,0.1,0,0.1l0,0
				c0.1,0.1,0.3,0.2,0.3,0.4l0,0c0,0,0,0,0,0l0,0c0,0,0,0.1,0,0.1l0,0c0.1,0.1,0.1,0.2,0.1,0.4l0,0c0,0,0,0.1,0,0.2l0,0
				c0,0,0,0,0,0.1l0,0c0,0,0,0.1,0,0.1l0,0L65.7,21.1L65.7,21.1z M54.4,18.2c-0.1,0.1-0.2,0.4-0.2,0.8l0,0c0,0,0,0,0,0l0,0
				c0,0,0,0,0,0l0,0c0,0.1,0,0.2,0,0.3l0,0c0,0.2,0,0.3,0.2,0.4l0,0c0.1,0,0.2,0.1,0.3,0.2l0,0c0.3,0.2,0.6,0.4,0.9,0.4l0,0
				c0.2,0,0.3,0,0.5-0.2l0,0c0,0,0.2-0.1,0.2-0.4l0,0c0-0.1,0-0.1,0-0.2l0,0l0.1-0.1c0,0,0.2-0.2,0.2-0.3l0,0c0,0,0-0.1,0-0.1l0,0
				l-0.2-0.3c0,0,0-0.1,0-0.1l0,0c0,0,0.1-0.1,0.1-0.1l0,0l0.6-0.1c0,0,0.1,0,0.1-0.1l0,0c0,0,0,0,0,0l0,0c-0.2,0-0.4-0.1-0.5-0.1
				l0,0c-0.1,0-0.7-0.1-0.7-0.1l0,0l-0.1,0c0,0.1,0.1,0.1,0.1,0.2l0,0c0,0,0,0.1-0.1,0.2l0,0c-0.1,0.1-0.3,0.2-0.5,0.2l0,0
				c-0.1,0-0.1,0-0.2,0l0,0l-0.1-0.1c-0.1,0-0.1-0.1-0.1-0.2l0,0c0-0.1,0.1-0.1,0.2-0.1l0,0l0.1,0.1c0,0,0,0,0,0l0,0
				c0.1,0,0.3-0.1,0.4-0.1l0,0c0,0-0.1-0.1-0.1-0.2l0,0l-0.4-0.1L55,18C54.8,18,54.5,18.2,54.4,18.2L54.4,18.2z M44.6,19.5
				c0.3,0.2,0.8,0.7,1.3,0.7l0,0c0.2,0,0.3,0,0.5-0.2l0,0c0.5-0.3,1-0.7,1.3-0.9l0,0l-1-0.3c-0.2-0.1-1.4-0.5-1.6-0.5l0,0
				c-0.3,0-0.9-0.3-1.2-0.4l0,0c-0.3-0.2-0.8-1-0.9-1.3l0,0c0,0,0,0,0,0l0,0h0c0-0.2,0.1-0.9,0.2-1.6l0,0c-0.3,0.1-1,0.5-1.7,1.8
				l0,0c0,0-0.6,0.7-0.8,0.9l0,0c0,0-0.1,0.1-0.1,0.3l0,0c0,0.3,0.1,0.6,0.2,0.7l0,0c0.1,0.1,0.2,0.3,0.4,0.4l0,0c0,0,0,0,0.1,0l0,0
				c0,0,0,0,0,0l0,0c0.3,0.2,0.6,0.4,0.9,0.4l0,0c0,0,0.1,0,0.1,0l0,0c0.5-0.1,1.1-0.2,1.6-0.2l0,0C44.2,19.3,44.4,19.3,44.6,19.5
				L44.6,19.5z M51.8,18.5c0,0.1,0,0.2,0.1,0.3l0,0c0,0,0.4,1.1,1.5,1.2l0,0c0.1,0,0.4,0,0.8,0l0,0c-0.2-0.2-0.3-0.4-0.2-0.6l0,0
				c0-0.1,0-0.2,0-0.3l0,0c0,0,0,0,0,0l0,0c0,0,0,0,0,0l0,0c0-0.4,0.2-0.8,0.3-0.9l0,0c0.2-0.2,0.7-0.4,0.7-0.4l0,0l0.1,0l0.2,0
				c-0.2-0.2-0.7-0.6-0.7-0.6l0,0h0c0,0,0,0,0-0.1l0,0c0,0,0,0,0,0l0,0c-0.7,0.3-1.9,0.7-1.9,0.7l0,0l-0.7,0.3
				C51.8,18.2,51.8,18.4,51.8,18.5L51.8,18.5z M63.1,19.1C63.1,19.1,63.1,19.1,63.1,19.1L63.1,19.1C63.1,19.1,63.1,19.1,63.1,19.1
				L63.1,19.1z M44.1,17.6c0.2,0.2,0.9,0.4,1,0.4l0,0c0.3,0,1.4,0.5,1.6,0.5l0,0l1.2,0.4c0,0,0,0,0,0l0,0c0,0,0.1-0.1,0.1-0.1l0,0
				c0,0,0,0,0,0l0,0c0-0.1,0-0.2,0-0.3l0,0c0.1-0.8,0.1-1.9,0.1-2.1l0,0c0,0,0-0.1,0-0.1l0,0c-0.1,0-0.1,0-0.2,0l0,0
				c-0.7,0-1.3-0.7-1.8-1.3l0,0c-0.2-0.3-0.3-0.5-0.3-0.8l0,0c0-0.6,0.5-1.2,1.1-1.8l0,0c0.5-0.6,1.7-0.9,2.6-1l0,0
				c-0.1,0-0.2,0-0.2,0l0,0c-0.4,0-0.8,0-1,0.1l0,0c-0.9,0.2-2,0.4-2.3,0.6l0,0c-0.4,0.2-0.8,1-1.2,1.3l0,0c-0.4,0.2-0.9,0.4-1,1
				l0,0c0,0.1-0.1,0.2-0.1,0.4l0,0c-0.1,0.7-0.2,1.6-0.2,1.7l0,0c0,0,0,0,0,0l0,0c0,0,0,0,0,0l0,0C43.3,16.7,43.9,17.5,44.1,17.6
				L44.1,17.6z M52.2,16c-0.3,0.2-0.5,0.2-0.7,0.6l0,0c-0.1,0.4-0.3,1.3-0.8,1.8l0,0l0.9-0.4l0.8-0.4c0,0,1.2-0.4,1.8-0.7l0,0
				c0.2-0.1,0.3-0.1,0.4-0.2l0,0c0-0.1,0-0.3,0-0.4l0,0c0,0-0.1,0-0.1,0.1l0,0l-0.7,0.4c-0.1,0-0.1,0-0.2,0l0,0c0-0.1,0-0.1,0-0.2
				l0,0l0.7-0.4c0.1-0.1,0.2-0.1,0.2-0.2l0,0c0.2-0.3,0.3-0.7,0.3-0.9l0,0c0-0.1,0-0.1,0-0.1l0,0L53,15.3h0c0,0-0.1,0-0.1,0l0,0
				C52.7,15.7,52.4,15.9,52.2,16L52.2,16z M68.9,15.6c0,0.4,0.1,1.2,1.3,2.1l0,0c0.4-0.2,1.8-0.9,3.5-1.1l0,0
				c-0.1-0.1-0.3-0.4-0.8-0.7l0,0c-0.3-0.2-0.7-0.4-1.1-0.6l0,0c-0.1,0-0.1-0.1-0.1-0.2l0,0c0-0.1,0.1-0.1,0.2-0.1l0,0
				c0.4,0.1,0.7,0.3,1,0.5l0,0c0-0.3-0.4-1-0.4-1l0,0c-1-1.7-2.6-2.3-2.8-2.4l0,0c0,0.1,0,0.1,0,0.2l0,0c0,0,0,0,0,0l0,0
				c0,0.1,0.1,0.4,0.1,0.6l0,0c0,0.1,0,0.1-0.1,0.2l0,0c-0.1,0.1-0.2,0.2-0.2,0.2l0,0c0,0.1,0,0.5-0.2,0.7l0,0
				c-0.1,0.1-0.1,0.2-0.2,0.3l0,0l0,0c0,0,0,0.2,0,0.5l0,0c0,0.2,0,0.4-0.1,0.5l0,0c-0.1,0.1-0.1,0.1-0.2,0.2l0,0
				C68.9,15.4,68.9,15.5,68.9,15.6L68.9,15.6z M54.6,16.7C54.6,16.7,54.6,16.7,54.6,16.7L54.6,16.7L54.6,16.7L54.6,16.7z M68.2,15.9
				c0,0,0-0.1,0-0.1l0,0c0-0.1,0.1-0.3,0.1-0.3l0,0l0.1-0.1l0.1-0.1c0.1-0.1,0.2-0.1,0.3-0.1l0,0c0,0,0.1-0.1,0.1-0.1l0,0
				c0-0.1,0.1-0.2,0.1-0.4l0,0c0-0.2,0-0.4,0-0.5l0,0c0,0,0,0,0,0l0,0c0,0,0,0,0,0l0,0c0-0.1,0.1-0.3,0.3-0.5l0,0
				c0.1,0,0.1-0.5,0.1-0.6l0,0c0-0.2,0.2-0.3,0.3-0.4l0,0c0,0,0,0,0,0l0,0c0-0.2-0.1-0.5-0.1-0.6l0,0c0,0,0-0.1,0-0.1l0,0
				c0-0.1,0-0.2,0.1-0.4l0,0c0,0,0,0,0-0.1l0,0c0-0.1,0.1-0.6,0.1-0.8l0,0c0,0,0,0,0,0l0,0c0,0,0-0.1,0-0.1l0,0
				c0-0.2,0.1-0.4,0.1-0.5l0,0v0c0-0.1-0.3-0.8-0.5-1.2l0,0c-0.1-0.3-0.7-0.4-0.7-0.4l0,0l-0.1,0c-0.4-0.4-1-0.5-1.4-0.5l0,0
				c-0.1,0-0.2,0-0.2,0l0,0c0,0-0.9,0.2-1,0.3l0,0c-0.1,0.1-0.3,0.3-0.5,0.6l0,0c0,0,0,0,0,0l0,0c0,0,0,0-0.1,0.1l0,0
				c-0.1,0.1-0.2,0.2-0.2,0.3l0,0c-0.1,0.2-0.4,0.9-0.4,1l0,0c0,0.2-0.3,1-0.3,1.2l0,0l0,0h0c0,0,0,0,0,0l0,0c0,0,0,0,0,0l0,0
				c0,0.3,0.2,1.6,0.2,1.7l0,0c0,0.2,0.3,0.6,0.3,0.8l0,0c0,0,0,0,0,0l0,0c0,0,0,0.1,0,0.2l0,0c0.1,0,0.1,0,0.2-0.1l0,0c0,0,0,0,0,0
				l0,0c0,0,0,0,0,0l0,0c0,0,0.1,0,0.1,0l0,0c0,0,0,0,0,0l0,0c0-0.1,0.1-0.4,0.1-0.6l0,0c0-0.1,0-0.1,0-0.2l0,0
				c0-0.2-0.1-0.3-0.1-0.5l0,0c0-0.1,0-0.1,0-0.2l0,0c0-0.1,0.1-0.2,0.2-0.3l0,0c0.1-0.1,0.1-0.2,0.1-0.3l0,0c0-0.3,0.1-0.7,0.2-0.9
				l0,0c0.1-0.1,0.3-0.6,0.4-0.7l0,0c0.1-0.2,0.4-0.3,0.6-0.3l0,0c0,0,0,0,0,0l0,0c0.1,0,0.4,0.1,0.6,0.1l0,0c0.1,0,0.1,0,0.1,0l0,0
				c0.1-0.1,0.8-0.6,0.8-0.6l0,0c0,0,0.1,0,0.1,0l0,0c0,0,0.1,0.1,0.1,0.1l0,0c0,0,0.1,0.4,0.1,0.6l0,0c0,0,0.3,0.5,0.4,0.5l0,0
				c0.2,0.2,0.2,0.6,0.3,0.8l0,0c0,0,0,0,0,0.1l0,0l-0.9,1.5l0,0.1l-0.1,1.2L68,15.6C68,15.6,68.1,15.8,68.2,15.9L68.2,15.9z
				 M55,14.6l0.1,0.1l0.8,0.4c0,0,0.5,0.2,0.6,0.2l0,0c0,0,0,0,0,0l0,0c0.1,0,0.1,0,0.1-0.1l0,0c0-0.2,0.1-0.3,0.3-0.3l0,0l0,0
				c0,0,0,0,0.1-0.1l0,0l-0.2-0.2c0-0.1,0-0.1,0-0.2l0,0c0.1,0,0.1,0,0.2,0l0,0l0.2,0.2c0.1,0,0.2,0,0.2,0l0,0c0,0,0.1-0.1,0.2-0.2
				l0,0c0,0,0,0,0,0l0,0c0,0,0,0,0,0l0,0h0l0,0c0,0,0,0,0,0l0,0c0,0,0,0,0,0l0,0l0,0l0,0c0,0,0.1,0,0.1,0l0,0c0,0,0,0,0,0l0,0l0,0
				l0,0c0,0,0,0,0.1,0l0,0c0,0,0.1,0,0.1,0l0,0c0,0,0,0,0-0.1l0,0c0.1-0.5,0.5-1.4,0.6-1.6l0,0c0-0.1,0.1-0.2,0.1-0.2l0,0
				c-0.2-0.1-0.3-0.1-0.7-0.3l0,0l-0.3-0.3c0,0.1-0.1,0.3-0.2,0.4l0,0c-0.2,0.2-0.3,0.2-0.4,0.2l0,0c0,0,0,0-0.1,0l0,0v0
				c0,0,0,0,0,0l0,0c0,0-0.3,0.2-0.5,0.3l0,0c-0.1,0.1-0.4,0.4-0.9,0.4l0,0c0,0-0.4,0.1-0.8,0.1l0,0c-0.1,0-0.2,0-0.3-0.1l0,0
				c0,0-0.1,0-0.1,0l0,0c-0.1,0-0.3,0-0.4,0l0,0c-0.1,0-0.2,0-0.3-0.2l0,0c0,0,0-0.1-0.1-0.1l0,0c0,0.1,0,0.3,0,0.4l0,0
				c0,0.2,0,0.5-0.1,0.7l0,0c-0.1,0.3-0.2,0.5-0.3,0.7l0,0L55,14.6L55,14.6L55,14.6z M60.8,14.8c0.1,0,0.2,0.1,0.4,0.1l0,0
				c0.1,0,0.3,0,0.4-0.1l0,0c0.5-0.3,0.8-0.3,0.7-0.4l0,0c0,0,0-0.1,0-0.1l0,0c0-0.1,0-0.1,0-0.2l0,0c-0.2-0.6,0-0.4-0.2-0.5l0,0
				c-0.2-0.1-0.3-0.3-0.3-0.3l0,0c0,0,0,0,0,0l0,0c0,0,0,0-0.1,0l0,0c0,0,0,0,0,0l0,0c0,0,0,0,0,0.1l0,0c0,0,0,0,0,0.1l0,0
				c0,0,0,0.1,0.1,0.2l0,0c0.1,0.2,0.2,0.3,0.2,0.3l0,0c0,0.1,0,0.1,0,0.2l0,0c-0.1,0-0.1,0-0.2,0l0,0c0,0-0.1-0.1-0.2-0.3l0,0
				c0,0,0,0,0,0l0,0l-0.5-0.3c-0.2-0.1-0.3-0.1-0.5-0.1l0,0c-0.1,0-0.2,0-0.3,0l0,0c-0.1,0-0.1,0-0.2,0l0,0c-0.4,0-0.9,0.3-0.9,0.3
				l0,0c0,0-0.2,0.1-0.3,0.1l0,0c0.1,0.1,0.1,0.1,0.3,0.1l0,0c0,0,0,0,0,0l0,0c0.1,0,0.2,0,0.2,0l0,0v0v0v0c0,0,0,0,0,0l0,0
				c0.1-0.1,0.1-0.1,0.2-0.1l0,0c0.1,0,0.2,0,0.2,0.1l0,0c0,0,0.8,0.8,0.8,0.8l0,0l0,0l0,0C60.6,14.8,60.7,14.8,60.8,14.8L60.8,14.8
				z M61.6,13c0.1,0,0.2,0,0.3,0.1l0,0c0.1,0.1,0.1,0.2,0.3,0.3l0,0c0.1,0.1,0.2,0.1,0.3,0.7l0,0c0,0.1,0,0.1,0,0.2l0,0
				c0.1,0,0.4-0.1,0.5-0.1l0,0c0.1,0,0.1-0.1,0.2-0.2l0,0c0-0.1,0.1-0.2,0.1-0.3l0,0c0-0.1,0-0.3-0.1-0.4l0,0
				c-0.2-0.6-1.3-1.1-1.7-1.3l0,0c-0.1,0-0.1,0-0.2,0l0,0c0,0-0.1,0-0.1,0l0,0c-0.3,0-0.5,0.3-0.7,0.4l0,0c-0.1,0.1-0.2,0.6-0.2,0.8
				l0,0c0.1,0,0.1,0,0.2,0l0,0c0.2,0,0.4,0,0.6,0.2l0,0l0.1,0.1c0,0,0,0,0,0l0,0c0-0.1,0-0.1,0.1-0.2l0,0C61.5,13,61.6,13,61.6,13
				L61.6,13C61.6,13,61.6,13,61.6,13L61.6,13z M65.7,12.6c0,0,0.4,1.1,0.8,1.2l0,0c0,0,0,0,0,0l0,0c0.1,0,0.9,0,1.6-0.5l0,0
				c0,0,0,0,0,0l0,0l0,0l0.4-0.6c-0.1,0-0.2,0-0.3-0.1l0,0l0,0c0,0.1-0.1,0.1-0.2,0.1l0,0c-0.1,0-0.1-0.1-0.1-0.2l0,0l0-0.1
				c-0.1,0-0.2-0.1-0.2-0.1l0,0v0c-0.1,0-0.1-0.1,0-0.2l0,0c0-0.1,0.1-0.1,0.2,0l0,0c0,0,0.4,0.2,0.7,0.2l0,0c0,0,0,0,0,0l0,0
				l0.4-0.7v0c0-0.1-0.1-0.6-0.2-0.6l0,0c-0.1-0.1-0.5-0.4-0.5-0.7l0,0c0-0.1,0-0.2-0.1-0.4l0,0c-0.2,0.2-0.6,0.5-0.7,0.5l0,0
				c-0.1,0-0.2,0-0.3,0l0,0c-0.2,0-0.5-0.1-0.6-0.1l0,0l0,0c-0.1,0-0.4,0.1-0.4,0.2l0,0c-0.1,0.2-0.3,0.6-0.4,0.8l0,0
				c0,0-0.1,0.6-0.1,0.8l0,0C65.8,12.4,65.7,12.5,65.7,12.6L65.7,12.6C65.7,12.6,65.7,12.6,65.7,12.6L65.7,12.6z M54.6,13.3
				c0,0,0.1,0,0.2,0l0,0c0.3,0,0.7-0.1,0.7-0.1l0,0c0.4,0,0.6-0.3,0.8-0.4l0,0c0.2-0.1,0.4-0.4,0.6-0.4l0,0c0,0,0,0,0,0l0,0
				c0,0,0,0,0,0l0,0c0.1,0,0.1,0,0.2-0.1l0,0c0.1-0.1,0.1-0.3,0.1-0.4l0,0c0-0.1,0-0.1,0-0.1l0,0c0-0.1,0-0.1,0.1-0.1l0,0
				c0,0,0.1,0,0.1,0l0,0l0.5,0.4c0.4,0.3,0.4,0.2,0.8,0.3l0,0c0.1,0,0.2,0.1,0.3,0.1l0,0c0,0,0,0,0,0l0,0c0.3-0.1,0.2-0.1,0.3-0.2
				l0,0c0-0.1,0.1-0.3,0.1-0.6l0,0c0-0.3-0.1-0.6-0.4-0.6l0,0L59.1,11c0,0-0.3-0.7-0.9-0.7l0,0c0,0-0.1,0-0.1,0l0,0l-0.1,0
				c0,0-0.2-0.1-0.5-0.3l0,0c-0.3-0.1-0.7-0.3-1.1-0.3l0,0c-0.1,0-0.2,0-0.3,0l0,0c0,0-0.4-0.1-0.9-0.1l0,0c-0.6,0-1.1,0.1-1.1,0.4
				l0,0c0,0.1,0,0.1-0.1,0.1l0,0c0,0-0.3,0.1-0.6,0.2l0,0c-0.3,0.1-0.6,0.3-0.6,0.4l0,0c0,0,0,0,0,0l0,0c0,0,0,0,0,0l0,0
				c0,0.1,0,0.1-0.1,0.1l0,0c0,0-0.2,0-0.2,0l0,0c-0.1,0-0.3,0.3-0.3,0.4l0,0c0,0,0,0.1,0,0.1l0,0c0,0,0,0,0,0l0,0
				c0.1,0.1,0.2,0.1,0.4,0.2l0,0c0.3,0.2,0.6,0.5,0.7,0.9l0,0c0,0,0,0.1,0.1,0.1l0,0c0.2,0.2,0.4,0.4,0.5,0.5l0,0c0,0,0,0,0.1,0l0,0
				c0.1,0,0.3,0,0.4,0l0,0C54.4,13.2,54.5,13.2,54.6,13.3L54.6,13.3z M60.6,28.6c0-0.1,0-0.1,0-0.2l0,0l0,0c-0.1,0-0.1-0.1-0.2-0.2
				l0,0c0-0.1,0-0.1,0-0.2l0,0c0.1,0,0.1,0,0.2,0l0,0c0,0.1,0.5,0.2,0.5,0.2l0,0c0.1,0,0.1,0.1,0.1,0.2l0,0c0,0.1-0.1,0.1-0.2,0.1
				l0,0c0,0-0.1,0-0.2-0.1l0,0l-0.1,0.1c0,0-0.1,0-0.1,0l0,0C60.7,28.7,60.6,28.7,60.6,28.6L60.6,28.6z M69,24.6l-0.1-0.1l-0.4,0.1
				c-0.1,0-0.1,0-0.2-0.1l0,0c0-0.1,0-0.1,0.1-0.2l0,0l1.1-0.2c0.1,0,0.1,0,0.2,0.1l0,0c0,0.1,0,0.1-0.1,0.2l0,0l-0.4,0.1l0,0
				c0,0.1,0,0.1,0,0.2l0,0C69.1,24.6,69.1,24.6,69,24.6L69,24.6C69,24.6,69,24.6,69,24.6L69,24.6z M63.2,19C63.2,19,63.2,19,63.2,19
				L63.2,19L63.2,19L63.2,19C63.2,19,63.2,19,63.2,19L63.2,19C63.2,19,63.2,19,63.2,19L63.2,19z M68,18.9C68,18.9,68,18.9,68,18.9
				L68,18.9L68,18.9L68,18.9z M60.5,17.9c-0.1,0-0.1-0.1,0-0.2l0,0c0,0,0.3-0.5,0.7-0.5l0,0c0.1,0,0.1,0,0.2,0.1l0,0
				c0.1,0,0.1,0.1,0,0.2l0,0c0,0.1-0.1,0.1-0.2,0l0,0l0,0c0,0,0,0,0,0l0,0c0,0,0,0,0,0l0,0l0.1,0.1c0,0.1,0,0.1,0,0.2l0,0
				c-0.1,0-0.1,0-0.2,0l0,0l0-0.1c0,0,0,0,0,0l0,0c-0.1,0.1-0.2,0.3-0.2,0.3l0,0v0C60.6,17.9,60.6,18,60.5,17.9L60.5,17.9
				C60.5,18,60.5,18,60.5,17.9L60.5,17.9z M66.9,13.6c-0.3,0-0.5-0.2-0.5-0.2l0,0c-0.1,0-0.1-0.1,0-0.2l0,0c0-0.1,0.1-0.1,0.2,0l0,0
				c0,0,0.1,0.1,0.3,0.1l0,0c0.1,0,0.1,0.1,0.1,0.1l0,0C67.1,13.6,67,13.6,66.9,13.6L66.9,13.6C66.9,13.6,66.9,13.6,66.9,13.6
				L66.9,13.6z M57.8,13.6l-0.2-0.2l-0.1,0.1c0,0.1-0.1,0.1-0.2,0l0,0c-0.1,0-0.1-0.1,0-0.2l0,0l0.1-0.1l-0.2-0.1
				c-0.1,0-0.1-0.1,0-0.2l0,0c0-0.1,0.1-0.1,0.2,0l0,0l0.7,0.4c0.1,0,0.1,0.1,0,0.2l0,0C58,13.6,57.9,13.6,57.8,13.6L57.8,13.6
				C57.9,13.6,57.8,13.6,57.8,13.6L57.8,13.6z M67,13.2c-0.2,0-0.4-0.1-0.4-0.2l0,0c0,0,0-0.1,0-0.1l0,0h0c0.1-0.1,0.1-0.1,0.2,0
				l0,0c0,0,0,0,0,0l0,0c0,0,0.1,0,0.1,0l0,0c0.1,0,0.1,0.1,0.1,0.1l0,0C67.2,13.2,67.1,13.2,67,13.2L67,13.2
				C67,13.2,67,13.2,67,13.2L67,13.2z M66.5,12.2c-0.1,0-0.1-0.1-0.1-0.1l0,0l0-0.1c-0.2-0.1-0.3-0.1-0.3-0.1l0,0
				c-0.1,0-0.1-0.1,0-0.2l0,0c0-0.1,0.1-0.1,0.2,0l0,0c0,0,0.4,0.2,0.7,0.2l0,0c0.1,0,0.1,0.1,0.1,0.1l0,0c0,0.1-0.1,0.1-0.1,0.1
				l0,0c-0.1,0-0.2,0-0.3,0l0,0l0,0.1C66.7,12.1,66.6,12.2,66.5,12.2L66.5,12.2C66.5,12.2,66.5,12.2,66.5,12.2L66.5,12.2z
				 M52.8,10.7C52.8,10.7,52.8,10.7,52.8,10.7L52.8,10.7C52.8,10.7,52.8,10.7,52.8,10.7L52.8,10.7z"/>
		</g>
		<g>
			<path d="M72.9,37.2c-0.8-0.2-1.1-0.6-1.1-0.9l0,0c0-0.5,0.4-0.8,0.5-0.8l0,0c0.1,0,0.1,0,0.2,0l0,0c0,0.1,0,0.1,0,0.2l0,0
				c0,0-0.4,0.3-0.4,0.6l0,0c0,0.2,0.2,0.5,0.9,0.7l0,0c0.1,0,0.1,0.1,0.1,0.1l0,0C73.1,37.2,73,37.2,72.9,37.2L72.9,37.2
				C73,37.2,73,37.2,72.9,37.2L72.9,37.2z"/>
		</g>
		<g>
			<path d="M82.5,36.5c-0.1,0-0.1-0.1-0.1-0.1l0,0c0-0.1,0-0.2,0-0.4l0,0c0-1.3-0.3-4.5-0.3-6.6l0,0c0-0.6,0-1.1,0.1-1.5l0,0
				c0.1-0.6,0.1-1.2,0.1-1.7l0,0c0-1-0.1-1.8-0.1-1.8l0,0c0-0.1,0-0.1,0.1-0.2l0,0c0.1,0,0.1,0,0.2,0.1l0,0c0,0,0.1,0.8,0.1,1.8l0,0
				c0,0.5,0,1.1-0.1,1.8l0,0c-0.1,0.3-0.1,0.8-0.1,1.4l0,0c0,2.1,0.3,5.3,0.3,6.6l0,0c0,0.2,0,0.3,0,0.5l0,0
				C82.6,36.4,82.5,36.5,82.5,36.5L82.5,36.5C82.5,36.5,82.5,36.5,82.5,36.5L82.5,36.5z"/>
		</g>
	</g>
	<g>
		<path d="M78.2,19.5c-0.1-0.1-0.1-0.1,0-0.2l0,0l1.1-1.1c0.1-0.1,0.1-0.1,0.2,0l0,0c0.1,0.1,0.1,0.1,0,0.2l0,0l-1.1,1.1
			C78.4,19.5,78.3,19.5,78.2,19.5L78.2,19.5C78.3,19.5,78.2,19.5,78.2,19.5L78.2,19.5z"/>
	</g>
	<g>
		<g>
			<path d="M79.8,37.9c0,0-1.6-1.6-3-3.2l0,0c0-0.1,0-0.1,0-0.2l0,0c0.1,0,0.1,0,0.2,0l0,0c1.4,1.6,3,3.2,3,3.2l0,0
				c0,0.1,0,0.1,0,0.2l0,0C79.9,37.9,79.9,37.9,79.8,37.9L79.8,37.9C79.8,37.9,79.8,37.9,79.8,37.9L79.8,37.9z M55.2,36.9
				c0-0.1,0-0.1,0-0.2l0,0c0,0,1.4-1.2,1.5-1.8l0,0c0.2-0.5,0.4-1,0.4-1l0,0c0.4-1,0.4-1.6,0.5-2.1l0,0v0c0-0.1,0.1-0.1,0.2-0.1l0,0
				c0.1,0,0.1,0.1,0.1,0.2l0,0c-0.1,0.5-0.1,1.1-0.5,2.2l0,0c0,0-0.2,0.6-0.4,1l0,0c-0.2,0.7-1.6,1.9-1.6,1.9l0,0
				C55.3,36.9,55.3,37,55.2,36.9L55.2,36.9C55.2,37,55.2,36.9,55.2,36.9L55.2,36.9z M57.8,29.7c-0.3-0.9-2.5-1.8-2.5-1.8l0,0
				c-0.1,0-0.1-0.1-0.1-0.2l0,0c0-0.1,0.1-0.1,0.2-0.1l0,0c0,0,2.2,0.8,2.6,2l0,0c0,0.1,0,0.1-0.1,0.2l0,0c0,0,0,0,0,0l0,0
				C57.9,29.8,57.9,29.8,57.8,29.7L57.8,29.7z M51.9,29.8c-0.1,0-0.1-0.1,0-0.2l0,0c0,0,0.6-0.7,1.9-0.7l0,0c0,0,0.5,0,1,0l0,0
				c0.1,0,0.1,0.1,0.1,0.1l0,0c0,0.1-0.1,0.1-0.1,0.1l0,0c-0.4,0-1,0-1,0l0,0c-1.2,0-1.7,0.6-1.7,0.6l0,0
				C52.1,29.8,52.1,29.8,51.9,29.8L51.9,29.8C52,29.8,52,29.8,51.9,29.8L51.9,29.8z M73.8,28.6c-0.1-0.7-0.1-1.3-0.1-1.6l0,0
				c0-0.3,0-0.4,0-0.4l0,0c0-0.1,0.1-0.1,0.1-0.1l0,0c0.1,0,0.1,0.1,0.1,0.1l0,0c0,0,0,0.1,0,0.4l0,0c0,0.3,0,0.9,0.1,1.6l0,0
				c0,0.1,0,0.1-0.1,0.1l0,0c0,0,0,0,0,0l0,0C73.9,28.8,73.8,28.7,73.8,28.6L73.8,28.6z M49.6,27.6c0,0-0.4-1.3-0.7-2.7l0,0
				c-0.2-0.8-0.2-1.4-0.2-1.9l0,0c0-0.3,0-0.5,0-0.5l0,0l0,0c0-0.1,0.1-0.1,0.1-0.1l0,0c0.1,0,0.1,0.1,0.1,0.1l0,0c0,0,0,0.2,0,0.5
				l0,0c0,0.4,0,1.1,0.2,1.8l0,0c0.3,1.4,0.7,2.7,0.7,2.7l0,0c0,0.1,0,0.1-0.1,0.2l0,0c0,0,0,0,0,0l0,0
				C49.7,27.7,49.7,27.6,49.6,27.6L49.6,27.6z M63.5,26.9c-0.1,0-0.1-0.1-0.1-0.2l0,0c0,0,0.9-2.9,1.6-3.2l0,0c0.1,0,0.1,0,0.2,0.1
				l0,0c0,0.1,0,0.1-0.1,0.2l0,0c-0.2,0.1-0.6,0.8-0.9,1.6l0,0c-0.3,0.8-0.5,1.5-0.5,1.5l0,0C63.6,26.8,63.6,26.9,63.5,26.9
				L63.5,26.9C63.5,26.9,63.5,26.9,63.5,26.9L63.5,26.9z M71.4,24.5c-0.1,0-0.1-0.1-0.1-0.2l0,0c0.2-0.5,0.3-1.4,0.3-1.4l0,0v0
				c0-0.1,0.1-0.1,0.2-0.1l0,0c0.1,0,0.1,0.1,0.1,0.2l0,0c0,0-0.1,0.9-0.4,1.4l0,0C71.5,24.4,71.5,24.5,71.4,24.5L71.4,24.5
				C71.4,24.5,71.4,24.5,71.4,24.5L71.4,24.5z M72,23.9c0-0.1,0.1-0.1,0.1-0.1l0,0l2.4-0.1c0,0,0.5-0.1,0.8-0.3l0,0
				c0.1,0,0.1,0,0.2,0l0,0c0,0.1,0,0.1,0,0.2l0,0c-0.4,0.2-0.9,0.3-0.9,0.3l0,0l-2.4,0.1c0,0,0,0,0,0l0,0C72.1,24.1,72,24,72,23.9
				L72,23.9z M61,22.4c-0.4,0-0.8-0.1-0.8-0.1l0,0c-0.1,0-0.1-0.1-0.1-0.2l0,0c0-0.1,0.1-0.1,0.2-0.1l0,0c0,0,0.3,0.1,0.7,0.1l0,0
				c0.7,0,1.5-0.2,1.8-1l0,0c0-0.1,0.1-0.1,0.2-0.1l0,0c0.1,0,0.1,0.1,0.1,0.2l0,0C62.7,22.2,61.7,22.4,61,22.4L61,22.4
				C61,22.4,61,22.4,61,22.4L61,22.4z M73.5,20.9c-0.1-1.3-0.9-1.4-1.4-1.4l0,0c-0.2,0-0.3,0-0.3,0l0,0h0c-0.1,0-0.1,0-0.2-0.1l0,0
				c0-0.1,0-0.1,0.1-0.2l0,0c0,0,0.1,0,0.3,0l0,0c0.5,0,1.6,0.2,1.6,1.7l0,0c0,0.1-0.1,0.1-0.1,0.1l0,0c0,0,0,0,0,0l0,0
				C73.5,21.1,73.5,21,73.5,20.9L73.5,20.9z M62.3,18.4c0-0.1,0-0.1,0.1-0.2l0,0c0.2-0.1,0.3-0.2,0.3-0.3l0,0
				c-0.2-0.1-0.6-0.4-0.8-0.5l0,0c-0.1-0.1-0.2-0.2-0.2-0.3l0,0c0-0.2,0.2-0.3,0.2-0.3l0,0c0.1,0,0.1,0,0.2,0l0,0c0,0.1,0,0.1,0,0.2
				l0,0c0,0-0.1,0.1-0.1,0.1l0,0c0,0,0,0,0.1,0l0,0c0.4,0.2,0.9,0.6,0.9,0.6l0,0l0.1,0.1c0,0-0.1,0.3-0.5,0.5l0,0c0,0,0,0-0.1,0l0,0
				C62.4,18.5,62.4,18.4,62.3,18.4L62.3,18.4z"/>
		</g>
	</g>
	<g>
		<path d="M57.9,29.7c0-0.1,0-0.1,0-0.2l0,0l0.3-0.2c0.1,0,0.1,0,0.2,0l0,0c0,0.1,0,0.1,0,0.2l0,0l-0.3,0.2c0,0-0.1,0-0.1,0l0,0
			C58,29.7,57.9,29.7,57.9,29.7L57.9,29.7z"/>
	</g>
	<g>
		<path d="M98,90.4c0.3,0.3,1.1,1.2,2.8,1.2c1.9,0,3-1.1,3-2.6c0-1.2-1-2-1.6-2.2v0c0.6-0.3,1.4-1.1,1.4-2.1c0-1.5-1.3-2.5-2.8-2.5
			c-1.5,0-2.5,1.2-2.5,1.2c-0.1,0.1-0.1,0.3,0,0.3l0.5,0.4c0.1,0.1,0.3,0.1,0.3,0c0.3-0.3,0.8-0.8,1.6-0.8c0.8,0,1.5,0.6,1.5,1.5
			c0,0.8-0.6,1.4-1.9,1.4h-0.8c-0.2,0-0.3,0.1-0.3,0.3v0.6c0,0.2,0.1,0.3,0.3,0.3h0.8c1.4,0,2.1,0.8,2.1,1.6c0,0.9-0.8,1.5-1.7,1.5
			c-1,0-1.7-0.7-1.8-0.8c-0.1-0.1-0.2-0.1-0.4,0L98,90C97.9,90.1,97.9,90.3,98,90.4 M94,90.4c-1.5,0-2-1.5-1.9-2.7
			c0.1-0.2,0.8-1,1.8-1c1,0,1.8,0.8,1.8,1.8C95.8,89.5,95,90.4,94,90.4 M90.8,87.8c0,2.1,1,3.8,3.2,3.8c1.6,0,3-1.4,3-3.1
			c0-1.9-1.4-2.9-2.8-2.9c-0.9,0-1.7,0.4-1.8,0.5c0.4-1.7,2.6-2.8,3.2-3c0.3-0.1,0.3-0.2,0.2-0.4l-0.2-0.6c-0.1-0.1-0.2-0.2-0.3-0.2
			C94,82.5,90.8,84,90.8,87.8 M84.6,89c0-0.7,0.6-1.5,1.7-1.6c1.1,0.2,1.7,0.9,1.7,1.6c0,0.9-0.8,1.5-1.7,1.5
			C85.4,90.5,84.6,89.9,84.6,89 M86.3,86.1c-1-0.2-1.5-0.7-1.5-1.4c0-0.8,0.7-1.4,1.5-1.4c0.9,0,1.5,0.6,1.5,1.4
			C87.9,85.4,87.4,86,86.3,86.1 M83.2,89c0,1.5,1.2,2.6,3.1,2.6c1.9,0,3.1-1.1,3.1-2.6c0-1.2-1-2-1.6-2.2v-0.1
			c0.6-0.3,1.4-1,1.4-2.1c0-1.5-1.2-2.5-2.9-2.5c-1.6,0-2.8,1-2.8,2.5c0,1,0.8,1.8,1.4,2.1v0C84.4,87,83.2,87.8,83.2,89 M76.8,91.4
			h4.7c0.1,0,0.3-0.1,0.3-0.2v-0.6c0-0.1-0.1-0.3-0.3-0.3H80v-7.8c0-0.1-0.1-0.3-0.2-0.3h-0.7l-2,1.8c-0.1,0.1-0.1,0.2,0,0.3
			l0.2,0.5c0,0.1,0.2,0.1,0.3,0.1l1.2-0.6v6h-1.9c-0.1,0-0.3,0.1-0.3,0.3v0.6C76.5,91.3,76.6,91.4,76.8,91.4 M64.6,86.7
			c0-1.9,1.6-3.5,3.5-3.5c1.9,0,3.5,1.6,3.5,3.5c0,1.9-1.6,3.5-3.5,3.5C66.1,90.2,64.6,88.7,64.6,86.7 M63.2,86.7
			c0,2.7,2.1,4.8,4.8,4.8c2.7,0,4.8-2.1,4.8-4.8s-2.2-4.9-4.8-4.9C65.3,81.9,63.2,84,63.2,86.7 M53.5,91.2c0,0.1,0.1,0.3,0.3,0.3
			h0.8c0.1,0,0.3-0.1,0.3-0.3v-6.5h0l5.8,6.9H61c0.1,0,0.3-0.1,0.3-0.2v-9c0-0.1-0.1-0.3-0.3-0.3h-0.9c-0.1,0-0.3,0.1-0.3,0.3v6.4h0
			l-5.8-6.7h-0.3c-0.1,0-0.3,0.1-0.3,0.2V91.2z M46,88.2l1.6-3.7h0.1l1.7,3.7H46z M43.5,91.4h0.8c0.2,0,0.3-0.1,0.3-0.2
			c0.3-0.6,0.6-1.2,0.8-1.8h4.4l0.8,1.8c0.1,0.1,0.1,0.2,0.3,0.2h0.8c0.2,0,0.3-0.2,0.2-0.3L48,82c0-0.1-0.2-0.1-0.2-0.1h-0.1
			c-0.1,0-0.2,0.1-0.2,0.1l-4.1,9C43.2,91.3,43.3,91.4,43.5,91.4 M37.2,91.2c0,0.1,0.1,0.3,0.3,0.3h4.8c0.1,0,0.3-0.1,0.3-0.3v-0.7
			c0-0.1-0.1-0.3-0.3-0.3h-3.6v-7.9c0-0.1-0.1-0.3-0.3-0.3h-0.9c-0.1,0-0.3,0.1-0.3,0.3V91.2z M33.2,91.2c0,0.1,0.1,0.3,0.3,0.3h0.9
			c0.1,0,0.3-0.1,0.3-0.3v-8.9c0-0.1-0.1-0.3-0.3-0.3h-0.9c-0.1,0-0.3,0.1-0.3,0.3V91.2z M20.9,91.1c0,0.2,0.1,0.3,0.3,0.3H22
			c0.1,0,0.2-0.1,0.2-0.2l1-6h0.1l2.4,6.2c0,0.1,0.1,0.1,0.2,0.1h0.2c0.1,0,0.2-0.1,0.2-0.1l2.4-6.2h0l1,6c0,0.1,0.1,0.2,0.3,0.2H31
			c0.2,0,0.3-0.1,0.2-0.3l-1.7-9c0-0.1-0.1-0.2-0.2-0.2h-0.2c-0.1,0-0.2,0.1-0.2,0.1l-2.8,6.9H26L23.2,82c0-0.1-0.1-0.1-0.2-0.1
			h-0.2c-0.1,0-0.2,0.1-0.2,0.2L20.9,91.1z"/>
	</g>
	<g>
		<path d="M113.2,68.9c0-2.4,2-4.4,4.4-4.4c2.4,0,4.4,2,4.4,4.4c0,2.4-2,4.4-4.4,4.4C115.1,73.3,113.2,71.4,113.2,68.9 M110.7,68.9
			c0,3.8,3.1,6.9,6.9,6.9c3.8,0,6.9-3.1,6.9-6.9c0-3.8-3.1-6.9-6.9-6.9C113.7,62,110.7,65.1,110.7,68.9 M97.3,68.9
			c0,3.8,3.1,6.9,6.9,6.9c1.7,0,3.4-0.6,4.7-1.9c0.1-0.1,0.2-0.4,0-0.5l-1.2-1.2c-0.1-0.1-0.3-0.1-0.5,0c-0.8,0.7-1.8,1.1-2.9,1.1
			c-2.5,0-4.3-2-4.3-4.4c0-2.4,1.8-4.5,4.3-4.5c1.1,0,2.1,0.4,3,1.1c0.2,0.2,0.3,0.2,0.5,0l1.2-1.2c0.2-0.2,0.2-0.4,0-0.5
			c-1.3-1.2-2.7-1.8-4.6-1.8C100.4,62,97.3,65.1,97.3,68.9 M92.3,75.3c0,0.2,0.2,0.4,0.4,0.4h1.8c0.2,0,0.4-0.2,0.4-0.4V62.6
			c0-0.2-0.2-0.4-0.4-0.4h-1.8c-0.2,0-0.4,0.2-0.4,0.4V75.3z M77.6,75.3c0,0.2,0.2,0.4,0.4,0.4h1.7c0.2,0,0.4-0.2,0.4-0.4V67h0
			l8,8.8h0.5c0.2,0,0.4-0.2,0.4-0.3V62.6c0-0.2-0.2-0.4-0.4-0.4h-1.8c-0.2,0-0.4,0.2-0.4,0.4v7.9h0l-8-8.5H78
			c-0.2,0-0.4,0.2-0.4,0.3V75.3z M63.5,68.9c0,3.8,3.1,6.9,6.9,6.9c1.7,0,3.4-0.6,4.7-1.9c0.1-0.1,0.2-0.4,0-0.5l-1.2-1.2
			c-0.1-0.1-0.3-0.1-0.5,0c-0.8,0.7-1.8,1.1-2.9,1.1c-2.5,0-4.3-2-4.3-4.4c0-2.4,1.8-4.5,4.3-4.5c1.1,0,2.1,0.4,3,1.1
			c0.2,0.2,0.3,0.2,0.5,0l1.2-1.2c0.2-0.2,0.2-0.4,0-0.5c-1.3-1.2-2.7-1.8-4.6-1.8C66.6,62,63.5,65.1,63.5,68.9 M53,75.3
			c0,0.2,0.2,0.4,0.4,0.4h7.8c0.2,0,0.4-0.2,0.4-0.4v-1.6c0-0.2-0.2-0.4-0.4-0.4h-5.7V70h4.7c0.2,0,0.4-0.2,0.4-0.4V68
			c0-0.2-0.2-0.4-0.4-0.4h-4.7v-3.1h5.7c0.2,0,0.4-0.2,0.4-0.4v-1.6c0-0.2-0.2-0.4-0.4-0.4h-7.8c-0.2,0-0.4,0.2-0.4,0.4V75.3z
			 M45,75.3c0,0.2,0.2,0.4,0.4,0.4h1.8c0.2,0,0.4-0.2,0.4-0.4V64.5h2.9c0.2,0,0.4-0.2,0.4-0.4v-1.6c0-0.2-0.2-0.4-0.4-0.4H42
			c-0.2,0-0.4,0.2-0.4,0.4v1.6c0,0.2,0.2,0.4,0.4,0.4H45V75.3z M36.7,75.3c0,0.2,0.2,0.4,0.4,0.4h1.8c0.2,0,0.4-0.2,0.4-0.4V62.6
			c0-0.2-0.2-0.4-0.4-0.4h-1.8c-0.2,0-0.4,0.2-0.4,0.4V75.3z M26.5,75.3c0,0.2,0.2,0.4,0.4,0.4h7c0.2,0,0.4-0.2,0.4-0.4v-1.6
			c0-0.2-0.2-0.4-0.4-0.4h-4.9V62.6c0-0.2-0.2-0.4-0.4-0.4h-1.8c-0.2,0-0.4,0.2-0.4,0.4V75.3z M13.1,68.9c0-2.4,2-4.4,4.4-4.4
			c2.4,0,4.4,2,4.4,4.4c0,2.4-2,4.4-4.4,4.4C15.1,73.3,13.1,71.4,13.1,68.9 M10.6,68.9c0,3.8,3.1,6.9,6.9,6.9c3.8,0,6.9-3.1,6.9-6.9
			c0-3.8-3.1-6.9-6.9-6.9C13.7,62,10.6,65.1,10.6,68.9 M2.5,68.4v-3.9h2.2c1.1,0,2,0.8,2,1.9c0,1.1-0.9,2-2,2H2.5z M0,75.3
			c0,0.2,0.2,0.4,0.4,0.4h1.8c0.2,0,0.4-0.2,0.4-0.4v-4.5h2.4c2.3,0,4.3-1.9,4.3-4.3c0-2.3-1.9-4.2-4.3-4.2H0.4
			c-0.2,0-0.4,0.2-0.4,0.4V75.3z"/>
	</g>
</g>
</svg>
